<?xml version="1.0" encoding="UTF-8" standalone="no"?>
<!DOCTYPE svg PUBLIC "-//W3C//DTD SVG 1.1//EN" "http://www.w3.org/Graphics/SVG/1.1/DTD/svg11.dtd">
<svg width="100%" height="100%" viewBox="0 0 2496 690" version="1.1" xmlns="http://www.w3.org/2000/svg" xmlns:xlink="http://www.w3.org/1999/xlink" xml:space="preserve" xmlns:serif="http://www.serif.com/" style="fill-rule:evenodd;clip-rule:evenodd;stroke-linejoin:round;stroke-miterlimit:2;">
    <g transform="matrix(1,0,0,1,0,1.176)">
        <path d="M604.31,0.574L604.31,531.493L672.496,531.753L672.496,279.046L837.237,279.046L837.237,212.161L672.496,212.161L672.496,67.46L886.946,67.46L886.946,0.574L604.31,0.574ZM1010.05,108.319C1034.77,108.319 1054.55,88.28 1054.55,63.816C1054.55,39.352 1034.51,19.313 1010.05,19.313C985.322,19.313 965.542,39.352 965.542,63.816C965.542,88.28 985.582,108.319 1010.05,108.319ZM975.432,175.205L975.432,531.493L1043.62,531.493L1043.62,175.205L975.432,175.205Z" style="fill:white;fill-rule:nonzero;stroke:black;stroke-width:3.5px;"/>
        <path d="M1296.85,164.795C1206.02,164.795 1142.78,241.57 1142.78,332.658C1142.78,423.747 1206.02,500.522 1296.85,500.522C1338.49,500.522 1372.58,484.387 1397.56,458.361L1397.56,505.467C1397.56,564.545 1351.24,613.733 1290.6,613.733C1268.74,613.733 1247.14,605.405 1229.96,593.433L1195.61,652.771C1222.93,670.468 1255.46,680.618 1290.34,680.618C1387.15,680.618 1465.49,602.282 1465.49,505.467L1465.49,175.205L1397.56,175.205L1397.56,206.956C1372.58,180.93 1338.49,164.795 1296.85,164.795ZM1211.22,332.658C1211.22,276.183 1254.42,231.68 1304.39,231.68C1354.36,231.68 1397.56,276.183 1397.56,332.658C1397.56,389.134 1354.36,433.637 1304.39,433.637C1254.42,433.637 1211.22,389.134 1211.22,332.658Z" style="fill:white;stroke:black;stroke-width:3.5px;"/>
        <path d="M1711.95,231.68C1671.61,231.68 1638.82,266.033 1638.82,306.373L1638.82,531.493L1570.63,531.493L1570.63,175.205L1638.82,175.205L1638.82,207.737C1658.86,181.971 1688.27,164.795 1726.79,164.795C1774.67,164.795 1811.37,188.478 1832.71,224.913C1856.39,189.779 1894.91,164.795 1941.5,164.795C2019.31,164.795 2067.72,227.516 2067.98,305.072L2067.98,531.493L1999.79,531.493L1999.79,306.113C1999.79,265.773 1967,231.42 1926.66,231.42C1886.32,231.42 1853.53,265.773 1853.53,306.113L1853.53,531.493L1785.34,531.493L1785.34,306.113C1785.08,265.773 1752.29,231.68 1711.95,231.68Z" style="fill:white;fill-rule:nonzero;stroke:black;stroke-width:3.5px;"/>
        <g transform="matrix(1,0,0,1,105.055,53.4728)">
            <g transform="matrix(12,0,0,12,0,8.5957)">
                <path d="M0.042,-0.189L0.13,-0.201C0.14,-0.151 0.157,-0.115 0.181,-0.093C0.206,-0.071 0.235,-0.06 0.27,-0.06C0.311,-0.06 0.346,-0.074 0.375,-0.103C0.403,-0.132 0.417,-0.167 0.417,-0.209C0.417,-0.25 0.404,-0.283 0.378,-0.309C0.352,-0.336 0.318,-0.349 0.277,-0.349C0.261,-0.349 0.24,-0.345 0.215,-0.339L0.225,-0.416C0.231,-0.415 0.236,-0.415 0.239,-0.415C0.277,-0.415 0.31,-0.425 0.34,-0.444C0.37,-0.464 0.385,-0.494 0.385,-0.535C0.385,-0.567 0.374,-0.594 0.353,-0.615C0.331,-0.636 0.303,-0.646 0.268,-0.646C0.234,-0.646 0.205,-0.636 0.183,-0.614C0.16,-0.593 0.145,-0.561 0.139,-0.518L0.051,-0.533C0.062,-0.592 0.086,-0.638 0.124,-0.67C0.162,-0.703 0.209,-0.719 0.266,-0.719C0.305,-0.719 0.341,-0.71 0.374,-0.694C0.407,-0.677 0.432,-0.654 0.449,-0.625C0.467,-0.596 0.476,-0.565 0.476,-0.533C0.476,-0.502 0.467,-0.474 0.451,-0.448C0.434,-0.423 0.41,-0.403 0.377,-0.388C0.419,-0.378 0.452,-0.358 0.476,-0.327C0.499,-0.296 0.511,-0.258 0.511,-0.211C0.511,-0.149 0.488,-0.096 0.442,-0.052C0.397,-0.009 0.339,0.013 0.27,0.013C0.207,0.013 0.155,-0.006 0.113,-0.043C0.072,-0.081 0.048,-0.129 0.042,-0.189Z" style="fill-rule:nonzero;"/>
            </g>
            <g transform="matrix(12,0,0,12,6.67383,8.5957)">
                <path d="M0.089,-0L0.089,-0.1L0.189,-0.1L0.189,-0C0.189,0.037 0.182,0.066 0.169,0.089C0.156,0.112 0.136,0.129 0.107,0.142L0.083,0.104C0.102,0.096 0.115,0.084 0.124,0.068C0.133,0.052 0.138,0.03 0.139,-0L0.089,-0Z" style="fill-rule:nonzero;"/>
            </g>
            <g transform="matrix(12,0,0,12,10.0078,8.5957)">
                <path d="M0.042,-0.188L0.134,-0.195C0.141,-0.15 0.156,-0.117 0.181,-0.094C0.206,-0.071 0.236,-0.06 0.271,-0.06C0.314,-0.06 0.35,-0.076 0.379,-0.108C0.408,-0.14 0.423,-0.182 0.423,-0.235C0.423,-0.285 0.409,-0.325 0.381,-0.354C0.352,-0.382 0.316,-0.397 0.27,-0.397C0.242,-0.397 0.216,-0.391 0.193,-0.378C0.171,-0.365 0.153,-0.348 0.14,-0.328L0.057,-0.338L0.126,-0.706L0.482,-0.706L0.482,-0.622L0.197,-0.622L0.158,-0.43C0.201,-0.46 0.246,-0.475 0.293,-0.475C0.356,-0.475 0.409,-0.453 0.452,-0.41C0.495,-0.366 0.516,-0.311 0.516,-0.243C0.516,-0.178 0.497,-0.122 0.459,-0.075C0.414,-0.017 0.351,0.012 0.271,0.012C0.206,0.012 0.153,-0.006 0.112,-0.042C0.071,-0.079 0.047,-0.127 0.042,-0.188Z" style="fill-rule:nonzero;"/>
            </g>
            <g transform="matrix(12,0,0,12,20.0156,8.5957)">
                <path d="M0.066,0.199L0.066,-0.519L0.146,-0.519L0.146,-0.451C0.165,-0.478 0.186,-0.497 0.21,-0.51C0.234,-0.524 0.263,-0.53 0.296,-0.53C0.341,-0.53 0.38,-0.519 0.414,-0.496C0.447,-0.473 0.473,-0.441 0.49,-0.4C0.507,-0.358 0.516,-0.313 0.516,-0.263C0.516,-0.21 0.507,-0.162 0.488,-0.12C0.469,-0.077 0.441,-0.045 0.405,-0.022C0.368,0 0.33,0.012 0.29,0.012C0.261,0.012 0.234,0.006 0.211,-0.007C0.188,-0.019 0.169,-0.035 0.154,-0.054L0.154,0.199L0.066,0.199ZM0.146,-0.256C0.146,-0.19 0.159,-0.14 0.186,-0.108C0.213,-0.076 0.246,-0.061 0.284,-0.061C0.323,-0.061 0.357,-0.077 0.385,-0.11C0.412,-0.143 0.426,-0.194 0.426,-0.264C0.426,-0.33 0.413,-0.379 0.385,-0.412C0.358,-0.445 0.326,-0.461 0.288,-0.461C0.251,-0.461 0.218,-0.444 0.189,-0.409C0.16,-0.374 0.146,-0.323 0.146,-0.256Z" style="fill-rule:nonzero;"/>
            </g>
            <g transform="matrix(12,0,0,12,26.6895,8.5957)">
                <path d="M0.258,-0.079L0.271,-0.001C0.246,0.004 0.224,0.007 0.204,0.007C0.172,0.007 0.147,0.002 0.13,-0.008C0.112,-0.018 0.1,-0.032 0.093,-0.048C0.086,-0.065 0.082,-0.099 0.082,-0.152L0.082,-0.45L0.018,-0.45L0.018,-0.519L0.082,-0.519L0.082,-0.647L0.169,-0.7L0.169,-0.519L0.258,-0.519L0.258,-0.45L0.169,-0.45L0.169,-0.147C0.169,-0.122 0.171,-0.106 0.174,-0.099C0.177,-0.091 0.182,-0.086 0.189,-0.082C0.196,-0.077 0.206,-0.075 0.219,-0.075C0.229,-0.075 0.242,-0.076 0.258,-0.079Z" style="fill-rule:nonzero;"/>
            </g>
        </g>
        <g transform="matrix(1,0,0,1,-6.25375,-22.1751)">
            <path d="M2431.81,215.544C2401.36,184.053 2359.72,164.795 2311.58,164.795C2210.08,164.795 2137.73,250.939 2137.73,353.479C2137.73,456.019 2209.82,542.163 2311.58,542.163C2359.72,542.163 2401.36,522.644 2431.81,491.413L2431.81,531.493L2500,531.493L2500,175.205L2431.81,175.205L2431.81,215.544ZM2206.17,353.479C2206.17,285.552 2258.22,231.68 2319.12,231.68C2379.76,231.68 2432.07,285.292 2432.07,353.479C2432.07,421.405 2380.02,475.278 2319.12,475.278C2258.22,475.017 2206.17,421.405 2206.17,353.479Z" style="fill:white;stroke:black;stroke-width:3.5px;"/>
        </g>
        <rect x="0" y="0.574" width="458.828" height="688.112" style="fill:none;"/>
        <path d="M229.284,344.63C229.284,281.388 280.554,229.858 344.056,229.858C407.298,229.858 458.828,281.128 458.828,344.63C458.828,407.872 407.558,459.402 344.056,459.402C280.814,459.402 229.284,407.872 229.284,344.63Z" style="fill:rgb(26,188,254);fill-rule:nonzero;"/>
        <path d="M0,573.914C0,510.672 51.27,459.142 114.772,459.142L229.544,459.142L229.544,573.914C229.544,637.156 178.274,688.686 114.772,688.686C51.27,688.686 0,637.416 0,573.914Z" style="fill:rgb(10,207,131);fill-rule:nonzero;"/>
        <path d="M229.284,0.314L229.284,229.858L344.056,229.858C407.298,229.858 458.828,178.588 458.828,115.086C458.828,51.844 407.558,0.314 344.056,0.314L229.284,0.314Z" style="fill:rgb(255,114,98);fill-rule:nonzero;"/>
        <path d="M0,115.346C0,178.588 51.27,230.118 114.772,230.118L229.544,230.118L229.544,0.574L114.772,0.574C51.27,0.574 0,51.844 0,115.346Z" style="fill:rgb(242,78,30);fill-rule:nonzero;"/>
        <path d="M0,344.63C0,407.872 51.27,459.402 114.772,459.402L229.544,459.402L229.544,229.858L114.772,229.858C51.27,229.858 0,281.388 0,344.63Z" style="fill:rgb(162,89,255);fill-rule:nonzero;"/>
    </g>
</svg>
