<?xml version="1.0" encoding="UTF-8" standalone="no"?>
<!DOCTYPE svg PUBLIC "-//W3C//DTD SVG 1.1//EN" "http://www.w3.org/Graphics/SVG/1.1/DTD/svg11.dtd">
<svg width="100%" height="100%" viewBox="0 0 2503 568" version="1.1" xmlns="http://www.w3.org/2000/svg" xmlns:xlink="http://www.w3.org/1999/xlink" xml:space="preserve" xmlns:serif="http://www.serif.com/" style="fill-rule:evenodd;clip-rule:evenodd;stroke-linejoin:round;stroke-miterlimit:2;">
    <g transform="matrix(1,0,0,1,0,-966.38)">
        <g>
            <path d="M1449.95,1189.65L1351.54,1189.65L1351.54,1200.09C1382.32,1200.09 1387.27,1206.69 1387.27,1245.72L1387.27,1316.1C1387.27,1355.13 1382.33,1362.29 1351.54,1362.29C1327.91,1358.99 1311.96,1346.34 1289.97,1322.15L1264.68,1294.66C1298.76,1288.61 1316.9,1267.17 1316.9,1242.98C1316.9,1212.75 1291.07,1189.65 1242.68,1189.65L1145.93,1189.65L1145.93,1200.09C1176.71,1200.09 1181.66,1206.69 1181.66,1245.72L1181.66,1316.1C1181.66,1355.13 1176.71,1362.29 1145.93,1362.29L1145.93,1372.73L1255.33,1372.73L1255.33,1362.29C1224.55,1362.29 1219.6,1355.13 1219.6,1316.1L1219.6,1296.32L1228.94,1296.32L1289.97,1372.73L1449.96,1372.73C1528.57,1372.73 1562.67,1330.95 1562.67,1280.92C1562.66,1230.88 1528.57,1189.65 1449.95,1189.65ZM1219.6,1279.26L1219.6,1206.15L1242.14,1206.15C1266.88,1206.15 1277.88,1223.19 1277.88,1242.98C1277.88,1262.23 1266.88,1279.26 1242.14,1279.26L1219.6,1279.26ZM1451.61,1355.68L1447.76,1355.68C1427.97,1355.68 1425.22,1350.75 1425.22,1325.45L1425.22,1206.15L1451.61,1206.15C1508.78,1206.15 1519.22,1247.93 1519.22,1280.37C1519.22,1313.9 1508.78,1355.68 1451.61,1355.68ZM839.713,1299.61L877.644,1187.44C888.644,1155.01 883.699,1145.67 848.509,1145.67L848.509,1134.67L951.866,1134.67L951.866,1145.67C917.236,1145.67 908.986,1153.91 895.245,1194.05L832.565,1382.07L825.421,1382.07L769.338,1209.99L712.167,1382.07L705.014,1382.07L643.991,1194.05C630.796,1153.92 622,1145.68 590.111,1145.68L590.111,1134.68L712.162,1134.68L712.162,1145.68C679.718,1145.68 670.921,1153.37 682.472,1187.45L719.306,1299.62L774.829,1134.68L785.282,1134.68L839.713,1299.61ZM1026.63,1379.87C966.157,1379.87 916.676,1335.34 916.676,1280.91C916.676,1227.03 966.157,1182.5 1026.63,1182.5C1087.1,1182.5 1136.58,1227.03 1136.58,1280.91C1136.58,1335.34 1087.11,1379.87 1026.63,1379.87ZM1026.63,1199.55C976.056,1199.55 958.454,1245.17 958.454,1280.91C958.454,1317.2 976.056,1362.28 1026.63,1362.28C1077.76,1362.28 1095.36,1317.2 1095.36,1280.91C1095.36,1245.17 1077.76,1199.55 1026.63,1199.55Z" style="fill:rgb(0,116,154);fill-rule:nonzero;"/>
            <path d="M1698.44,1361.73L1698.44,1372.73L1572.55,1372.73L1572.55,1361.73C1609.38,1361.73 1615.98,1352.38 1615.98,1297.4L1615.98,1209.44C1615.98,1154.46 1609.38,1145.67 1572.55,1145.67L1572.55,1134.67L1686.35,1134.67C1742.97,1134.67 1774.32,1163.81 1774.32,1202.85C1774.32,1240.78 1742.97,1270.47 1686.35,1270.47L1655.01,1270.47L1655.01,1297.4C1655.01,1352.39 1661.6,1361.73 1698.44,1361.73ZM1686.35,1154.46L1655.01,1154.46L1655.01,1250.12L1686.35,1250.12C1717.13,1250.12 1731.43,1228.68 1731.43,1202.85C1731.43,1176.46 1717.14,1154.46 1686.35,1154.46ZM2152.01,1321.05L2149.25,1330.94C2144.31,1349.09 2138.25,1355.68 2099.22,1355.68L2091.52,1355.68C2062.93,1355.68 2057.99,1349.09 2057.99,1310.06L2057.99,1284.77C2100.87,1284.77 2104.17,1288.62 2104.17,1317.21L2114.62,1317.21L2114.62,1235.28L2104.17,1235.28C2104.17,1263.87 2100.87,1267.72 2057.99,1267.72L2057.99,1206.15L2088.22,1206.15C2127.26,1206.15 2133.3,1212.75 2138.25,1230.89L2141.01,1241.33L2149.8,1241.33L2145.95,1189.66L1984.32,1189.66L1984.32,1200.1C2015.1,1200.1 2020.05,1206.69 2020.05,1245.73L2020.05,1316.1C2020.05,1351.81 2015.85,1360.81 1991.58,1362.09C1968.51,1358.57 1952.67,1345.99 1931,1322.15L1905.71,1294.66C1939.8,1288.61 1957.94,1267.17 1957.94,1242.98C1957.94,1212.75 1932.1,1189.65 1883.72,1189.65L1786.96,1189.65L1786.96,1200.09C1817.75,1200.09 1822.7,1206.69 1822.7,1245.72L1822.7,1316.1C1822.7,1355.13 1817.76,1362.29 1786.96,1362.29L1786.96,1372.73L1896.37,1372.73L1896.37,1362.29C1865.59,1362.29 1860.63,1355.13 1860.63,1316.1L1860.63,1296.32L1869.99,1296.32L1931.01,1372.73L2156.96,1372.73L2160.26,1321.06L2152.01,1321.05ZM1860.63,1279.26L1860.63,1206.15L1883.17,1206.15C1907.91,1206.15 1918.91,1223.19 1918.91,1242.98C1918.91,1262.23 1907.91,1279.26 1883.17,1279.26L1860.63,1279.26ZM2263.61,1379.87C2241.62,1379.87 2222.37,1368.33 2214.12,1361.18C2211.37,1363.93 2206.43,1372.18 2205.33,1379.87L2194.88,1379.87L2194.88,1304.01L2205.88,1304.01C2210.28,1340.29 2235.57,1361.73 2268.01,1361.73C2285.6,1361.73 2299.89,1351.83 2299.89,1335.35C2299.89,1321.06 2287.26,1310.06 2264.71,1299.61L2233.37,1284.77C2211.37,1274.32 2194.88,1256.17 2194.88,1231.99C2194.88,1205.6 2219.62,1183.06 2253.71,1183.06C2271.86,1183.06 2287.24,1189.66 2296.6,1197.36C2299.34,1195.15 2302.1,1189.11 2303.74,1182.51L2314.19,1182.51L2314.19,1247.38L2302.64,1247.38C2298.79,1221.54 2284.5,1200.1 2255.37,1200.1C2239.97,1200.1 2225.68,1208.89 2225.68,1222.65C2225.68,1236.94 2237.22,1244.63 2263.61,1256.73L2293.84,1271.57C2320.24,1284.21 2330.68,1304.57 2330.68,1321.06C2330.68,1355.68 2300.44,1379.87 2263.61,1379.87ZM2432.93,1379.87C2410.94,1379.87 2391.69,1368.33 2383.45,1361.18C2380.7,1363.93 2375.76,1372.18 2374.67,1379.87L2364.22,1379.87L2364.22,1304.01L2375.21,1304.01C2379.61,1340.29 2404.89,1361.73 2437.34,1361.73C2454.93,1361.73 2469.23,1351.83 2469.23,1335.35C2469.23,1321.06 2456.58,1310.06 2434.04,1299.61L2402.69,1284.77C2380.7,1274.32 2364.21,1256.17 2364.21,1231.99C2364.21,1205.6 2388.95,1183.06 2423.04,1183.06C2441.18,1183.06 2456.57,1189.66 2465.93,1197.36C2468.67,1195.15 2471.42,1189.11 2473.07,1182.51L2483.51,1182.51L2483.51,1247.38L2471.97,1247.38C2468.12,1221.54 2453.83,1200.1 2424.69,1200.1C2409.3,1200.1 2395,1208.89 2395,1222.65C2395,1236.94 2406.55,1244.63 2432.94,1256.73L2463.17,1271.57C2489.56,1284.21 2500,1304.57 2500,1321.06C2500,1355.68 2469.76,1379.87 2432.93,1379.87Z" style="fill:white;fill-rule:nonzero;stroke:black;stroke-width:5.5px;"/>
            <g>
                <path d="M40.315,1249.99C40.315,1346.3 96.282,1429.52 177.44,1468.97L61.38,1150.97C47.467,1182.13 40.288,1215.87 40.315,1249.99ZM447.87,1237.71C447.87,1207.64 437.069,1186.82 427.806,1170.61C415.472,1150.57 403.917,1133.6 403.917,1113.56C403.917,1091.19 420.875,1070.37 444.769,1070.37C445.847,1070.37 446.87,1070.51 447.926,1070.57C404.634,1030.91 346.963,1006.69 283.62,1006.69C198.62,1006.69 123.838,1050.31 80.333,1116.36C86.042,1116.53 91.426,1116.65 95.991,1116.65C121.44,1116.65 160.833,1113.56 160.833,1113.56C173.949,1112.79 175.495,1132.05 162.398,1133.6C162.398,1133.6 149.213,1135.15 134.546,1135.92L223.148,1399.46L276.398,1239.77L238.486,1135.92C225.384,1135.15 212.972,1133.6 212.972,1133.6C199.861,1132.83 201.398,1112.78 214.509,1113.56C214.509,1113.56 254.69,1116.64 278.597,1116.64C304.042,1116.64 343.44,1113.56 343.44,1113.56C356.565,1112.78 358.106,1132.05 345,1133.6C345,1133.6 331.792,1135.15 317.153,1135.92L405.079,1397.46L429.343,1316.37C439.866,1282.71 447.87,1258.54 447.87,1237.71Z" style="fill:rgb(0,116,154);fill-rule:nonzero;"/>
                <path d="M287.889,1271.27L214.889,1483.39C237.207,1489.97 260.354,1493.31 283.62,1493.31C311.954,1493.31 339.125,1488.41 364.417,1479.52C363.738,1478.46 363.159,1477.34 362.685,1476.17L287.889,1271.27ZM497.111,1133.26C498.157,1141.01 498.75,1149.33 498.75,1158.28C498.75,1182.97 494.139,1210.72 480.25,1245.43L405.931,1460.3C478.264,1418.12 526.917,1339.76 526.917,1249.99C526.982,1209.19 516.727,1169.03 497.111,1133.26Z" style="fill:rgb(0,116,154);fill-rule:nonzero;"/>
                <path d="M283.62,966.38C127.236,966.38 0,1093.61 0,1249.99C0,1406.39 127.231,1533.62 283.62,1533.62C440,1533.62 567.255,1406.4 567.255,1249.99C567.25,1093.61 440,966.38 283.62,966.38ZM283.62,1520.62C134.407,1520.62 13.005,1399.21 13.005,1249.99C13.005,1100.78 134.403,979.389 283.62,979.389C432.829,979.389 554.222,1100.78 554.222,1249.99C554.222,1399.21 432.824,1520.62 283.62,1520.62Z" style="fill:rgb(0,116,154);fill-rule:nonzero;"/>
            </g>
        </g>
    </g>
</svg>
