<?xml version="1.0" encoding="UTF-8" standalone="no"?>
<!DOCTYPE svg PUBLIC "-//W3C//DTD SVG 1.1//EN" "http://www.w3.org/Graphics/SVG/1.1/DTD/svg11.dtd">
<svg width="100%" height="100%" viewBox="0 0 300 162" version="1.1" xmlns="http://www.w3.org/2000/svg" xmlns:xlink="http://www.w3.org/1999/xlink" xml:space="preserve" xmlns:serif="http://www.serif.com/" style="fill-rule:evenodd;clip-rule:evenodd;stroke-linejoin:round;stroke-miterlimit:2;">
    <g transform="matrix(1,0,0,1,94.293,55.7344)">
        <path d="M0.002,1.352L0.005,1.352L2.122,1.344C4.377,1.34 6.631,1.353 8.885,1.368L8.89,1.368L11.221,1.375C21.737,1.415 32.045,1.777 42.458,3.33C42.465,3.331 42.472,3.332 42.479,3.333C44.811,3.644 47.14,3.853 49.484,4.05L51.971,4.273L51.973,4.273C53.538,4.412 55.105,4.539 56.673,4.652C61.097,5.077 63.572,5.979 66.667,9.136C68.599,11.811 68.616,11.839 70.363,14.718L70.367,14.723L72.195,17.701L73.546,19.96C73.818,20.413 74.328,20.667 74.853,20.61C80.101,20.041 84.957,19.163 90.059,17.759C98.257,15.587 106.56,14.23 114.932,12.909L117.935,12.434L120.623,12.02L120.63,12.018C123.143,11.618 123.184,11.614 126.024,10.589C147.224,7.938 147.371,7.807 153.939,11.387C163.815,19.737 165.811,31.964 166.938,44.167C167.174,46.942 167.392,49.719 167.609,52.496C167.609,52.499 167.609,52.502 167.609,52.506C167.769,54.377 167.931,56.249 168.094,58.121C168.4,61.659 168.697,65.198 168.982,68.739C169.403,73.96 169.87,79.177 170.361,84.392C170.416,84.982 170.848,85.467 171.428,85.589L175.268,86.4C180.501,87.565 185.622,89.024 190.757,90.561C190.76,90.562 190.764,90.563 190.767,90.564L193.479,91.352L196.066,92.124L196.069,92.125L198.349,92.8C199.859,93.388 199.989,93.463 201.354,94.825C201.355,94.826 201.355,95.913 201.355,95.913L175.707,95.913C175.238,95.913 174.803,96.156 174.557,96.555C174.31,96.953 174.288,97.451 174.497,97.87L176.369,101.614C176.445,103.282 176.466,103.824 176.432,104.716C175.924,104.615 175.505,104.474 174.606,104.151C166.052,90.287 166.005,69.429 165.183,53.761C164.181,32.855 164.179,32.855 154.305,14.968C154.183,14.747 154.003,14.565 153.783,14.442C149.991,12.312 146.305,12.423 142.068,12.476L139.424,12.499C139.417,12.499 139.411,12.499 139.404,12.499C115.241,13.078 89.068,18.266 66.565,27.12C64.486,27.904 64.486,27.913 62.707,27.913C62.156,27.913 61.661,28.247 61.454,28.757C59.769,32.908 58.191,37.096 56.627,41.293C54.774,46.261 52.888,51.211 50.948,56.146L50.945,56.154C48.906,61.441 47.04,66.775 45.238,72.146L44.48,74.391L44.478,74.398C42.884,79.207 41.566,84.024 40.391,88.952C40.279,89.423 40.427,89.918 40.78,90.25C44.972,94.198 47.742,95.135 53.458,95.367L56.973,95.538C56.982,95.539 56.991,95.539 56.999,95.539L59.667,95.618C60.27,95.635 60.811,95.252 60.995,94.678L61.85,92.009C62.829,89.163 63.92,86.499 65.184,83.772L65.185,83.77L66.493,80.935L67.934,77.836L67.935,77.832C69.04,75.436 70.144,73.041 71.248,70.645C72.022,68.969 72.797,67.294 73.572,65.618L75.624,65.618C77.447,73.783 79.084,81.98 80.628,90.203L80.629,90.21L81.195,93.138L81.705,95.898L81.706,95.902L82.161,98.318C82.315,99.92 82.311,100.151 81.732,101.913C81.731,101.913 80.853,101.913 80.853,101.913L80.041,97.043C79.925,96.348 79.294,95.858 78.591,95.918L75.895,96.149C61.551,97.246 47.229,96.83 32.859,96.538L32.857,96.538C30.82,96.5 28.782,96.463 26.745,96.426C11.262,96.142 -4.218,95.787 -19.696,95.292C-34.613,94.826 -49.536,94.6 -64.458,94.351L-66.481,94.317C-74.419,94.185 -82.357,94.055 -90.296,93.929C-90.941,91.706 -90.683,90.915 -89.861,88.373L-89.86,88.368L-89.059,85.861L-88.196,83.253C-88.195,83.248 -88.193,83.244 -88.192,83.239L-87.363,80.639C-86.222,77.112 -85.051,73.93 -83.451,70.618C-83.451,70.618 -32.293,70.618 -32.293,70.618C-31.824,70.618 -31.389,70.375 -31.142,69.977C-30.896,69.578 -30.874,69.08 -31.083,68.661L-33.012,64.803C-34.095,60.117 -33.94,55.742 -33.631,50.978C-33.63,50.971 -33.63,50.964 -33.63,50.957L-33.523,48.794C-32.624,33.965 -26.446,16.252 -15.235,6.052C-10.435,2.141 -6.128,1.363 0.002,1.352ZM32.522,71.402C15.807,72.515 -0.849,73.114 -17.604,73.101L-17.607,73.101L-20.281,73.103C-29.485,73.102 -38.581,72.885 -47.759,72.138C-47.767,72.137 -47.774,72.137 -47.782,72.136C-54.242,71.72 -60.704,71.809 -67.175,71.851C-68.555,71.856 -69.936,71.86 -71.317,71.864C-74.645,71.876 -77.973,71.892 -81.301,71.913C-81.849,71.917 -82.341,72.25 -82.547,72.758C-83.389,74.841 -84.222,76.927 -85.049,79.015L-86.455,82.529L-86.456,82.533C-87.867,86.091 -87.874,86.09 -87.643,90.339C-87.607,91.008 -87.087,91.549 -86.42,91.612C-77.696,92.432 -68.997,92.887 -60.24,93.145L-58.204,93.207C-39.661,93.764 -21.111,93.949 -2.562,94.15C2.112,94.202 6.787,94.257 11.461,94.311C20.538,94.417 29.615,94.519 38.692,94.618C39.1,94.622 39.488,94.443 39.748,94.129C40.008,93.816 40.113,93.402 40.034,93.002L39.493,90.284C38.969,86.463 39.854,83.407 40.94,79.779C40.942,79.772 40.944,79.766 40.946,79.76L41.537,77.675C42.015,75.997 42.508,74.323 43.004,72.65C43.125,72.241 43.046,71.798 42.791,71.457C42.535,71.115 42.134,70.913 41.707,70.913C40.153,70.913 38.607,70.986 37.062,71.084C40.555,70.017 41.784,68.202 43.845,64.997C43.914,64.889 43.968,64.771 44.005,64.647C44.835,61.823 44.833,61.823 45.054,59.388C45.095,58.942 44.912,58.505 44.565,58.221C39.587,54.131 34.944,53.459 28.611,53.487C28.548,53.488 28.484,53.492 28.421,53.502C23.608,54.206 19.623,56.423 15.301,58.57C8.817,61.577 1.67,62.923 -5.339,61.122C-6.982,57.504 -7.405,53.058 -7.429,48.537C-7.452,44.09 -7.076,39.567 -6.967,35.618C-6.967,35.618 -6.594,35.618 -6.594,35.618L-6.568,36.29C-6.452,39.238 -6.33,42.185 -6.207,45.132L-6.088,48.234L-6.088,48.239L-5.961,51.216L-5.85,53.96C-5.849,53.965 -5.849,53.969 -5.849,53.973C-5.713,56.676 -5.719,56.677 -4.558,59.745C-4.371,60.238 -3.914,60.578 -3.387,60.615C5.988,61.268 13.892,59.83 21.967,54.84C26.122,52.432 30.357,52.177 35.038,53.121C38.923,54.252 42.5,55.588 46.079,57.464C46.695,57.786 47.454,57.59 47.837,57.009C50.931,52.31 52.753,47.589 54.433,42.24C55.995,37.418 57.008,34.282 57.906,32.117C58.703,30.192 59.368,29.112 60.337,28.273C61.205,27.52 62.291,26.95 63.823,26.128C66.224,25.146 68.603,24.297 71.09,23.563C71.451,23.456 71.752,23.203 71.919,22.866C72.086,22.528 72.105,22.136 71.971,21.783C70.368,17.583 68.488,14.081 65.792,10.458C65.537,10.115 65.135,9.913 64.707,9.913L63.682,9.913L62.99,7.838C62.823,7.338 62.381,6.98 61.857,6.921C34.655,3.893 34.655,3.893 7.327,2.727C7.314,2.726 7.302,2.726 7.289,2.726L4.486,2.686C4.481,2.686 4.475,2.686 4.469,2.686C-1.271,2.679 -6.168,3.339 -11.677,4.969C-12.251,5.139 -12.645,5.666 -12.645,6.266L-12.645,7.361C-12.645,7.361 -13.598,7.754 -13.598,7.754C-13.651,7.776 -13.703,7.801 -13.752,7.829C-17.698,10.081 -20.78,13.946 -23.222,18.451C-26.739,24.939 -28.943,32.752 -30.716,38.587C-30.721,38.603 -30.725,38.618 -30.729,38.634C-33.245,48.121 -33.61,57.321 -30.731,66.717C-30.7,66.818 -30.657,66.915 -30.603,67.006C-28.749,70.158 -27.218,70.986 -23.847,72.499C-23.716,72.558 -23.576,72.596 -23.432,72.611C-19.865,72.98 -16.337,72.852 -12.757,72.727L-9.657,72.654C-6.377,72.573 -3.097,72.47 0.183,72.368C2.352,72.313 4.521,72.26 6.691,72.208L6.692,72.208C11.822,72.079 16.95,71.908 22.078,71.712C24.469,71.627 26.859,71.571 29.251,71.522C29.258,71.522 29.265,71.522 29.273,71.521L32.522,71.402ZM74.86,73.558C74.632,73.188 74.241,72.949 73.807,72.917C73.373,72.885 72.95,73.063 72.671,73.396C69.732,76.9 68.007,80.745 66.273,84.929L65.463,86.834C64.006,89.802 64.004,89.814 63.38,93.006C63.302,93.403 63.406,93.813 63.663,94.125C63.92,94.437 64.303,94.618 64.707,94.618L77.707,94.618C78.093,94.618 78.461,94.453 78.717,94.165C78.974,93.876 79.095,93.492 79.05,93.109C78.768,90.689 78.474,88.272 78.175,85.855L77.937,83.794C77.937,83.789 77.936,83.785 77.936,83.78C77.457,79.987 76.873,76.841 74.86,73.558ZM172.973,87.94C172.519,87.848 172.049,87.996 171.729,88.332C171.408,88.667 171.282,89.144 171.395,89.594L172.395,93.594C172.545,94.196 173.086,94.618 173.707,94.618L185.707,94.618C186.334,94.618 186.879,94.187 187.023,93.576C187.167,92.966 186.873,92.336 186.312,92.056C182.993,90.397 180.755,89.542 177.234,88.817L174.813,88.309C174.809,88.308 174.805,88.308 174.801,88.307L172.973,87.94Z" style="fill:white;fill-rule:nonzero;"/>
    </g>
    <g transform="matrix(1,0,0,1,214,13)">
        <path d="M-0.76,1.122C4.78,5.436 9.282,11.17 10.656,18.172C11.353,27.636 10.569,34.27 4.419,41.609C2.822,43.396 2.676,43.559 1.478,44.647C1.478,44.648 0,44.648 0,44.648C-0.747,44.648 -1.352,45.253 -1.352,46L-1.352,47.119C-9.833,50.78 -17.563,51.467 -26.808,49.148C-30.595,47.664 -33.19,45.362 -35.799,42.323C-35.8,42.322 -36.717,39.572 -36.717,39.572C-36.901,39.02 -37.418,38.648 -38,38.648L-39.096,38.648C-42.82,29.512 -43.928,22.509 -40.796,12.866C-39.302,9.536 -37.237,6.742 -34.5,4.353C-34.5,4.352 -33,4.352 -33,4.352C-32.253,4.352 -31.648,3.747 -31.648,3L-31.648,1.711C-22.291,-4.563 -10.473,-4.563 -0.766,1.118L-0.76,1.122ZM-30.605,2.79C-31.063,3.019 -31.352,3.488 -31.352,4L-31.352,5.025L-33.428,5.717C-33.98,5.901 -34.352,6.418 -34.352,7L-34.352,7.648L-35,7.648C-35.508,7.648 -35.973,7.932 -36.204,8.385C-36.853,9.656 -37.499,10.928 -38.144,12.201L-39.233,14.344C-39.238,14.355 -39.243,14.365 -39.248,14.376C-41.826,19.789 -42.365,25.058 -40.534,30.761C-40.521,30.801 -40.507,30.839 -40.49,30.877C-37.372,38.202 -33.705,43.174 -26.669,47.176C-26.603,47.213 -26.534,47.245 -26.462,47.271C-19.536,49.79 -13.79,50.404 -6.92,47.562C-6.895,47.552 -6.87,47.541 -6.846,47.529C0.031,44.184 5.489,39.887 8.266,32.475C8.288,32.418 8.305,32.359 8.319,32.3C9.832,25.639 9.876,18.866 7.251,12.485C7.217,12.404 7.176,12.326 7.128,12.253C5.318,9.522 3.381,7.086 0.873,4.967C0.629,4.761 0.32,4.648 0,4.648L-0.648,4.648L-0.648,4C-0.648,3.533 -0.889,3.098 -1.286,2.851C-10.838,-3.086 -20.869,-2.078 -30.605,2.79Z" style="fill:white;fill-rule:nonzero;"/>
    </g>
    <g transform="matrix(1,0,0,1,134.984,6.10156)">
        <path d="M-0.703,1.157C4.546,4.647 7.681,9.215 9.683,15.178C10.435,23.031 10.753,30.515 5.925,37.099C5.92,37.105 5.916,37.112 5.911,37.118L4.724,38.799C0.683,44.057 -3.809,46.191 -10.193,47.56C-17.95,48.424 -24.839,47.064 -31.149,42.324C-36.15,37.654 -39.303,33.109 -39.976,26.232C-40.125,19.964 -40.148,14.703 -37.194,9.251C-37.194,9.251 -35.984,9.251 -35.984,9.251C-35.419,9.251 -34.913,8.899 -34.716,8.368L-34.135,6.798C-31.042,1.668 -26.537,-0.642 -20.948,-2.284C-13.694,-3.869 -7.173,-2.423 -0.71,1.153L-0.703,1.157ZM-27.517,1.655C-28.014,1.868 -28.337,2.357 -28.337,2.898L-28.337,3.924L-29.1,4.178C-29.2,4.211 -29.296,4.256 -29.386,4.312C-33.44,6.833 -36.435,10.88 -37.901,15.442C-37.919,15.498 -37.933,15.556 -37.944,15.614C-39.21,22.582 -38.571,28.233 -35.175,34.54C-35.155,34.577 -35.133,34.613 -35.11,34.648C-33.109,37.651 -33.108,37.65 -30.949,39.846C-30.695,40.105 -30.347,40.251 -29.984,40.251L-29.337,40.251L-29.337,40.898C-29.337,41.382 -29.078,41.83 -28.659,42.071C-22.506,45.608 -16.662,47.029 -9.712,45.598C-9.674,45.59 -9.636,45.581 -9.599,45.57C-3.336,43.708 2.208,40.76 5.616,35.027C5.641,34.984 5.664,34.941 5.684,34.896C8.942,27.729 9.421,20.532 7.319,12.914C7.304,12.858 7.285,12.802 7.262,12.749L6.262,10.374C6.051,9.872 5.56,9.546 5.016,9.546L4.044,9.546L3.694,8.286C3.67,8.203 3.639,8.121 3.6,8.044C1.221,3.285 -2.567,1.475 -7.32,-0.592C-7.392,-0.623 -7.467,-0.648 -7.544,-0.667C-15.231,-2.512 -20.426,-1.384 -27.517,1.655Z" style="fill:white;fill-rule:nonzero;"/>
    </g>
</svg>
