<?xml version="1.0" encoding="UTF-8" standalone="no"?>
<!DOCTYPE svg PUBLIC "-//W3C//DTD SVG 1.1//EN" "http://www.w3.org/Graphics/SVG/1.1/DTD/svg11.dtd">
<svg width="100%" height="100%" viewBox="0 0 2194 2500" version="1.1" xmlns="http://www.w3.org/2000/svg" xmlns:xlink="http://www.w3.org/1999/xlink" xml:space="preserve" xmlns:serif="http://www.serif.com/" style="fill-rule:evenodd;clip-rule:evenodd;stroke-linejoin:round;stroke-miterlimit:2;">
    <g transform="matrix(1,0,0,1,1.03839,273.984)">
        <path d="M2194,1250.22C2194,1104.88 2011.99,967.141 1732.93,881.725C1797.33,597.301 1768.71,371.014 1642.59,298.566C1613.53,281.572 1579.54,273.522 1542.42,273.522L1542.42,373.25C1562.99,373.25 1579.54,377.275 1593.4,384.877C1654.22,419.759 1680.61,552.58 1660.03,723.413C1655.12,765.451 1647.07,809.724 1637.23,854.892C1549.57,833.426 1453.87,816.88 1353.25,806.147C1292.88,723.413 1230.27,648.282 1167.21,582.543C1313,447.039 1449.85,372.802 1542.87,372.802L1542.87,273.075C1419.88,273.075 1258.89,360.728 1096.11,512.778C933.322,361.622 772.327,274.864 649.345,274.864L649.345,374.591C741.917,374.591 879.21,448.381 1025,582.99C962.391,648.73 899.781,723.413 840.303,806.147C739.234,816.88 643.532,833.426 555.879,855.339C545.593,810.619 537.991,767.24 532.624,725.649C511.605,554.816 537.543,421.995 597.916,386.666C611.333,378.616 628.774,375.039 649.345,375.039L649.345,275.311C611.78,275.311 577.792,283.361 548.276,300.355C422.611,372.802 394.437,598.642 459.282,882.172C181.119,968.036 -0,1105.33 -0,1250.22C-0,1395.57 182.013,1533.31 461.071,1618.72C396.673,1903.15 425.294,2129.43 551.407,2201.88C580.475,2218.88 614.463,2226.93 652.029,2226.93C775.011,2226.93 936.005,2139.27 1098.79,1987.22C1261.57,2138.38 1422.57,2225.14 1545.55,2225.14C1583.12,2225.14 1617.1,2217.09 1646.62,2200.09C1772.28,2127.64 1800.46,1901.81 1735.61,1618.28C2012.88,1532.86 2194,1395.12 2194,1250.22ZM1611.74,951.936C1595.19,1009.63 1574.62,1069.11 1551.36,1128.58C1533.03,1092.81 1513.8,1057.03 1492.78,1021.25C1472.21,985.477 1450.29,950.595 1428.38,916.607C1491.88,925.998 1553.15,937.626 1611.74,951.936ZM1406.91,1428.21C1372.03,1488.59 1336.26,1545.83 1299.14,1599.05C1232.5,1604.86 1164.98,1607.99 1097,1607.99C1029.47,1607.99 961.943,1604.86 895.757,1599.49C858.638,1546.28 822.415,1489.48 787.532,1429.55C753.545,1370.97 722.687,1311.49 694.513,1251.57C722.24,1191.64 753.545,1131.71 787.085,1073.13C821.967,1012.76 857.744,955.514 894.862,902.296C961.496,896.482 1029.02,893.352 1097,893.352C1164.53,893.352 1232.06,896.482 1298.24,901.849C1335.36,955.067 1371.59,1011.86 1406.47,1071.79C1440.45,1130.37 1471.31,1189.85 1499.49,1249.78C1471.31,1309.7 1440.45,1369.63 1406.91,1428.21ZM1551.36,1370.08C1575.51,1430 1596.08,1489.93 1613.08,1548.06C1554.49,1562.37 1492.78,1574.45 1428.83,1583.84C1450.74,1549.4 1472.65,1514.08 1493.23,1477.85C1513.8,1442.08 1533.03,1405.85 1551.36,1370.08ZM1097.89,1847.25C1056.3,1804.31 1014.71,1756.46 973.571,1704.14C1013.82,1705.93 1054.96,1707.27 1096.55,1707.27C1138.59,1707.27 1180.18,1706.38 1220.88,1704.14C1180.63,1756.46 1139.04,1804.31 1097.89,1847.25ZM765.172,1583.84C701.669,1574.45 640.401,1562.82 581.817,1548.51C598.364,1490.82 618.935,1431.34 642.19,1371.86C660.525,1407.64 679.755,1443.42 700.774,1479.19C721.793,1514.97 743.259,1549.85 765.172,1583.84ZM1095.66,653.202C1137.25,696.134 1178.84,743.985 1219.98,796.308C1179.73,794.519 1138.59,793.178 1097,793.178C1054.96,793.178 1013.37,794.072 972.676,796.308C1012.93,743.985 1054.52,696.134 1095.66,653.202ZM764.725,916.607C742.812,951.042 720.898,986.371 700.327,1022.6C679.755,1058.37 660.525,1094.15 642.19,1129.92C618.041,1070 597.469,1010.07 580.475,951.936C639.06,938.073 700.774,925.998 764.725,916.607ZM360.002,1476.51C201.691,1408.98 99.28,1320.43 99.28,1250.22C99.28,1180.01 201.691,1091.02 360.002,1023.94C398.462,1007.39 440.499,992.632 483.879,978.769C509.369,1066.42 542.91,1157.65 584.5,1251.12C543.357,1344.14 510.264,1434.92 485.22,1522.13C440.947,1508.26 398.909,1493.06 360.002,1476.51ZM600.6,2115.57C539.779,2080.69 513.394,1947.87 533.966,1777.03C538.885,1735 546.935,1690.72 556.773,1645.56C644.426,1667.02 740.128,1683.57 840.75,1694.3C901.123,1777.03 963.732,1852.16 1026.79,1917.9C880.999,2053.41 744.153,2127.64 651.134,2127.64C631.01,2127.2 614.016,2123.17 600.6,2115.57ZM1661.38,1774.8C1682.39,1945.63 1656.46,2078.45 1596.08,2113.78C1582.67,2121.83 1565.23,2125.41 1544.65,2125.41C1452.08,2125.41 1314.79,2051.62 1169,1917.01C1231.61,1851.27 1294.22,1776.59 1353.7,1693.85C1454.77,1683.12 1550.47,1666.57 1638.12,1644.66C1648.41,1689.83 1656.46,1733.21 1661.38,1774.8ZM1833.55,1476.51C1795.09,1493.06 1753.05,1507.82 1709.67,1521.68C1684.18,1434.03 1650.64,1342.8 1609.05,1249.33C1650.2,1156.31 1683.29,1065.53 1708.33,978.321C1752.61,992.185 1794.64,1007.39 1834,1023.94C1992.31,1091.46 2094.72,1180.01 2094.72,1250.22C2094.27,1320.43 1991.86,1409.43 1833.55,1476.51Z" style="fill:rgb(97,218,251);fill-rule:nonzero;stroke:white;stroke-width:1px;"/>
        <g transform="matrix(1.20361,0,0,1.20361,-639.307,-110.012)">
            <path d="M547.594,244.703L547.594,-25.877L662.581,-25.877C691.498,-25.877 712.508,-23.446 725.612,-18.586C738.717,-13.726 749.206,-5.082 757.081,7.346C764.956,19.774 768.894,33.986 768.894,49.982C768.894,70.284 762.926,87.05 750.991,100.277C739.055,113.505 721.213,121.841 697.465,125.286C709.278,132.177 719.029,139.744 726.72,147.989C734.41,156.233 744.777,170.875 757.82,191.916L790.858,244.703L725.52,244.703L686.022,185.825C671.995,164.784 662.397,151.526 657.229,146.051C652.061,140.575 646.585,136.822 640.802,134.792C635.019,132.762 625.852,131.746 613.301,131.746L602.227,131.746L602.227,244.703L547.594,244.703ZM602.227,88.557L642.648,88.557C668.857,88.557 685.222,87.45 691.744,85.235C698.265,83.02 703.372,79.205 707.063,73.791C710.754,68.377 712.6,61.61 712.6,53.489C712.6,44.383 710.17,37.031 705.31,31.432C700.449,25.834 693.589,22.296 684.73,20.82C680.3,20.204 667.011,19.897 644.863,19.897L602.227,19.897L602.227,88.557Z" style="fill:white;fill-rule:nonzero;stroke:black;stroke-width:4.99px;"/>
            <path d="M820.389,244.703L820.389,-25.877L1021.02,-25.877L1021.02,19.897L875.022,19.897L875.022,79.882L1010.87,79.882L1010.87,125.471L875.022,125.471L875.022,199.115L1026.18,199.115L1026.18,244.703L820.389,244.703Z" style="fill:white;fill-rule:nonzero;stroke:black;stroke-width:4.99px;"/>
            <path d="M1316.51,244.703L1257.08,244.703L1233.46,183.242L1125.3,183.242L1102.97,244.703L1045.01,244.703L1150.4,-25.877L1208.17,-25.877L1316.51,244.703ZM1215.92,137.653L1178.64,37.246L1142.1,137.653L1215.92,137.653Z" style="fill:white;fill-rule:nonzero;stroke:black;stroke-width:4.99px;"/>
            <path d="M1518.62,145.22L1571.59,162.016C1563.47,191.547 1549.97,213.48 1531.08,227.815C1512.19,242.15 1488.23,249.318 1459.19,249.318C1423.26,249.318 1393.73,237.044 1370.59,212.496C1347.46,187.948 1335.89,154.387 1335.89,111.813C1335.89,66.778 1347.52,31.802 1370.78,6.885C1394.03,-18.032 1424.61,-30.491 1462.51,-30.491C1495.61,-30.491 1522.5,-20.709 1543.17,-1.144C1555.47,10.422 1564.7,27.033 1570.85,48.69L1516.77,61.61C1513.57,47.582 1506.9,36.508 1496.75,28.387C1486.6,20.266 1474.26,16.205 1459.74,16.205C1439.68,16.205 1423.41,23.404 1410.92,37.8C1398.43,52.197 1392.19,75.514 1392.19,107.752C1392.19,141.959 1398.34,166.323 1410.64,180.842C1422.95,195.362 1438.95,202.621 1458.63,202.621C1473.15,202.621 1485.64,198.007 1496.1,188.779C1506.56,179.55 1514.07,165.031 1518.62,145.22Z" style="fill:white;fill-rule:nonzero;stroke:black;stroke-width:4.99px;"/>
            <path d="M1679.38,244.703L1679.38,19.897L1599.09,19.897L1599.09,-25.877L1814.12,-25.877L1814.12,19.897L1734.01,19.897L1734.01,244.703L1679.38,244.703Z" style="fill:white;fill-rule:nonzero;stroke:black;stroke-width:4.99px;"/>
            <rect x="1807.1" y="192.839" width="51.864" height="51.864" style="fill:white;fill-rule:nonzero;stroke:black;stroke-width:4.99px;"/>
            <path d="M2010.13,-25.877L2064.58,-25.877L2064.58,145.405C2064.58,167.799 2062.61,185.026 2058.67,197.084C2053.38,212.834 2043.78,225.477 2029.88,235.013C2015.97,244.55 1997.64,249.318 1974.88,249.318C1948.17,249.318 1927.63,241.843 1913.23,226.892C1898.83,211.942 1891.57,190.009 1891.45,161.093L1942.95,155.187C1943.56,170.691 1945.84,181.642 1949.78,188.04C1955.68,197.761 1964.66,202.621 1976.72,202.621C1988.9,202.621 1997.52,199.145 2002.56,192.193C2007.61,185.241 2010.13,170.814 2010.13,148.911L2010.13,-25.877Z" style="fill:white;fill-rule:nonzero;stroke:black;stroke-width:4.99px;"/>
            <path d="M2108.87,156.663L2162.03,151.495C2165.23,169.337 2171.72,182.442 2181.5,190.809C2191.28,199.176 2204.48,203.36 2221.09,203.36C2238.69,203.36 2251.95,199.637 2260.87,192.193C2269.79,184.749 2274.25,176.043 2274.25,166.076C2274.25,159.678 2272.37,154.233 2268.62,149.742C2264.87,145.251 2258.32,141.344 2248.96,138.022C2242.57,135.807 2227.98,131.869 2205.22,126.209C2175.93,118.95 2155.39,110.029 2143.57,99.447C2126.96,84.558 2118.66,66.408 2118.66,44.998C2118.66,31.217 2122.56,18.328 2130.38,6.331C2138.19,-5.666 2149.45,-14.802 2164.15,-21.078C2178.86,-27.353 2196.61,-30.491 2217.4,-30.491C2251.36,-30.491 2276.93,-23.047 2294.09,-8.158C2311.26,6.731 2320.27,26.603 2321.13,51.458L2266.5,53.858C2264.16,39.953 2259.14,29.956 2251.45,23.865C2243.76,17.774 2232.23,14.729 2216.85,14.729C2200.97,14.729 2188.55,17.99 2179.57,24.511C2173.78,28.695 2170.89,34.293 2170.89,41.307C2170.89,47.705 2173.6,53.181 2179.01,57.734C2185.9,63.517 2202.64,69.546 2229.21,75.822C2255.79,82.097 2275.45,88.588 2288.18,95.294C2300.92,102 2310.89,111.167 2318.09,122.795C2325.28,134.423 2328.88,148.788 2328.88,165.892C2328.88,181.396 2324.58,195.915 2315.96,209.45C2307.35,222.986 2295.17,233.045 2279.42,239.628C2263.67,246.211 2244.04,249.502 2220.54,249.502C2186.33,249.502 2160.06,241.596 2141.73,225.785C2123.39,209.973 2112.44,186.933 2108.87,156.663Z" style="fill:white;fill-rule:nonzero;stroke:black;stroke-width:4.99px;"/>
        </g>
        <circle cx="1096.55" cy="1250.22" r="204.374" style="fill:rgb(97,218,251);"/>
    </g>
</svg>
