<?xml version="1.0" encoding="UTF-8" standalone="no"?>
<!DOCTYPE svg PUBLIC "-//W3C//DTD SVG 1.1//EN" "http://www.w3.org/Graphics/SVG/1.1/DTD/svg11.dtd">
<svg width="100%" height="100%" viewBox="0 0 300 202" version="1.1" xmlns="http://www.w3.org/2000/svg" xmlns:xlink="http://www.w3.org/1999/xlink" xml:space="preserve" xmlns:serif="http://www.serif.com/" style="fill-rule:evenodd;clip-rule:evenodd;stroke-linejoin:round;stroke-miterlimit:2;">
    <g transform="matrix(1,0,0,1,38,0)">
        <path d="M1.547,1.426C3.419,1.274 4.335,1.216 5.153,1.479C5.763,1.675 6.304,2.053 7.187,2.639L9.098,4.535C9.105,4.543 9.113,4.55 9.121,4.557C12.549,7.823 16.031,10.907 19.712,13.888L22.492,16.152L22.496,16.156C24.014,17.383 25.536,18.606 27.066,19.818C28.222,20.745 29.344,21.713 30.453,22.695C30.453,22.695 30.453,24 30.453,24C30.453,24.854 31.146,25.547 32,25.547L32.453,25.547L32.453,26C32.453,26.608 32.81,27.16 33.365,27.41L35.007,28.15C41.395,31.588 46.861,36.922 51.893,42.08C51.93,42.118 51.969,42.154 52.01,42.188L54.562,44.315L57.38,46.684C57.385,46.688 57.39,46.693 57.395,46.697L59.995,48.825C60.703,49.662 61.105,50.07 61.268,50.556C61.423,51.014 61.341,51.515 61.263,52.458C61.263,52.455 60.543,54.482 60.543,54.482C60.301,55.161 60.56,55.916 61.168,56.304C67.066,60.069 72.866,63.227 79.426,65.687C81.382,66.42 81.382,66.42 83.308,67.383C83.486,67.472 83.679,67.526 83.878,67.542C90.65,68.079 95.434,67.081 101.699,64.508C104.456,63.482 107.22,62.761 110.087,62.076C110.092,62.074 110.098,62.073 110.104,62.071C112.663,61.428 115.184,60.692 117.713,59.941L120.516,59.128C122.419,58.574 124.319,58.009 126.216,57.431C135.357,54.823 141.724,55.893 150.342,59.49C150.353,59.495 150.364,59.499 150.376,59.504C159.664,63.124 168.257,63.165 178.097,62.544C178.577,62.513 179.014,62.262 179.283,61.864C179.551,61.466 179.619,60.966 179.467,60.511L178.467,57.511C178.257,56.879 177.666,56.453 177,56.453L175.98,56.453C174.615,53.565 174.533,53.29 174.706,51.267C175.438,49.647 176.238,48.655 177.552,47.547C177.553,47.547 179,47.547 179,47.547C179.854,47.547 180.547,46.854 180.547,46L180.547,44.59C182.696,42.23 184.741,40.808 187.672,39.393C187.98,39.244 188.23,38.998 188.383,38.692L189.097,37.265L191.489,36.467C191.768,36.374 192.014,36.204 192.2,35.976C193.362,34.549 194.521,33.119 195.664,31.676C197.824,29.301 200.374,27.574 202.977,25.701C202.986,25.695 202.994,25.689 203.003,25.682C206.277,23.225 208.997,20.273 211.777,17.287C212.171,16.925 212.347,16.698 212.608,16.604C212.908,16.497 213.274,16.547 214,16.547C214.666,16.547 215.257,16.121 215.467,15.489L216.115,13.547C216.115,13.547 217,13.547 217,13.547C217.629,13.547 218.195,13.166 218.432,12.584L219.082,10.99C221.138,7.392 223.528,4.788 227.489,3.467C227.878,3.338 228.2,3.059 228.383,2.692L228.956,1.547C228.956,1.547 232.119,1.547 232.119,1.547C231.282,4.432 229.303,6.408 227.106,8.697C225.565,9.339 224.015,9.962 222.453,10.553C222.151,10.668 221.892,10.874 221.713,11.142C220.533,12.913 220.304,13.262 219.888,14.453C219.888,14.453 219,14.453 219,14.453C218.375,14.453 217.812,14.829 217.572,15.406L216.882,17.064C215.455,19.558 213.797,21.002 211.613,22.893L211.605,22.899C207.565,26.441 203.58,30.028 199.637,33.677C195.698,37.322 193.336,39.51 191.743,40.822C189.823,42.402 189.318,42.453 188,42.453C187.364,42.453 186.793,42.843 186.56,43.434L185.918,45.07C184.399,47.625 182.473,48.994 180.082,50.755C179.516,51.173 179.302,51.921 179.564,52.574L183.564,62.574C183.799,63.162 184.368,63.547 185,63.547L186.21,63.547C187.63,65.525 188.953,67.502 190.253,69.573C190.257,69.579 190.261,69.586 190.265,69.592L191.51,71.508C194.391,76.036 194.426,76.021 194.921,78.461C194.931,78.509 194.943,78.557 194.958,78.604L195.52,80.451C195.666,80.93 196.036,81.309 196.511,81.467L199.086,82.326C200.366,83.891 200.459,84.033 201.894,86.223C201.897,86.227 201.899,86.231 201.902,86.235L203.467,88.574C204.469,90.422 204.453,90.454 204.453,93C204.453,93.854 205.146,94.547 206,94.547L207.243,94.547C208.132,95.697 208.3,95.961 209.57,97.956C209.572,97.959 209.574,97.961 209.576,97.964L211.19,100.464L212.695,102.83C212.698,102.835 212.702,102.841 212.705,102.846C215.455,107.057 218.352,111.098 221.397,115.098C222.553,116.648 223.64,118.249 224.713,119.858C225.153,120.518 226.022,120.738 226.723,120.367L228.308,119.529C233.335,116.872 238.369,114.227 243.406,111.588L243.409,111.587C245.283,110.599 247.147,109.595 249.009,108.586C252.701,106.623 255.44,105.204 259.453,105.409C259.453,105.409 259.453,108.068 259.453,108.068C254.956,110.396 250.383,112.006 245.538,113.524C244.892,113.726 244.453,114.324 244.453,115L244.453,116.008L242.721,116.802L239.229,118.407L235.784,119.989C235.781,119.99 235.777,119.992 235.774,119.994C233.512,121.052 231.271,122.155 229.054,123.306C226.963,124.301 225.535,124.606 223.547,124.547C223.547,124.547 223.547,124 223.547,124C223.547,123.146 222.854,122.453 222,122.453L215,122.453C214.334,122.453 213.743,122.879 213.533,123.511L212.705,125.993C210.704,127.274 210.517,127.37 207.727,128.814L207.72,128.817L204.662,130.419L202.298,131.622C201.573,131.991 201.258,132.859 201.577,133.607L202.541,135.865C203.885,139.438 204.222,142.631 202.865,146.261C201.037,149.751 199.241,151.956 195.654,153.47C192.706,153.637 192.635,153.633 190.108,153.457C189.657,153.426 189.216,153.592 188.899,153.914C188.582,154.235 188.421,154.679 188.459,155.128L188.597,156.788C188.85,162.184 188.346,166.568 184.926,170.867C181.323,173.457 178.495,174.453 174,174.453C173.519,174.453 173.065,174.677 172.773,175.059C172.48,175.44 172.381,175.936 172.506,176.401L173.158,178.832C173.485,182.678 172.612,184.696 170.769,188.03C166.703,191.757 164.001,192.769 158.568,192.754C154.782,192.272 152.064,190.575 148.778,188.663C148.404,188.446 147.957,188.395 147.544,188.522C147.131,188.649 146.79,188.944 146.604,189.334L145.303,192.06C142.267,197.907 142.261,198.065 139.224,199.805C133.541,201.293 129.9,200.998 124.785,198.167C123.694,197.503 122.615,196.838 121.547,196.156C121.547,196.156 121.547,195 121.547,195C121.547,194.254 121.015,193.615 120.282,193.479L118.676,193.182C116.351,192.481 114.51,191.496 112.547,190.183C112.547,190.183 112.547,189 112.547,189C112.547,188.582 112.377,188.181 112.077,187.89C111.777,187.599 111.371,187.441 110.953,187.454C108.858,187.518 108.854,187.504 106.382,188.582C106.153,188.682 105.951,188.836 105.795,189.031C104.603,190.512 103.413,191.994 102.236,193.487C100.057,195.788 97.748,196.578 94.768,197.456C89.688,197.499 87.169,195.723 83.562,192.366C82.398,191.209 81.246,190.058 80.094,188.906C79.49,188.302 78.51,188.302 77.906,188.906L77.285,189.527C73.415,189.984 69.381,190.362 65.801,188.704C63.255,186.646 62.133,184.899 61.519,181.708C61.37,180.934 60.663,180.395 59.877,180.458L57.707,180.632C49.712,181.005 49.551,181.133 46.579,178.937C43.792,175.482 42.375,172.29 41.562,167.94C41.829,165.315 41.837,165.267 42.458,163.517C42.596,163.129 42.573,162.701 42.394,162.33C42.215,161.958 41.896,161.673 41.506,161.538L38.316,160.434C34.748,158.86 33.162,157.093 31.491,153.537C30.514,147.679 31.922,144.793 35.278,139.871C35.49,139.56 35.582,139.182 35.535,138.808C34.983,134.391 32.691,132.424 29.432,129.69C29.415,129.676 29.398,129.662 29.381,129.649L27.555,128.245C26.282,127.076 26.305,127.025 25.467,124.511C25.408,124.334 25.318,124.169 25.2,124.024C23.285,121.669 23.285,121.669 20.973,119.798C20.698,119.575 20.354,119.453 20,119.453L17,119.453C16.334,119.453 15.743,119.879 15.533,120.511L14.885,122.453L14,122.453C13.146,122.453 12.453,123.146 12.453,124L12.453,124.525C9.122,124.528 6.951,123.371 3.733,121.638C3.704,121.622 3.674,121.607 3.643,121.593C2.017,120.85 0.385,120.118 -1.252,119.397L-3.619,118.354L-3.622,118.353L-4.453,117.989L-4.453,117C-4.453,116.22 -5.034,115.562 -5.808,115.465L-7.714,115.227C-14.586,113.486 -20.57,109.31 -26.476,105.511C-27.867,104.619 -29.26,103.728 -30.655,102.842L-32.481,101.667C-32.489,101.662 -32.498,101.656 -32.506,101.651C-34.214,100.599 -34.446,100.449 -36.453,99.845C-36.453,99.845 -36.453,96.235 -36.453,96.235C-28.417,99.382 -21.377,103.552 -14.185,108.465C-14.182,108.467 -14.179,108.469 -14.176,108.471C-11.107,110.536 -8.141,112.223 -4.68,113.581C-1.643,114.815 1.313,116.212 4.287,117.591L7.751,119.196L10.348,120.403C11.072,120.739 11.934,120.469 12.336,119.779L13.64,117.545C15.065,115.223 16.557,113.098 18.223,110.947C18.226,110.943 18.229,110.939 18.232,110.935C20.482,107.972 22.48,105.006 24.337,101.777C25.178,100.341 26.029,98.911 26.887,97.486C26.889,97.483 26.891,97.48 26.893,97.477L28.103,95.436L28.772,94.547L30,94.547C30.745,94.547 31.385,94.015 31.521,93.283L31.822,91.662C32.585,89.139 33.755,87.307 35.223,85.109C35.226,85.106 35.228,85.102 35.231,85.099L36.779,82.74L37.74,81.547L39,81.547C39.755,81.547 40.399,81.002 40.525,80.258L40.793,78.674C41.638,76.001 43.021,74.184 44.685,71.915L44.687,71.912C46.686,69.174 48.491,66.55 49.976,63.546C49.975,63.547 51,63.547 51,63.547C51.632,63.547 52.201,63.162 52.436,62.574L56.436,52.574C56.688,51.945 56.501,51.226 55.974,50.799L54.45,49.562L52.487,47.934L52.482,47.93L50.567,46.357L49.547,45.352L49.547,44C49.547,43.368 49.162,42.799 48.574,42.564L44.547,40.953C44.547,40.953 44.547,40 44.547,40C44.547,39.373 44.169,38.809 43.589,38.57L42.037,37.93C39.079,36.254 36.769,34.013 34.313,31.689C34.31,31.686 34.307,31.683 34.304,31.68C33.225,30.676 32.146,29.672 31.066,28.669L29.49,27.199L29.487,27.196C23.238,21.402 16.659,15.965 10.149,10.469L8.588,9.138C8.583,9.134 8.578,9.13 8.573,9.125C7.471,8.211 6.347,7.324 5.204,6.462C3.699,5.307 3.593,5.223 1.547,3.325C1.547,3.325 1.547,1.426 1.547,1.426ZM124.147,88.016C124.131,88.015 121.755,87.917 121.755,87.917C121.738,87.917 121.722,87.916 121.705,87.916C116.917,87.873 114.981,87.993 111.203,91.176C111.133,91.235 111.069,91.3 111.011,91.37L108.952,93.841C106.951,95.192 106.892,95.227 104.936,96.336C102.788,97.506 102.786,97.509 101.087,98.751C100.689,99.043 100.453,99.507 100.453,100L100.453,100.654L99.099,100.843C99.094,100.844 99.088,100.845 99.083,100.845C95.648,101.36 95.624,101.37 93.047,102.585C87.759,104.541 81.892,104.406 76.622,102.461C74.567,101.429 72.584,100.358 70.628,99.182C71.151,94.592 72.985,92.596 76.156,89.028C76.295,88.871 76.401,88.688 76.467,88.489L77.357,85.82C78.244,84.9 79.151,84 80.072,83.115C80.101,83.087 80.128,83.059 80.155,83.029C82.486,80.412 82.779,80.077 83.28,77.547C83.28,77.547 84,77.547 84,77.547C84.71,77.547 85.328,77.064 85.501,76.375L86.501,72.375C86.703,71.566 86.227,70.742 85.425,70.513L81.954,69.521C76.422,67.706 71.359,65.029 66.219,62.325C61.938,60.064 61.937,60.065 57.194,59.465C56.65,59.397 56.111,59.621 55.776,60.054C53.433,63.087 51.563,65.84 50.724,69.453C50.724,69.453 50,69.453 50,69.453C49.538,69.453 49.101,69.66 48.807,70.016C47.392,71.731 47.388,71.733 46.003,73.989L44.429,76.437L44.425,76.445L42.7,79.162L40.786,82.085C37.371,86.596 37.124,86.935 35.832,91.453C35.832,91.453 35,91.453 35,91.453C34.506,91.453 34.041,91.69 33.75,92.089C32.113,94.336 30.61,96.568 29.134,98.917C29.134,98.917 27.892,100.829 27.892,100.829C27.89,100.833 27.887,100.837 27.885,100.841C26.047,103.728 24.628,106.281 23.779,109.453C23.779,109.453 23,109.453 23,109.453C22.29,109.453 21.672,109.936 21.499,110.625L20.499,114.625C20.303,115.409 20.744,116.212 21.511,116.467L23.706,117.199C23.971,118.257 24.235,119.316 24.499,120.374C24.564,120.635 24.696,120.874 24.882,121.068C26.548,122.812 26.552,122.817 28.569,124.298C30.901,126.1 31.564,126.585 32.533,129.489C32.636,129.799 32.835,130.069 33.101,130.259C35.085,131.676 37.113,133.036 39.188,134.316C39.846,134.722 40.702,134.58 41.194,133.984L42.543,132.347C45.169,129.239 46.874,127.217 48.202,125.879C49.323,124.75 50.102,124.166 51.037,123.848C51.9,123.554 52.87,123.459 54.243,123.306C58.013,123.188 61.518,123.152 64.799,125.078C65.749,127.08 65.794,127.218 66.529,129.478C66.604,129.71 66.734,129.921 66.906,130.094L68.906,132.094C69.349,132.536 70.014,132.668 70.592,132.429C71.17,132.19 71.547,131.626 71.547,131L71.547,130.547L82.453,130.547L82.453,131C82.453,131.517 82.712,132 83.142,132.287L85.824,134.075C87.895,137.996 87.603,141.556 87.454,145.948C87.426,146.783 88.066,147.49 88.9,147.544L92.734,147.791C94.568,148.008 94.781,148.034 96.077,148.361C97.061,149.719 97.107,149.854 97.502,151.386C97.679,152.07 98.295,152.547 99,152.547L99.439,152.547L99.426,153.895C99.238,161.163 99.243,161.166 102.15,167.468C102.287,167.765 102.514,168.01 102.799,168.17C105.043,169.427 107.134,170.251 109.576,170.481C109.704,171.969 109.832,173.456 109.959,174.944L110.239,178.206C110.453,181.059 110.453,181.061 110.453,184C110.453,184.461 110.659,184.898 111.014,185.192C114.556,188.12 114.885,188.389 118.453,189.229C118.453,189.229 118.453,190 118.453,190C118.453,190.467 118.664,190.909 119.027,191.202C123.497,194.82 128.535,198.163 134.471,197.794C134.572,197.787 134.672,197.771 134.77,197.745C139.016,196.623 139.015,196.621 141.807,193.31C141.879,193.225 141.941,193.133 141.993,193.035C142.97,191.184 143.407,190.238 143.521,189.329C143.639,188.39 143.434,187.457 142.895,185.613C142.873,185.539 142.846,185.467 142.814,185.397C140.99,181.458 139.258,180.061 135.681,177.657L132.709,175.626C132.705,175.623 132.701,175.62 132.698,175.618L129.889,173.734C128.555,172.756 127.224,171.774 125.897,170.786C124.029,169.229 123.222,168.687 122.324,168.484C122.186,168.453 122.044,168.43 121.895,168.414C121.895,168.414 122.207,166.85 122.207,166.85C124.645,167.535 126.297,168.797 128.456,170.57C128.46,170.574 128.465,170.577 128.469,170.581C131.603,173.097 134.694,175.252 138.153,177.296C139.459,178.26 140.764,179.241 142.063,180.231C144.989,182.458 147.945,184.42 151.12,186.277C151.122,186.279 153.025,187.825 153.025,187.825C153.057,187.851 153.09,187.876 153.124,187.9C155.872,189.789 157.584,190.386 160.926,190.545C161.13,190.555 161.333,190.524 161.524,190.455C165.394,189.062 167.53,187.797 170.136,184.603C170.215,184.507 170.281,184.401 170.334,184.289C171.709,181.397 171.702,181.395 171.608,178.451C171.602,178.26 171.561,178.071 171.486,177.895C169.786,173.894 167.429,172.263 163.899,169.741C163.637,169.554 163.322,169.453 163,169.453L162.547,169.453L162.547,169C162.547,168.476 162.281,167.987 161.842,167.702C160.197,166.636 158.508,165.639 156.801,164.676C154.918,163.451 153.041,162.212 151.171,160.964L148.005,158.85C144.343,156.363 140.743,153.799 137.164,151.195C137.139,151.177 137.114,151.16 137.089,151.143C134.955,149.775 132.857,148.807 130.547,147.925C130.547,147.925 130.547,145.274 130.547,145.274C133.613,146.617 136.258,148.364 139.142,150.287C139.396,150.456 139.695,150.547 140,150.547L140.453,150.547L140.453,151C140.453,151.522 140.716,152.008 141.153,152.294C142.801,153.373 144.501,154.375 146.221,155.336C148.083,156.484 149.945,157.643 151.802,158.81L151.806,158.812L154.63,160.576C156.668,161.967 158.183,163.331 159.894,165.081C159.973,165.162 160.061,165.234 160.155,165.296C161.918,166.445 163.723,167.435 165.573,168.437C167.2,169.325 167.2,169.327 169.07,170.593C169.187,170.672 169.314,170.735 169.448,170.78C173.091,171.994 176.804,171.595 180.453,170.479C180.625,170.426 180.788,170.343 180.932,170.234C183.339,168.417 184.242,167.255 185.1,164.353C185.126,164.266 185.144,164.177 185.154,164.087C185.583,160.283 185.797,157.456 184.523,153.803C184.456,153.611 184.352,153.435 184.217,153.283C181.17,149.866 177.739,146.987 173.783,144.666C173.545,144.527 173.275,144.453 173,144.453L171.547,144.453L171.547,144C171.547,143.454 171.259,142.948 170.789,142.669L165.519,139.547C164.464,138.911 163.918,138.627 163.338,138.491C163.097,138.434 162.848,138.403 162.547,138.392C162.547,138.392 162.547,138 162.547,138C162.547,137.263 162.026,136.628 161.303,136.483L157.547,135.732L157.547,135C157.547,134.454 157.259,133.948 156.789,133.669L151.519,130.547C150.464,129.911 149.918,129.627 149.338,129.491C149.097,129.434 148.848,129.403 148.547,129.392C148.547,129.392 148.547,129 148.547,129C148.547,128.502 148.307,128.035 147.903,127.744C144.9,125.585 144.466,125.275 141.825,124.764C141.825,124.764 142.223,122.772 142.223,122.772L145.453,123.31L145.453,124C145.453,124.564 145.76,125.083 146.254,125.355L149.306,127.037C151.844,128.482 154.23,130.022 156.586,131.748C158.908,133.448 161.233,134.959 163.751,136.353C166.153,137.683 168.371,139.126 170.587,140.748C172.926,142.46 175.275,143.993 177.803,145.41C181.142,147.292 181.142,147.292 184.056,149.538C184.083,149.559 184.112,149.579 184.14,149.598C185.832,150.729 186.699,151.256 187.648,151.507C188.589,151.756 189.632,151.734 191.719,151.606C191.845,151.599 191.969,151.576 192.089,151.538C196.682,150.092 198.147,148.978 200.371,144.715C200.487,144.495 200.547,144.249 200.547,144C200.547,139.718 200.281,137.257 197.421,133.992C197.379,133.944 197.334,133.899 197.287,133.857C194.882,131.714 192.41,129.902 189.744,128.096C187.321,126.449 185.166,124.978 183.094,122.906C182.804,122.616 182.41,122.453 182,122.453L180.547,122.453L180.547,122C180.547,121.517 180.321,121.062 179.937,120.769C178.006,119.299 176.007,117.917 173.978,116.585L170.701,114.408C168.878,113.091 168.104,112.634 167.228,112.466C167.015,112.425 166.794,112.402 166.547,112.393C166.547,112.393 166.547,112 166.547,112C166.547,111.497 166.302,111.025 165.891,110.736C164.137,109.5 162.325,108.347 160.488,107.239C157.313,105.317 154.7,103.526 152.097,100.909C152.011,100.824 151.917,100.748 151.814,100.685C150.165,99.665 148.502,98.669 146.827,97.692C145.131,96.534 143.444,95.361 141.768,94.175C135.31,89.611 131.969,88.073 124.147,88.016ZM67.913,137.9C67.897,137.915 67.881,137.931 67.866,137.948C65.438,140.564 63.124,143.262 60.826,145.993L59.306,147.73C56.626,150.501 56.42,150.73 55.691,153.806C55.691,153.806 53.511,154.533 53.511,154.533C53.272,154.612 53.057,154.749 52.883,154.93C50.96,156.938 50.956,156.942 49.146,159.374L47.306,161.722C47.279,161.756 47.254,161.791 47.23,161.828C45.624,164.277 44.839,165.92 44.466,168.801C44.439,169.01 44.455,169.222 44.513,169.425C45.727,173.675 46.369,174.771 50.142,177.287C50.373,177.441 50.641,177.53 50.917,177.545C54.132,177.716 54.132,177.716 57.09,177.544C57.908,177.497 58.547,176.819 58.547,176L58.547,175.077L59.225,174.825C59.313,174.793 59.397,174.752 59.478,174.704C62.95,172.64 64.812,170.162 67.237,166.928C67.438,166.66 67.547,166.335 67.547,166L67.547,165.115C67.547,165.115 69.489,164.467 69.489,164.467C69.744,164.382 69.973,164.232 70.152,164.032C71.694,162.311 73.166,160.525 74.591,158.706C77.553,154.94 80.599,151.484 84.038,148.148C84.805,147.491 85.226,147.056 85.5,146.506C85.864,145.777 85.96,144.752 85.922,142.167C85.9,140.18 85.807,139.045 85.409,138.011C85.012,136.977 84.304,136.026 82.9,134.465C82.783,134.335 82.644,134.226 82.491,134.142C79.798,132.673 77.621,132.337 75.686,132.693C72.949,133.197 70.636,135.209 67.913,137.9ZM41.105,138.262C39.844,139.962 39.828,139.981 38.295,141.461C37.237,142.352 36.781,142.871 36.553,143.452C36.443,143.733 36.381,144.045 36.365,144.453C36.365,144.453 36,144.453 36,144.453C35.425,144.453 34.897,144.772 34.63,145.282C33.602,147.244 33.588,147.241 33.455,149.923C33.442,150.185 33.496,150.446 33.611,150.681C35.609,154.756 36.996,156.802 41.184,158.663C41.419,158.768 41.677,158.812 41.933,158.792C47.11,158.386 49.535,155.687 53.075,152.112C53.078,152.109 55.931,149.442 55.931,149.442C55.935,149.439 55.938,149.436 55.941,149.433C58.463,147.033 58.572,146.931 59.383,143.827C59.383,143.828 61.55,141.823 61.55,141.823C61.555,141.819 61.559,141.815 61.563,141.811C64.522,139.013 64.514,139.007 65.604,135.454C65.642,135.33 65.664,135.201 65.67,135.071C65.759,133.154 65.737,132.2 65.399,131.318C65.072,130.465 64.421,129.652 63.028,128.094C62.978,128.039 62.925,127.987 62.868,127.939C59.916,125.469 59.906,125.487 56.975,124.806C56.731,124.749 56.476,124.753 56.233,124.816C49.391,126.608 45,132.716 41.105,138.262ZM83.056,151.775C82.676,152.068 82.453,152.52 82.453,153L82.453,153.885C82.453,153.885 80.511,154.533 80.511,154.533C80.26,154.616 80.035,154.763 79.857,154.958C78.29,156.677 76.797,158.464 75.353,160.286L73.045,163.175C73.043,163.178 73.041,163.181 73.039,163.183C71.562,165.058 70.093,166.939 68.634,168.828C67.045,170.73 67.049,170.746 65.308,171.617C64.941,171.8 64.662,172.122 64.533,172.511C63.449,175.761 63.319,177.687 64.191,181.017C64.224,181.141 64.272,181.261 64.334,181.373C66.009,184.405 67.209,185.79 70.293,187.375C70.511,187.488 70.754,187.547 71,187.547C75.205,187.547 76.616,186.513 79.826,183.731C79.841,183.718 79.856,183.705 79.871,183.691C81.673,182 82.284,181.233 82.514,180.339C82.606,179.982 82.637,179.591 82.624,179.089C82.624,179.089 84.489,178.467 84.489,178.467C84.751,178.38 84.985,178.224 85.167,178.016C86.54,176.438 86.547,176.432 87.734,174.532C89.627,171.736 91.703,169.484 94.094,167.094C94.384,166.804 94.547,166.41 94.547,166L94.547,165.115C94.547,165.115 96.489,164.467 96.489,164.467C96.972,164.307 97.344,163.919 97.486,163.43C98.483,159.984 98.486,159.985 98.547,156.024C98.552,155.69 98.449,155.364 98.253,155.093C95.66,151.509 94.055,149.774 89.629,149.037C89.483,149.012 89.334,149.009 89.186,149.027C86.192,149.395 86.179,149.368 83.056,151.775ZM92.098,171.744C91.915,171.875 91.762,172.045 91.652,172.242C90.564,174.177 90.485,174.318 89.764,175.965C89.765,175.965 87.142,177.713 87.142,177.713C86.712,178 86.453,178.483 86.453,179L86.453,180.453L86,180.453C85.187,180.453 84.512,181.083 84.457,181.895C84.218,185.391 84.185,187.805 85.734,190.989C85.81,191.145 85.911,191.287 86.034,191.409C88.11,193.474 88.106,193.48 91.138,194.633C91.341,194.71 91.558,194.744 91.775,194.732C97.467,194.41 100.44,191.138 104.147,187.037C104.171,187.012 104.193,186.985 104.214,186.958C107.04,183.378 108.519,180.455 108.609,175.78C108.612,175.622 108.591,175.465 108.546,175.313C108.039,173.589 107.738,172.746 107.23,172.062C106.725,171.382 105.997,170.841 104.479,169.836C104.402,169.784 104.32,169.74 104.234,169.703C102.129,168.801 100.452,168.486 98.919,168.6C96.68,168.765 94.71,169.868 92.098,171.744ZM126.093,60.383L124.128,60.908L124.12,60.91C120.47,61.906 117.015,63.129 113.509,64.531C111.648,65.026 109.776,65.492 107.897,65.931C107.892,65.933 107.886,65.934 107.881,65.936C104.015,66.886 100.17,67.857 96.363,69.02L94.196,69.676C94.157,69.688 94.118,69.701 94.079,69.717C93.015,70.135 92.403,70.435 91.967,70.843C91.454,71.323 91.123,71.989 90.761,73.453C90.761,73.453 90,73.453 90,73.453C89.506,73.453 89.042,73.689 88.751,74.088C87.352,76.004 86.034,77.979 84.759,79.98C81.141,85.641 81.132,85.687 79.207,87.552C78.385,88.258 77.928,88.721 77.659,89.221C77.376,89.746 77.261,90.351 77.31,91.453C77.31,91.453 77,91.453 77,91.453C76.368,91.453 75.799,91.838 75.564,92.426L73.564,97.426C73.271,98.158 73.576,98.994 74.272,99.365C80.487,102.679 87.909,102.377 94.548,100.488C94.577,100.48 94.605,100.471 94.633,100.461L97.508,99.461C98.13,99.245 98.547,98.658 98.547,98L98.547,97.078L99.738,96.639C99.762,96.63 99.785,96.621 99.808,96.611C102.657,95.401 105.041,94.009 107.607,92.287L109.959,90.73C112.04,89.375 112.325,89.184 113.041,87.518C116.764,87.418 120.487,87.354 124.211,87.297C124.218,87.296 124.225,87.296 124.233,87.296L127.705,87.195L131.061,87.156C131.065,87.156 131.07,87.156 131.075,87.156L134.028,87.095C137.182,87.627 138.591,88.985 140.958,91.143C141.021,91.2 141.089,91.253 141.16,91.299C143.182,92.606 145.237,93.834 147.308,95.063C148.988,96.184 149.004,96.199 150.411,97.694C151.161,98.548 151.648,99.028 152.161,99.31C152.786,99.653 153.495,99.762 154.922,99.658C154.922,99.658 155.533,101.489 155.533,101.489C155.625,101.766 155.794,102.012 156.02,102.197C159.571,105.105 159.901,105.371 163.453,106.223C163.453,106.223 163.453,107 163.453,107C163.453,107.507 163.702,107.981 164.118,108.27C166.854,110.17 169.349,111.493 172.453,112.25C172.453,112.25 172.453,113 172.453,113C172.453,113.482 172.678,113.936 173.06,114.228C175.078,115.773 177.089,117.198 179.203,118.599C180.403,119.404 181.602,120.21 182.8,121.017L182.802,121.019L184.549,122.191C186.42,123.479 188.196,124.873 189.981,126.278C190.022,126.311 190.066,126.341 190.111,126.37C194.17,128.938 195.596,129.44 200.298,128.518C200.403,128.497 200.505,128.466 200.604,128.424C204.103,126.94 207.416,125.203 210.737,123.36C210.737,123.36 213.787,121.741 213.787,121.741C213.805,121.732 213.823,121.722 213.84,121.712C215.264,120.883 215.929,120.407 216.395,119.712C216.832,119.062 217.095,118.167 217.509,116.342C217.583,116.013 217.548,115.669 217.409,115.362C216.105,112.48 216.104,112.481 214.223,110.053C213.93,109.674 213.478,109.453 213,109.453L212.08,109.453L211.64,108.252C211.63,108.228 211.621,108.203 211.61,108.179C210.405,105.352 209.02,103.071 207.27,100.554C205.42,97.886 203.786,95.281 202.399,92.34C202.144,91.799 201.599,91.453 201,91.453L200.105,91.453C200.105,91.453 199.713,90.311 199.713,90.311C199.706,90.289 199.698,90.267 199.689,90.246C198.469,87.148 198.463,87.138 196.373,84.756C194.534,82.44 193.249,80.312 191.866,77.711L191.863,77.705C190.024,74.284 188.141,71.785 185.343,69.139C185.343,69.139 184.467,66.511 184.467,66.511C184.259,65.886 183.678,65.461 183.019,65.453L180.686,65.425C177.156,65.371 173.628,65.288 170.099,65.204C170.093,65.204 170.087,65.203 170.081,65.203L166.419,65.161C160.178,64.991 155.176,64.558 149.615,61.605C149.609,61.601 149.602,61.598 149.596,61.595C141.745,57.561 134.323,58.086 126.093,60.383Z" style="fill:white;fill-rule:nonzero;"/>
    </g>
    <g transform="matrix(1,0,0,1,190,195)">
        <path d="M0,0L6,0C3,2 3,2 0,2L0,0Z" style="fill:white;fill-rule:nonzero;"/>
    </g>
</svg>
