<?xml version="1.0" encoding="UTF-8" standalone="no"?>
<!DOCTYPE svg PUBLIC "-//W3C//DTD SVG 1.1//EN" "http://www.w3.org/Graphics/SVG/1.1/DTD/svg11.dtd">
<svg width="100%" height="100%" viewBox="0 0 300 44" version="1.1" xmlns="http://www.w3.org/2000/svg" xmlns:xlink="http://www.w3.org/1999/xlink" xml:space="preserve" xmlns:serif="http://www.serif.com/" style="fill-rule:evenodd;clip-rule:evenodd;stroke-linejoin:round;stroke-miterlimit:2;">
    <g transform="matrix(0.969103,2.03703e-17,-2.14263e-17,-0.844382,241.233,39.7148)">
        <path d="M1.311,8.057L1.313,8.066C1.324,8.095 1.395,8.254 1.681,8.724L3.677,12.045C3.678,12.047 3.68,12.05 3.682,12.053C3.682,12.053 4.23,12.948 4.23,12.948C-25.844,13.005 -55.918,13.075 -85.992,13.167C-89.688,13.178 -93.384,13.189 -97.08,13.2L-99.312,13.207C-111.265,13.243 -123.217,13.27 -135.17,13.291C-147.475,13.313 -159.78,13.343 -172.085,13.386C-179.668,13.413 -187.251,13.436 -194.834,13.442C-200.081,13.447 -205.327,13.459 -210.573,13.481C-213.007,13.493 -215.44,13.503 -217.873,13.512C-221.276,13.51 -224.678,13.507 -228.08,13.526L-231.142,13.546C-235.801,13.522 -239.209,12.738 -243.366,14.998C-243.459,15.048 -243.544,15.116 -243.617,15.198C-245.212,16.995 -245.084,16.951 -245.682,19.131C-245.712,19.24 -245.726,19.353 -245.724,19.467C-245.714,20.162 -245.713,21.308 -245.703,21.973C-245.748,24.937 -245.456,26.376 -243.472,28.611C-243.399,28.693 -243.314,28.761 -243.221,28.811C-239.863,30.637 -240.656,30.397 -234.028,30.469C-234.023,30.469 -234.019,30.469 -234.015,30.469L-231.142,30.454C-227.898,30.475 -224.655,30.492 -221.411,30.49C-219.031,30.489 -216.65,30.492 -214.27,30.501C-208.471,30.529 -202.672,30.55 -196.874,30.556C-189.308,30.563 -181.741,30.58 -174.175,30.607C-161.917,30.65 -149.658,30.683 -137.399,30.705C-125.448,30.726 -113.498,30.751 -101.548,30.786L-99.312,30.793C-95.607,30.804 -91.902,30.815 -88.197,30.826C-58.081,30.918 -27.964,30.991 2.152,31.048C2.152,31.048 4.146,31.052 4.145,31.052C3.164,32.548 2.931,32.996 1.921,34.94C1.918,34.947 1.914,34.953 1.911,34.96L0.575,37.667C-0.219,39.271 -1.011,40.875 -1.801,42.481C-1.965,42.815 -1.959,43.225 -1.784,43.551C-1.61,43.878 -1.295,44.071 -0.961,44.055C4.432,43.794 8.404,43.179 13.197,40.646C13.199,40.645 13.202,40.644 13.204,40.642C16.842,38.677 20.369,37.214 24.308,35.955C27.897,34.813 31.346,33.614 34.77,32.047C42.189,28.827 42.192,28.826 49.76,25.956L52.287,25.003C54.402,24.205 55.797,23.714 56.528,23.391C57.033,23.167 57.318,22.942 57.436,22.799L57.66,22.388L57.718,21.914L57.639,21.547L57.494,21.276L57.315,21.08L57.097,20.931C56.41,20.563 55.37,20.24 52.305,19.004C49.671,17.942 47.032,16.9 44.38,15.885C39.987,14.214 35.6,12.538 31.255,10.746C21.047,6.449 10.236,2.381 -0.31,-1.015C-0.643,-1.122 -0.999,-1.006 -1.234,-0.716C-1.468,-0.425 -1.541,-0.008 -1.422,0.365C-1.001,1.682 -1.221,1.132 -0.783,2.423C0.844,7.209 0.632,6.773 1.119,7.731C1.131,7.755 1.144,7.779 1.158,7.802C1.219,7.903 1.271,7.989 1.311,8.057ZM2.739,6.84C2.78,6.873 2.82,6.911 2.857,6.956L2.739,6.84ZM3.044,7.275L3.037,7.247C3.024,7.215 2.951,7.066 2.686,6.625C2.255,5.776 2.439,6.095 0.931,1.656C0.921,1.627 0.912,1.6 0.903,1.573C10.859,4.839 21.011,8.682 30.625,12.729L30.63,12.732C34.99,14.53 39.392,16.211 43.8,17.888C46.442,18.899 49.071,19.938 51.695,20.996C52.805,21.443 53.64,21.765 54.285,22.012C53.565,22.292 52.683,22.632 51.713,22.997L49.185,23.951C41.576,26.837 41.575,26.837 34.112,30.075C34.107,30.078 34.102,30.08 34.097,30.082C30.732,31.623 27.342,32.799 23.816,33.921C19.775,35.213 16.157,36.714 12.426,38.73C8.375,40.87 4.938,41.55 0.623,41.849C1.139,40.802 1.657,39.755 2.175,38.708L3.506,36.011C4.766,33.586 4.77,33.582 6.73,30.641C6.943,30.323 6.979,29.893 6.825,29.533C6.67,29.173 6.351,28.945 6.002,28.945L2.155,28.937C-27.961,28.88 -58.077,28.807 -88.192,28.716C-91.897,28.704 -95.603,28.693 -99.308,28.682L-101.543,28.675C-113.494,28.64 -125.445,28.615 -137.396,28.594C-149.654,28.572 -161.912,28.539 -174.17,28.496C-181.737,28.469 -189.305,28.452 -196.872,28.445C-202.669,28.439 -208.466,28.418 -214.263,28.39C-216.646,28.381 -219.029,28.378 -221.412,28.38C-224.654,28.381 -227.895,28.365 -231.137,28.343C-231.14,28.343 -231.143,28.343 -231.146,28.343L-234.017,28.358C-239.981,28.293 -239.382,28.565 -242.292,26.98C-243.712,25.338 -243.898,24.224 -243.864,22.009C-243.864,21.997 -243.864,21.985 -243.864,21.973C-243.873,21.345 -243.875,20.309 -243.883,19.602C-243.482,18.12 -243.524,18.057 -242.439,16.831C-238.617,14.814 -235.448,15.635 -231.146,15.657C-231.143,15.657 -231.14,15.657 -231.137,15.657L-228.07,15.637C-224.671,15.618 -221.272,15.621 -217.873,15.623L-217.869,15.623C-215.435,15.614 -213.001,15.604 -210.566,15.592C-205.322,15.57 -200.078,15.558 -194.833,15.553C-187.248,15.547 -179.664,15.524 -172.079,15.497C-159.775,15.453 -147.471,15.423 -135.167,15.402C-123.214,15.381 -111.261,15.354 -99.308,15.318L-97.075,15.311C-93.379,15.3 -89.683,15.289 -85.987,15.278C-55.324,15.185 -24.661,15.113 6.002,15.055C6.345,15.055 6.659,14.835 6.817,14.485C6.974,14.136 6.949,13.715 6.752,13.393L5.188,10.842L3.194,7.526L3.192,7.522C3.133,7.424 3.083,7.34 3.044,7.275ZM1.693,8.557C1.631,8.516 1.565,8.462 1.509,8.393L1.693,8.557Z" style="fill:white;fill-rule:nonzero;"/>
    </g>
</svg>
