<?xml version="1.0" encoding="UTF-8" standalone="no"?>
<!DOCTYPE svg PUBLIC "-//W3C//DTD SVG 1.1//EN" "http://www.w3.org/Graphics/SVG/1.1/DTD/svg11.dtd">
<svg width="100%" height="100%" viewBox="0 0 797 469" version="1.1" xmlns="http://www.w3.org/2000/svg" xmlns:xlink="http://www.w3.org/1999/xlink" xml:space="preserve" xmlns:serif="http://www.serif.com/" style="fill-rule:evenodd;clip-rule:evenodd;stroke-linejoin:round;stroke-miterlimit:2;">
    <g transform="matrix(1,0,0,1,-240.011,-272.721)">
        <g transform="matrix(0.837738,0,0,1,157.816,0)">
            <path d="M1048.64,730.038L1044.3,731.491C1023.74,734.416 963.57,736.756 863.797,738.511C763.333,740.263 645.03,740.974 508.887,740.643C378.957,740.18 275.042,738.825 197.142,736.578C172.182,735.852 151.622,735.06 135.463,734.204L115.092,732.883C103.9,731.974 98.241,731.026 98.115,730.038C101.512,727.006 147.913,724.483 237.316,722.47C326.719,720.457 438.74,719.412 573.378,719.336C708.015,719.412 820.036,720.457 909.439,722.47C998.842,724.483 1045.24,727.006 1048.64,730.038" style="fill-opacity:0.5;fill-rule:nonzero;"/>
        </g>
        <g>
            <path d="M707.294,585.883L764.489,585.883L821.684,585.884L821.684,730.366C783.554,730.366 745.424,730.366 707.293,730.366C707.293,682.205 707.294,634.044 707.294,585.883Z" style="fill:rgb(5,150,105);fill-rule:nonzero;"/>
        </g>
        <g>
            <path d="M498.734,272.721L1031.92,272.722L1031.92,619.439C854.19,619.439 676.462,619.439 498.733,619.439C498.733,503.866 498.734,388.294 498.734,272.721Z" style="fill:rgb(5,150,105);fill-rule:nonzero;"/>
        </g>
        <g>
            <path d="M512.264,288.369L765.326,288.37L1018.39,288.37C1018.39,392.883 1018.39,497.395 1018.39,601.908C849.68,601.908 680.972,601.908 512.263,601.909C512.263,497.395 512.264,392.882 512.264,288.369Z" style="fill:white;fill-rule:nonzero;"/>
        </g>
        <g>
            <path d="M625.107,714.542L764.489,714.543L903.871,714.543L903.871,736.723C810.949,736.723 718.028,736.723 625.106,736.724C625.106,729.33 625.106,721.936 625.107,714.542Z" style="fill:rgb(5,150,105);fill-rule:nonzero;"/>
        </g>
        <g>
            <path d="M551.394,477.03L652.809,477.031L652.809,491.536L551.394,491.536L551.394,477.03ZM551.394,477.03L652.809,477.031L652.809,491.536L551.394,491.536L551.394,477.03ZM551.394,477.03L652.809,477.031L652.809,491.536L551.394,491.536L551.394,477.03ZM551.394,477.03L652.809,477.031L652.809,491.536L551.394,491.536L551.394,477.03Z" style="fill:rgb(230,230,230);fill-rule:nonzero;"/>
        </g>
        <g>
            <path d="M551.394,505.918L628.715,505.919L628.715,520.424L551.394,520.424L551.394,505.918ZM551.394,505.918L628.715,505.919L628.715,520.424L551.394,520.424L551.394,505.918ZM551.394,505.918L628.715,505.919L628.715,520.424L551.394,520.424L551.394,505.918ZM551.394,505.918L628.715,505.919L628.715,520.424L551.394,520.424L551.394,505.918Z" style="fill:rgb(230,230,230);fill-rule:nonzero;"/>
        </g>
        <g>
            <path d="M551.394,530.135L652.809,530.136L652.809,544.641L551.394,544.641L551.394,530.135ZM551.394,530.135L652.809,530.136L652.809,544.641L551.394,544.641L551.394,530.135ZM551.394,530.135L652.809,530.136L652.809,544.641L551.394,544.641L551.394,530.135ZM551.394,530.135L652.809,530.136L652.809,544.641L551.394,544.641L551.394,530.135Z" style="fill:rgb(230,230,230);fill-rule:nonzero;"/>
        </g>
        <g>
            <path d="M551.394,559.146L652.809,559.147L652.809,568.858L551.394,568.858L551.394,559.146ZM551.394,559.146L652.809,559.147L652.809,568.858L551.394,568.858L551.394,559.146ZM551.394,559.146L652.809,559.147L652.809,568.858L551.394,568.858L551.394,559.146ZM551.394,559.146L652.809,559.147L652.809,568.858L551.394,568.858L551.394,559.146Z" style="fill:rgb(230,230,230);fill-rule:nonzero;"/>
        </g>
        <g>
            <path d="M667.192,505.918L744.514,505.919L744.514,520.424L667.192,520.424L667.192,505.918ZM667.192,505.918L744.514,505.919L744.514,520.424L667.192,520.424L667.192,505.918ZM667.192,505.918L744.514,505.919L744.514,520.424L667.192,520.424L667.192,505.918ZM667.192,505.918L744.514,505.919L744.514,520.424L667.192,520.424L667.192,505.918Z" style="fill:rgb(230,230,230);fill-rule:nonzero;"/>
        </g>
        <g>
            <path d="M667.192,530.135L768.608,530.136L768.608,544.641L667.192,544.641L667.192,530.135ZM667.192,530.135L768.608,530.136L768.608,544.641L667.192,544.641L667.192,530.135ZM667.192,530.135L768.608,530.136L768.608,544.641L667.192,544.641L667.192,530.135ZM667.192,530.135L768.608,530.136L768.608,544.641L667.192,544.641L667.192,530.135Z" style="fill:rgb(230,230,230);fill-rule:nonzero;"/>
        </g>
        <g>
            <path d="M667.192,559.146L768.608,559.147L768.608,568.858L667.192,568.858L667.192,559.146ZM667.192,559.146L768.608,559.147L768.608,568.858L667.192,568.858L667.192,559.146ZM667.192,559.146L768.608,559.147L768.608,568.858L667.192,568.858L667.192,559.146ZM667.192,559.146L768.608,559.147L768.608,568.858L667.192,568.858L667.192,559.146Z" style="fill:rgb(230,230,230);fill-rule:nonzero;"/>
        </g>
        <g>
            <path d="M952.304,366.119C948.3,366.119 943.877,362.842 943.877,358.837L943.877,289.67L1017.83,366.119L952.304,366.119L952.304,366.119Z" style="fill:white;fill-rule:nonzero;"/>
        </g>
        <g>
            <path d="M823.726,442.567L983.903,442.567L983.903,449.847L823.726,449.848L823.726,442.567ZM823.726,442.567L983.903,442.567L983.903,449.847L823.726,449.848L823.726,442.567ZM823.726,442.567L983.903,442.567L983.903,449.847L823.726,449.848L823.726,442.567ZM823.726,442.567L983.903,442.567L983.903,449.847L823.726,449.848L823.726,442.567Z" style="fill:rgb(230,230,230);fill-rule:nonzero;"/>
        </g>
        <g>
            <path d="M823.726,457.128L954.78,457.129L954.78,460.768L823.726,460.769L823.726,457.128ZM823.726,457.128L954.78,457.129L954.78,460.768L823.726,460.769L823.726,457.128ZM823.726,457.128L954.78,457.129L954.78,460.768L823.726,460.769L823.726,457.128ZM823.726,457.128L954.78,457.129L954.78,460.768L823.726,460.769L823.726,457.128Z" style="fill:rgb(179,179,179);fill-rule:nonzero;"/>
        </g>
        <g>
            <path d="M863.77,537.216L980.263,537.217L980.263,540.857L863.77,540.858L863.77,537.216ZM863.77,537.216L980.263,537.217L980.263,540.857L863.77,540.858L863.77,537.216ZM863.77,537.216L980.263,537.217L980.263,540.857L863.77,540.858L863.77,537.216ZM863.77,537.216L980.263,537.217L980.263,540.857L863.77,540.858L863.77,537.216Z" style="fill:rgb(179,179,179);fill-rule:nonzero;"/>
        </g>
        <g>
            <path d="M863.77,548.138L980.263,548.138L980.263,551.778L863.77,551.779L863.77,548.138ZM863.77,548.138L980.263,548.138L980.263,551.778L863.77,551.779L863.77,548.138ZM863.77,548.138L980.263,548.138L980.263,551.778L863.77,551.779L863.77,548.138ZM863.77,548.138L980.263,548.138L980.263,551.778L863.77,551.779L863.77,548.138Z" style="fill:rgb(179,179,179);fill-rule:nonzero;"/>
        </g>
        <g>
            <path d="M863.77,569.98L980.263,569.981L980.263,573.621L863.77,573.621L863.77,569.98ZM863.77,569.98L980.263,569.981L980.263,573.621L863.77,573.621L863.77,569.98ZM863.77,569.98L980.263,569.981L980.263,573.621L863.77,573.621L863.77,569.98ZM863.77,569.98L980.263,569.981L980.263,573.621L863.77,573.621L863.77,569.98Z" style="fill:rgb(179,179,179);fill-rule:nonzero;"/>
        </g>
        <g>
            <path d="M863.77,580.901L980.263,580.902L980.263,584.542L863.77,584.543L863.77,580.901ZM863.77,580.901L980.263,580.902L980.263,584.542L863.77,584.543L863.77,580.901ZM863.77,580.901L980.263,580.902L980.263,584.542L863.77,584.543L863.77,580.901ZM863.77,580.901L980.263,580.902L980.263,584.542L863.77,584.543L863.77,580.901Z" style="fill:rgb(179,179,179);fill-rule:nonzero;"/>
        </g>
        <g>
            <path d="M823.726,468.049L976.622,468.05L976.622,471.69L823.726,471.69L823.726,468.049ZM823.726,468.049L976.622,468.05L976.622,471.69L823.726,471.69L823.726,468.049ZM823.726,468.049L976.622,468.05L976.622,471.69L823.726,471.69L823.726,468.049ZM823.726,468.049L976.622,468.05L976.622,471.69L823.726,471.69L823.726,468.049Z" style="fill:rgb(179,179,179);fill-rule:nonzero;"/>
        </g>
        <g>
            <path d="M823.726,478.97L911.095,478.971L911.095,482.611L823.726,482.612L823.726,478.97ZM823.726,478.97L911.095,478.971L911.095,482.611L823.726,482.612L823.726,478.97ZM823.726,478.97L911.095,478.971L911.095,482.611L823.726,482.612L823.726,478.97ZM823.726,478.97L911.095,478.971L911.095,482.611L823.726,482.612L823.726,478.97Z" style="fill:rgb(179,179,179);fill-rule:nonzero;"/>
        </g>
        <g>
            <path d="M803.314,308.817L896.79,308.817L990.265,308.818L990.265,408.665C927.948,408.665 865.631,408.665 803.314,408.665L803.314,308.817" style="fill:rgb(146,159,168);fill-rule:nonzero;"/>
        </g>
        <g>
            <path d="M639.944,299.208L636.395,319.425L636.409,319.438C632.071,320.147 627.873,321.283 623.864,322.797L623.864,322.783L610.692,307.044L598.311,314.197L605.341,333.471L605.368,333.485C602.011,336.24 598.935,339.327 596.181,342.685L596.168,342.644L576.893,335.614L569.74,347.995L585.479,361.182C583.969,365.188 582.843,369.379 582.135,373.713L582.121,373.7L561.905,377.249L561.905,391.554L582.121,395.104L582.135,395.09C582.843,399.424 583.969,403.615 585.479,407.621L569.74,420.807L576.893,433.188L596.168,426.158L596.181,426.117C598.935,429.475 602.011,432.563 605.368,435.318L605.341,435.331L598.311,454.606L610.692,461.759L623.864,446.02L623.864,446.006C627.873,447.519 632.071,448.655 636.409,449.364L636.395,449.378L639.944,469.594L654.237,469.595L657.786,449.378L657.772,449.364C662.109,448.658 666.308,447.53 670.317,446.02L683.503,461.759L695.884,454.606L688.84,435.331C692.189,432.583 695.264,429.506 698.013,426.158L717.301,433.189L724.441,420.807L708.715,407.621C710.226,403.615 711.366,399.425 712.073,395.09L732.29,391.555L732.29,377.249L712.073,373.7C711.365,369.37 710.225,365.184 708.715,361.182L724.441,347.996L717.301,335.615L698.013,342.645C695.264,339.297 692.189,336.22 688.84,333.472L695.884,314.197L683.503,307.044L670.317,322.783C666.308,321.273 662.109,320.146 657.772,319.439L657.786,319.426L654.237,299.209L639.944,299.209L639.944,299.208ZM647.097,334.017C674.927,334.017 697.497,356.572 697.497,384.4C697.497,412.229 674.929,434.782 647.097,434.782C619.268,434.782 596.715,412.227 596.715,384.4C596.715,356.57 619.269,334.017 647.097,334.017Z" style="fill:rgb(60,70,79);fill-rule:nonzero;"/>
        </g>
        <g>
            <path d="M555.534,396.75L543.469,404.896L527.836,415.452C526.355,416.452 524.454,416.588 522.845,415.81L505.944,407.635C504.322,406.85 503.246,405.256 503.124,403.458L501.857,384.727C501.736,382.943 502.574,381.231 504.054,380.231L519.688,369.676L531.75,361.532C530.441,362.415 529.054,364.948 530.705,367.392L530.705,367.392C531.07,367.932 531.497,368.295 531.862,368.526C518.894,360.309 502.16,360.534 489.277,369.231L489.28,369.229C477.04,377.502 470.546,391.909 472.403,406.392C472.722,408.885 471.579,411.65 469.367,413.143L469.366,413.144L388.778,467.557C384.272,470.6 382.646,478.057 387.185,484.78C391.724,491.503 399.249,492.782 403.756,489.739L403.756,489.739L484.344,435.326C486.558,433.831 489.549,433.804 491.742,435.033C504.481,442.167 520.272,441.528 532.52,433.267L532.518,433.269C545.4,424.57 551.863,409.132 549.088,394.033L549.088,394.032C549.395,395.704 551.241,397.866 554.042,397.352L554.042,397.352C554.679,397.234 555.179,396.989 555.534,396.75L557.651,393.548C557.397,394.854 556.636,396.006 555.534,396.75M549.921,388.437L547.803,391.639C548.057,390.334 548.818,389.182 549.92,388.438C550.55,388.012 551.326,387.652 552.228,387.486L552.229,387.486C555.878,386.816 558.454,389.501 558.953,392.219L558.953,392.219C562.453,411.258 554.301,430.662 538.131,441.581L538.129,441.582C522.755,451.952 502.899,452.778 486.841,443.784L486.841,443.784C487.816,444.33 488.901,444.352 489.957,443.638L409.369,498.052C399.207,504.913 385.74,500.564 378.872,490.393C372.004,480.221 373.003,466.105 383.165,459.244L463.753,404.832L463.753,404.832C462.697,405.545 462.312,406.559 462.454,407.668C460.114,389.411 468.299,371.304 483.663,360.919L483.665,360.918C499.836,350.002 520.88,349.693 537.23,360.053L537.23,360.053C537.869,360.457 538.506,361.022 539.018,361.779L539.018,361.779C541.153,364.942 539.559,368.361 537.363,369.844L525.301,377.988L509.667,388.544L511.865,384.05L513.132,402.782L510.312,398.605L527.213,406.781L522.223,407.139L537.856,396.583L549.921,388.437Z" style="fill:rgb(60,70,79);fill-rule:nonzero;"/>
        </g>
        <g>
            <path d="M464.717,480.622C465.196,481.573 465.53,482.406 465.716,483.122C468.003,488.727 466.962,493.826 462.592,498.419C459.773,501.884 450.653,506.675 435.231,512.792L434.697,514.644C431.929,524.629 428.72,530.586 425.071,532.516C421.19,534.992 415.224,536.363 407.171,536.628C398.145,544.158 390.324,548.579 383.707,549.892C379.431,550.535 375.157,550.095 370.885,548.572C367.959,547.822 362.192,545.057 353.582,540.275C346.541,539.555 341.635,538.549 338.865,537.256C335.577,535.78 333.217,534.336 331.786,532.924C328.898,530.18 326.387,526.695 324.255,522.467C320.591,515.206 318.042,505.755 316.607,494.115C313.756,475.392 311.576,445.406 310.067,404.159L385.503,367.745L404.036,404.612L429.535,411.943C433.678,431.554 437.388,444.608 440.666,451.106C440.906,451.582 441.145,452.023 441.38,452.429C443.066,455.55 444.883,458.173 446.832,460.297C455.4,468.439 459.855,472.849 460.197,473.526C460.234,473.6 460.222,473.63 460.161,473.615C462.251,476.408 463.769,478.744 464.717,480.622Z" style="fill:rgb(255,177,133);fill-rule:nonzero;"/>
        </g>
        <g>
            <path d="M370.636,338.492L383.327,363.648L396.019,388.804C364.018,404.949 332.018,421.094 300.017,437.239C291.555,420.468 283.094,403.698 274.632,386.927C306.634,370.782 338.635,354.637 370.636,338.492Z" style="fill:white;fill-rule:nonzero;"/>
        </g>
        <g>
            <path d="M246.813,357.919L303.185,330.281L359.557,302.642C370.432,324.823 381.307,347.003 392.183,369.184L279.439,424.463C268.563,402.282 257.688,380.101 246.813,357.919" style="fill:rgb(5,150,105);fill-rule:nonzero;"/>
        </g>
        <g>
            <path d="M511.15,362.239C503.477,362.239 495.786,364.486 489.12,368.985L489.119,368.985C489.117,368.986 489.115,368.987 489.113,368.988C476.784,377.323 470.242,391.837 472.113,406.429C472.419,408.818 471.32,411.472 469.203,412.901L469.202,412.901L435.175,435.877L435.175,435.877C435.143,435.898 435.115,435.925 435.092,435.958L435.092,435.959C435.036,436.041 435.027,436.142 435.061,436.23L435.061,436.23C436.952,442.921 438.733,447.924 440.405,451.237L440.405,451.237C440.648,451.719 440.889,452.165 441.128,452.576L441.127,452.576C442.823,455.715 444.653,458.354 446.617,460.495L446.631,460.509C446.702,460.577 446.775,460.646 446.85,460.718C446.905,460.771 446.978,460.799 447.052,460.799C447.091,460.799 447.13,460.791 447.167,460.776C447.188,460.766 447.208,460.755 447.227,460.741L447.226,460.741L484.508,435.568L484.508,435.568C485.627,434.813 486.959,434.447 488.28,434.447C489.455,434.447 490.614,434.736 491.599,435.288C497.516,438.601 504.086,440.251 510.658,440.251C518.342,440.251 526.03,437.996 532.681,433.512C532.681,433.512 532.682,433.511 532.682,433.511L532.681,433.511C543.756,426.032 550.123,413.61 550.014,400.674C550.013,400.563 549.95,400.463 549.852,400.414L549.85,400.413C549.809,400.393 549.764,400.383 549.72,400.383C549.663,400.383 549.606,400.4 549.556,400.433L543.306,404.654L527.672,415.209C526.878,415.746 525.956,416.018 525.029,416.018C524.328,416.018 523.625,415.862 522.973,415.547L506.071,407.371L506.071,407.371C504.544,406.632 503.53,405.131 503.416,403.438L502.149,384.707C502.035,383.028 502.824,381.415 504.218,380.474L504.218,380.474L519.851,369.918L526.101,365.699L526.102,365.699C526.188,365.642 526.238,365.542 526.231,365.437C526.224,365.326 526.154,365.228 526.051,365.186C521.291,363.221 516.224,362.239 511.15,362.239Z" style="fill:rgb(83,93,102);fill-rule:nonzero;"/>
        </g>
    </g>
</svg>
