<?xml version="1.0" encoding="UTF-8" standalone="no"?>
<!DOCTYPE svg PUBLIC "-//W3C//DTD SVG 1.1//EN" "http://www.w3.org/Graphics/SVG/1.1/DTD/svg11.dtd">
<svg width="100%" height="100%" viewBox="0 0 342 312" version="1.1" xmlns="http://www.w3.org/2000/svg" xmlns:xlink="http://www.w3.org/1999/xlink" xml:space="preserve" xmlns:serif="http://www.serif.com/" style="fill-rule:evenodd;clip-rule:evenodd;stroke-linejoin:round;stroke-miterlimit:2;">
    <g transform="matrix(1,0,0,1,17.6267,-40.4157)">
        <g transform="matrix(0.671071,-0.741393,0.741393,0.671071,2.18273,74.5688)">
            <path d="M-94.883,111.666C-98.564,111.915 -98.595,111.912 -101.963,111.658C-102.627,111.608 -103.14,111.054 -103.14,110.388L-103.14,109.244L-104.035,108.88C-104.086,108.859 -104.135,108.835 -104.183,108.808C-107.283,107.049 -109.437,104.88 -111.813,102.24C-112.024,102.006 -112.14,101.703 -112.14,101.388L-112.14,100.218L-113.178,99.76C-113.211,99.746 -113.244,99.729 -113.276,99.712C-115.743,98.36 -117.219,97.028 -119.066,94.924L-120.638,93.193C-120.694,93.132 -120.744,93.065 -120.786,92.994C-122.556,90.05 -122.612,88.621 -122.128,85.209C-122.097,84.994 -122.012,84.79 -121.88,84.617C-120.224,82.44 -118.657,80.652 -116.729,78.75L-115.163,77.163L-115.16,77.16C-114.059,76.051 -112.951,74.948 -111.837,73.851C-110.15,72.183 -108.493,70.487 -106.838,68.787C-106.834,68.783 -106.83,68.779 -106.826,68.775C-105.755,67.704 -104.683,66.635 -103.609,65.567L-102.12,64.033C-102.111,64.023 -102.101,64.013 -102.091,64.004C-99.357,61.359 -97.662,60.222 -93.864,59.637C-93.727,59.616 -93.587,59.617 -93.45,59.641C-89.447,60.345 -88.121,62.19 -85.711,65.317C-83.413,68.16 -80.869,70.723 -78.281,73.298L-78.278,73.302L-75.454,76.133C-73.105,78.484 -73.105,78.484 -70.191,80.309C-69.91,80.485 -69.708,80.765 -69.63,81.087C-69.004,83.66 -68.995,83.66 -69.621,86.649C-69.668,86.878 -69.778,87.089 -69.938,87.259C-71.504,88.93 -73.128,90.214 -74.917,91.538C-74.917,91.538 -74.362,92.092 -74.362,92.092C-73.223,92.038 -72.955,91.969 -71.904,91.472L-71.075,88.986C-70.998,88.755 -70.857,88.551 -70.667,88.398C-66.057,84.671 -60.85,81.896 -55.543,79.302L-53.709,77.881C-53.699,77.874 -53.689,77.866 -53.678,77.858C-51.349,76.164 -48.957,75.118 -46.281,74.039C-43.52,72.851 -40.909,71.397 -38.279,69.945C-38.225,69.915 -38.168,69.889 -38.11,69.867C-37.235,69.54 -36.704,69.367 -36.155,69.327C-35.55,69.283 -34.906,69.406 -33.676,69.788L-33.075,67.986C-32.95,67.612 -32.66,67.317 -32.288,67.186C-30.412,66.53 -30.409,66.527 -28.016,66.132C-24.941,65.552 -22.185,64.837 -19.288,63.648C-19.283,63.646 -19.277,63.643 -19.272,63.641C-15.158,62.017 -11.419,61.543 -7.018,61.123L-3.547,60.628C-0.082,60.133 3.387,59.691 6.86,59.262C6.86,59.262 6.86,48.839 6.86,48.839L3.048,49.338C-0.306,49.778 -1.65,49.898 -2.859,49.579C-3.686,49.361 -4.462,48.936 -5.739,48.197C-5.829,48.145 -5.912,48.083 -5.986,48.011C-9.158,44.945 -10.087,43.276 -10.365,38.822C-10.367,38.796 -10.367,38.769 -10.367,38.743C-10.367,37.232 -10.356,35.721 -10.336,34.21L-10.327,31.806C-10.316,29.267 -10.291,26.729 -10.265,24.191C-10.255,22.471 -10.246,20.752 -10.238,19.032C-10.216,14.813 -10.181,10.594 -10.14,6.376C-10.133,5.677 -9.565,5.115 -8.867,5.115L-8.634,5.115L-9.075,3.791C-9.212,3.378 -9.13,2.924 -8.856,2.587C-7.749,1.22 -6.785,0.35 -5.766,-0.219C-4.249,-1.067 -2.589,-1.266 -0.009,-1.273L2.981,-1.302C2.988,-1.302 2.994,-1.302 3.001,-1.302L6.225,-1.284L9.541,-1.292L9.543,-1.292C11.865,-1.294 14.186,-1.289 16.508,-1.276C20.055,-1.26 23.601,-1.276 27.148,-1.295L27.156,-1.295C29.407,-1.293 31.657,-1.29 33.908,-1.284L37.126,-1.302C37.133,-1.302 37.139,-1.302 37.146,-1.302L40.145,-1.273L42.778,-1.266C42.844,-1.266 42.911,-1.261 42.977,-1.25C46.208,-0.728 47.727,0.18 50.034,2.488C50.231,2.685 50.357,2.941 50.395,3.217C50.82,6.352 50.991,9.117 50.973,12.254L50.992,14.888L50.992,14.892C50.999,16.74 50.996,18.589 50.983,20.437C50.969,23.245 51.003,26.051 51.041,28.859C51.041,28.865 51.041,28.87 51.041,28.876C51.042,30.666 51.04,32.457 51.035,34.247L51.075,36.78C51.076,36.793 51.076,36.807 51.075,36.82C51.001,41.514 50.751,43.38 47.781,47.209C47.71,47.301 47.626,47.382 47.533,47.451C43.173,50.686 39.447,50.131 34.406,49.752C34.406,49.752 34.406,59.115 34.406,59.115L39.133,59.115C39.21,59.115 39.288,59.122 39.364,59.136C41.031,59.443 42.692,59.778 44.352,60.133C45.661,60.306 46.971,60.469 48.282,60.624L48.287,60.624C56.14,61.582 56.148,61.598 59.871,63.149C62.939,64.331 65.969,64.95 69.192,65.576C69.217,65.581 69.242,65.586 69.267,65.593C71.641,66.204 73.594,67.101 75.742,68.27C76.151,68.493 76.406,68.922 76.406,69.388L76.406,69.621L77.73,69.18C78.01,69.087 78.312,69.094 78.587,69.199C82.412,70.659 86.033,72.415 89.69,74.243L91.643,75.167L91.648,75.17C95.851,77.184 99.253,79.386 102.87,82.346C104.007,83.029 105.157,83.693 106.315,84.338L106.321,84.341C109.086,85.9 111.597,87.34 113.974,89.432C114.249,89.674 114.406,90.022 114.406,90.388L114.406,91.455L115.892,91.924C115.948,91.942 116.002,91.963 116.056,91.989C119.324,93.545 119.669,94.472 121.064,97.386C122.49,97.942 122.636,97.959 124.26,98.121C124.911,98.186 125.406,98.734 125.406,99.388C125.406,99.388 125.406,101.428 125.406,101.428L126.67,101.789C126.742,101.809 126.813,101.836 126.88,101.869C130.646,103.71 132.626,106.349 135.124,109.587C136.045,110.663 136.972,111.734 137.904,112.8C137.908,112.805 137.912,112.809 137.916,112.814L139.451,114.622C140.584,115.953 141.732,117.271 142.893,118.577C142.899,118.584 142.905,118.591 142.911,118.597C151.24,128.368 157.419,140.049 162.304,151.887L163.578,154.758C163.579,154.761 163.581,154.764 163.582,154.767C167.71,164.254 170.15,173.571 171.347,183.802L172.033,184.488C172.253,184.707 172.384,184.999 172.404,185.308C172.504,186.903 172.534,188.503 172.536,190.101L172.545,193.145L172.545,193.151L172.539,196.467L172.542,199.856C172.543,202.231 172.541,204.606 172.537,206.98C172.531,210.609 172.537,214.238 172.543,217.866L172.543,217.869C172.542,220.172 172.541,222.475 172.539,224.778L172.545,228.069L172.545,228.076L172.536,231.157L172.533,233.859C172.533,233.88 172.533,233.9 172.532,233.921C172.398,236.597 171.966,239.054 171.376,241.664L170.94,243.66C170.934,243.685 170.928,243.709 170.921,243.733C170.34,245.8 170.339,245.808 169.371,248.067C168.502,250.376 167.986,252.416 167.507,254.824C167.506,254.829 167.505,254.835 167.504,254.84C166.381,260.131 164.441,264.932 162.305,269.887L161.334,272.198C161.333,272.201 161.332,272.204 161.33,272.207C157.883,280.232 152.939,291.171 146.591,299.979C142.354,305.857 137.482,310.782 132.041,313.37C131.177,314.902 131.122,315.028 130.299,316.901C130.243,317.027 130.167,317.144 130.073,317.247C128.735,318.712 128.728,318.721 127.027,320.296L124.492,322.954C124.477,322.97 124.462,322.985 124.447,322.999C122.753,324.606 122.031,325.191 121.26,325.448C120.898,325.569 120.518,325.623 120.018,325.646L119.636,326.652C119.609,326.723 119.576,326.791 119.537,326.856C117.774,329.795 115.844,330.771 112.92,332.407L111.425,333.959C111.413,333.972 111.4,333.984 111.387,333.997C110.705,334.648 110.277,335.016 109.793,335.251C109.261,335.509 108.638,335.613 107.406,335.647L107.406,336.388C107.406,336.847 107.16,337.27 106.76,337.496C106.76,337.496 101.594,340.421 101.594,340.421C99.974,341.372 98.403,342.406 96.839,343.448C96.63,343.587 96.384,343.662 96.133,343.662L94.406,343.662L94.406,344.388C94.406,344.877 94.127,345.322 93.687,345.535C82.479,350.952 71.943,355.95 59.625,358.211C59.62,358.212 59.616,358.212 59.612,358.213C57.442,358.589 57.442,358.589 55.405,359.221C55.364,359.234 55.322,359.245 55.28,359.254C53.563,359.6 53.216,359.697 51.406,359.141L51.406,359.388C51.406,359.936 51.056,360.423 50.536,360.596C47.403,361.641 45.34,361.788 42.07,361.791L38.946,361.8L38.94,361.8L35.57,361.794L32.108,361.797C29.689,361.798 27.271,361.796 24.853,361.792C21.147,361.787 17.442,361.792 13.737,361.798L13.734,361.798C11.388,361.798 9.042,361.796 6.696,361.794L3.327,361.8L3.32,361.8L0.197,361.791L-2.553,361.789C-2.576,361.789 -2.599,361.788 -2.622,361.787C-5.081,361.652 -5.083,361.659 -8.27,360.596C-8.79,360.423 -9.14,359.936 -9.14,359.388C-9.14,359.388 -9.14,359.03 -9.14,359.03L-9.737,359.184C-9.777,359.194 -9.818,359.203 -9.859,359.209C-14.984,360.006 -21.03,358.935 -27.132,356.932C-36.057,354.003 -45.117,349.101 -51.494,345.497C-51.893,345.271 -52.14,344.847 -52.14,344.388C-52.14,344.388 -52.14,343.472 -52.14,343.472L-53.383,343.27C-53.412,343.266 -53.44,343.26 -53.468,343.253C-56.338,342.586 -56.355,342.593 -59.531,340.476L-62.175,339C-62.2,338.986 -62.224,338.972 -62.247,338.956L-64.56,337.456C-64.922,337.222 -65.14,336.82 -65.14,336.388C-65.14,336.388 -65.14,335.432 -65.14,335.432L-65.992,335.262C-66.029,335.254 -66.065,335.245 -66.101,335.235C-68.472,334.538 -68.509,334.546 -70.692,332.364C-72.482,331.103 -74.295,329.883 -76.114,328.665C-76.152,328.64 -76.187,328.613 -76.222,328.585L-77.683,327.366C-77.973,327.124 -78.14,326.766 -78.14,326.388L-78.14,325.213L-79.2,324.738C-79.23,324.724 -79.259,324.71 -79.287,324.695C-81.601,323.439 -83.022,322.192 -84.794,320.262C-85.961,319.096 -87.143,317.943 -88.356,316.824C-88.382,316.8 -88.407,316.775 -88.431,316.749C-89.28,315.822 -89.668,315.332 -89.88,314.791C-90.039,314.387 -90.106,313.941 -90.129,313.228L-91.163,312.779C-91.201,312.763 -91.237,312.745 -91.272,312.725C-98.236,308.874 -102.77,300.626 -106.935,294.082L-108.717,291.392L-108.721,291.387C-111.95,286.461 -114.814,281.63 -117.077,276.191C-118.172,273.566 -119.377,271.004 -120.583,268.428C-120.585,268.424 -120.586,268.42 -120.588,268.416C-123.922,261.102 -126.752,253.565 -127.632,245.534C-128.025,242.222 -128.686,239.137 -129.613,235.936C-129.621,235.908 -129.628,235.88 -129.634,235.852C-130.178,233.352 -130.267,231.106 -130.27,228.548L-130.279,225.646L-130.279,225.64L-130.273,222.532L-130.276,219.329C-130.277,217.096 -130.275,214.864 -130.271,212.632C-130.265,209.203 -130.271,205.774 -130.277,202.346L-130.277,202.343C-130.276,200.177 -130.275,198.012 -130.273,195.846L-130.279,192.72L-130.279,192.713L-130.27,189.842L-130.267,187.303C-130.267,187.275 -130.266,187.247 -130.265,187.22C-130.167,185.75 -130.057,185.175 -129.765,184.664C-129.615,184.401 -129.409,184.151 -129.09,183.817L-128.822,181.076C-128.821,181.069 -128.82,181.062 -128.819,181.055C-126.033,156.809 -111.778,129.561 -94.883,111.666ZM168.627,182.557C168.357,182.44 168.131,182.23 167.994,181.958L166.994,179.958L168.163,179.373C166.848,171.211 164.629,163.557 161.248,155.787L159.969,152.905C159.965,152.894 159.96,152.884 159.956,152.874C155.173,141.28 149.137,129.829 140.98,120.259C139.81,118.942 138.653,117.614 137.511,116.272L137.51,116.271L135.981,114.469C135.037,113.39 134.098,112.306 133.166,111.216C133.152,111.2 133.138,111.183 133.125,111.166C130.898,108.279 129.186,105.863 125.86,104.206L123.783,103.613C123.237,103.456 122.86,102.957 122.86,102.388C122.86,102.388 122.86,100.534 122.86,100.534C121.781,100.402 121.396,100.252 119.667,99.573C119.369,99.456 119.126,99.231 118.987,98.943C117.756,96.399 117.655,95.586 115.039,94.325L112.75,93.602C112.22,93.435 111.86,92.944 111.86,92.388C111.86,92.388 111.86,90.973 111.859,90.973C109.746,89.2 107.511,87.935 105.072,86.561C103.862,85.887 102.663,85.194 101.476,84.479C101.423,84.447 101.373,84.412 101.325,84.373C97.85,81.521 94.587,79.402 90.55,77.467L88.588,76.539C88.58,76.535 88.572,76.531 88.564,76.527C85.114,74.802 81.697,73.14 78.102,71.741L75.536,72.596C75.147,72.726 74.721,72.661 74.389,72.421C74.056,72.182 73.86,71.797 73.86,71.388C73.86,71.388 73.86,70.151 73.859,70.151C72.168,69.262 70.566,68.561 68.667,68.068C65.299,67.414 62.133,66.753 58.924,65.513C58.914,65.509 58.904,65.505 58.893,65.501C55.387,64.04 55.383,64.055 47.981,63.152C46.641,62.994 45.303,62.828 43.966,62.65C43.932,62.646 43.899,62.64 43.866,62.633C42.254,62.288 40.638,61.961 39.016,61.662L33.133,61.662C32.43,61.662 31.86,61.091 31.86,60.388L31.86,48.388C31.86,48.037 32.005,47.702 32.26,47.461C32.516,47.22 32.859,47.096 33.21,47.117C38.221,47.419 41.753,48.484 45.877,45.507C48.301,42.343 48.466,40.727 48.529,36.8L48.489,34.275C48.489,34.268 48.489,34.26 48.489,34.252C48.494,32.463 48.495,30.674 48.494,28.885C48.456,26.064 48.422,23.245 48.436,20.423L48.436,20.421C48.449,18.582 48.452,16.743 48.445,14.904L48.426,12.264C48.426,12.259 48.426,12.253 48.426,12.248C48.443,9.375 48.295,6.828 47.927,3.988C46.261,2.373 45.056,1.679 42.668,1.28L40.133,1.273L40.125,1.273L37.131,1.245L33.918,1.263C33.914,1.263 33.911,1.263 33.907,1.263C31.657,1.257 29.407,1.253 27.157,1.251C23.603,1.271 20.05,1.286 16.496,1.27C14.179,1.258 11.863,1.252 9.546,1.254L6.226,1.263C6.223,1.263 6.219,1.263 6.216,1.263L2.996,1.245L0.012,1.273L0.003,1.273C-2.018,1.279 -3.335,1.34 -4.523,2.004C-5.168,2.364 -5.767,2.898 -6.434,3.661L-5.659,5.986C-5.529,6.374 -5.595,6.801 -5.834,7.133C-6.073,7.465 -6.458,7.662 -6.867,7.662L-7.606,7.662C-7.641,11.456 -7.671,15.25 -7.691,19.045C-7.699,20.766 -7.709,22.487 -7.719,24.208L-7.719,24.213C-7.744,26.748 -7.769,29.282 -7.78,31.817L-7.789,34.225C-7.789,34.229 -7.789,34.233 -7.789,34.237C-7.809,35.726 -7.82,37.214 -7.82,38.71C-7.593,42.271 -6.825,43.64 -4.327,46.072C-3.402,46.609 -2.832,46.952 -2.21,47.116C-1.201,47.382 -0.083,47.18 2.718,46.813L7.968,46.126C8.331,46.078 8.697,46.189 8.973,46.431C9.248,46.673 9.406,47.022 9.406,47.388L9.406,60.388C9.406,61.031 8.927,61.574 8.288,61.652C4.458,62.122 0.634,62.603 -3.187,63.149L-6.687,63.649C-6.707,63.652 -6.726,63.654 -6.746,63.656C-10.907,64.052 -14.444,64.474 -18.331,66.008C-21.396,67.266 -24.312,68.026 -27.569,68.64C-27.578,68.641 -27.588,68.643 -27.598,68.645C-29.47,68.953 -29.718,68.992 -30.857,69.385L-31.659,71.791C-31.881,72.458 -32.602,72.819 -33.27,72.596C-34.799,72.086 -35.396,71.826 -35.971,71.867C-36.305,71.892 -36.619,72.027 -37.129,72.219C-39.814,73.701 -42.483,75.18 -45.302,76.39C-45.311,76.394 -45.32,76.398 -45.328,76.401C-47.791,77.394 -50.012,78.344 -52.166,79.907L-54.087,81.395C-54.156,81.448 -54.23,81.494 -54.308,81.532C-59.372,84.005 -64.353,86.63 -68.778,90.147L-69.659,92.791C-69.768,93.118 -70.005,93.387 -70.316,93.536C-72.461,94.565 -72.461,94.564 -74.815,94.66C-75.17,94.675 -75.516,94.54 -75.767,94.289L-77.767,92.289C-78.03,92.025 -78.165,91.66 -78.136,91.289C-78.108,90.918 -77.918,90.579 -77.617,90.359C-75.574,88.87 -73.763,87.557 -72.039,85.772C-71.654,83.927 -71.632,83.671 -71.983,82.192C-74.712,80.479 -74.831,80.36 -77.256,77.932L-80.079,75.101C-82.735,72.459 -85.343,69.825 -87.701,66.907C-87.707,66.9 -87.713,66.892 -87.719,66.884C-89.632,64.402 -90.605,62.79 -93.689,62.188C-96.702,62.687 -98.085,63.673 -100.307,65.821L-101.789,67.349C-101.794,67.355 -101.8,67.36 -101.805,67.366C-102.878,68.432 -103.95,69.5 -105.019,70.57C-106.684,72.28 -108.35,73.985 -110.047,75.663L-110.049,75.664C-111.156,76.754 -112.257,77.851 -113.352,78.953L-114.921,80.544C-114.925,80.548 -114.93,80.552 -114.934,80.557C-116.697,82.296 -118.144,83.934 -119.652,85.897C-119.978,88.301 -119.935,89.432 -118.667,91.576L-117.174,93.22C-117.169,93.225 -117.165,93.23 -117.16,93.236C-115.538,95.083 -114.251,96.267 -112.099,97.453L-110.353,98.223C-109.891,98.427 -109.594,98.884 -109.594,99.388C-109.594,99.388 -109.594,100.898 -109.593,100.899C-107.555,103.144 -105.665,105.025 -102.996,106.553L-101.387,107.209C-100.907,107.404 -100.594,107.87 -100.594,108.388C-100.594,108.388 -100.594,109.206 -100.594,109.206C-98.602,109.348 -98.103,109.33 -95.48,109.153L-94.202,107.686L-92.941,105.705C-92.794,105.473 -92.576,105.295 -92.319,105.198C-90.06,104.339 -90.059,104.342 -88.002,104.122C-87.643,104.084 -87.284,104.2 -87.016,104.441C-86.747,104.683 -86.594,105.027 -86.594,105.388L-86.594,107.388C-86.594,108.091 -87.164,108.662 -87.867,108.662L-89.185,108.662L-90.807,111.095C-90.854,111.164 -90.907,111.229 -90.967,111.289C-107.745,128.067 -122.312,154.535 -125.917,178.54C-125.844,178.622 -125.78,178.715 -125.728,178.819L-124.728,180.819L-125.867,182.662L-126.387,182.34L-126.6,184.512C-126.628,184.806 -126.758,185.08 -126.967,185.289C-127.254,185.576 -127.444,185.734 -127.553,185.926C-127.715,186.21 -127.67,186.545 -127.721,187.345L-127.723,189.846L-127.723,189.849L-127.733,192.718L-127.726,195.843L-127.726,195.846C-127.728,198.012 -127.73,200.177 -127.73,202.342C-127.724,205.773 -127.719,209.205 -127.724,212.636C-127.728,214.866 -127.73,217.097 -127.729,219.328L-127.726,222.532L-127.726,222.535L-127.733,225.641L-127.723,228.54L-127.723,228.542C-127.721,230.899 -127.65,232.971 -127.155,235.267C-126.195,238.592 -125.51,241.798 -125.102,245.238C-125.102,245.242 -125.102,245.246 -125.101,245.25C-124.252,253.01 -121.495,260.286 -118.273,267.354C-117.053,269.961 -115.835,272.555 -114.727,275.211C-112.525,280.502 -109.733,285.198 -106.593,289.988L-104.806,292.685C-104.801,292.691 -104.797,292.698 -104.793,292.704C-100.85,298.899 -96.672,306.8 -90.091,310.468L-88.359,311.22C-87.894,311.422 -87.594,311.881 -87.594,312.388C-87.594,313.146 -87.64,313.528 -87.51,313.86C-87.381,314.187 -87.093,314.442 -86.595,314.983C-85.36,316.124 -84.156,317.299 -82.967,318.488C-82.953,318.501 -82.941,318.514 -82.928,318.528C-81.376,320.221 -80.136,321.33 -78.113,322.434L-76.346,323.226C-75.888,323.431 -75.594,323.886 -75.594,324.388C-75.594,324.388 -75.594,325.792 -75.594,325.792C-75.594,325.792 -74.642,326.586 -74.642,326.586C-72.793,327.824 -70.95,329.065 -69.133,330.348C-69.073,330.39 -69.018,330.437 -68.967,330.488C-67.241,332.213 -67.234,332.246 -65.437,332.776L-63.617,333.14C-63.022,333.259 -62.594,333.781 -62.594,334.388L-62.594,335.696L-60.897,336.797L-58.246,338.276C-58.217,338.293 -58.188,338.31 -58.161,338.329C-55.394,340.173 -55.383,340.193 -52.933,340.763L-50.663,341.131C-50.047,341.231 -49.594,341.764 -49.594,342.388C-49.594,342.388 -49.594,343.644 -49.594,343.644C-43.379,347.142 -34.798,351.735 -26.338,354.512C-20.676,356.371 -15.074,357.426 -10.31,356.702L-8.184,356.155C-7.803,356.057 -7.398,356.141 -7.087,356.382C-6.776,356.623 -6.594,356.995 -6.594,357.388C-6.594,357.388 -6.594,358.47 -6.594,358.47C-4.634,359.117 -4.405,359.138 -2.517,359.242L0.201,359.244L0.203,359.244L3.325,359.254L6.693,359.248L6.697,359.248C9.042,359.25 11.388,359.251 13.734,359.252C17.441,359.245 21.149,359.24 24.857,359.245C27.273,359.249 29.69,359.251 32.107,359.251L35.569,359.248L35.573,359.248L38.941,359.254L42.063,359.244L42.066,359.244C44.712,359.242 46.487,359.149 48.86,358.453L48.86,357.388C48.86,356.979 49.056,356.595 49.389,356.355C49.721,356.116 50.147,356.051 50.536,356.18C53.104,357.036 53.132,357.088 54.713,356.77C56.84,356.109 56.864,356.104 59.171,355.705C70.991,353.534 81.131,348.771 91.86,343.589L91.86,342.388C91.86,341.685 92.43,341.115 93.133,341.115C93.133,341.115 95.748,341.115 95.747,341.115C97.248,340.117 98.759,339.132 100.313,338.22C100.319,338.216 100.324,338.213 100.33,338.21L104.86,335.646L104.86,334.388C104.86,333.685 105.43,333.115 106.133,333.115C107.608,333.115 108.203,333.191 108.683,332.959C108.974,332.818 109.204,332.562 109.609,332.174L111.216,330.505C111.302,330.415 111.401,330.339 111.51,330.278C114.048,328.854 115.779,328.116 117.296,325.64L117.942,323.937C118.13,323.442 118.604,323.115 119.133,323.115C119.745,323.115 120.115,323.145 120.454,323.032C121.012,322.846 121.456,322.328 122.67,321.174L125.211,318.509C125.23,318.49 125.249,318.472 125.268,318.454C126.85,316.989 126.911,316.933 128.051,315.685C128.903,313.748 128.936,313.689 130.024,311.762C130.157,311.527 130.361,311.34 130.607,311.228C135.84,308.856 140.471,304.115 144.525,298.49C150.76,289.84 155.602,279.089 158.988,271.207L159.959,268.895C159.961,268.891 159.962,268.888 159.964,268.884C162.033,264.086 163.923,259.441 165.011,254.318C165.521,251.755 166.074,249.587 167.004,247.126C167.011,247.108 167.018,247.091 167.025,247.074C167.922,244.982 167.928,244.969 168.46,243.079L168.889,241.116C168.89,241.113 168.89,241.11 168.891,241.108C169.446,238.651 169.858,236.34 169.987,233.824L169.989,231.154L169.989,231.151L169.999,228.071L169.993,224.781L169.993,224.778C169.994,222.475 169.996,220.172 169.996,217.87C169.99,214.239 169.985,210.607 169.99,206.976C169.994,204.603 169.996,202.23 169.995,199.857L169.993,196.467L169.993,196.464L169.999,193.15L169.989,190.108L169.989,190.105C169.988,188.719 169.965,187.331 169.89,185.946L169.233,185.289C169.029,185.085 168.9,184.818 168.868,184.531C168.793,183.869 168.713,183.211 168.627,182.557ZM-106.253,199.464L-107.006,197.958C-107.32,197.329 -107.065,196.564 -106.436,196.249C-106.323,196.193 -106.205,196.154 -106.086,196.133C-106.084,195.977 -106.081,195.813 -106.078,195.64L-106.14,192.413C-106.147,192.071 -106.015,191.741 -105.776,191.496C-105.536,191.252 -105.209,191.115 -104.867,191.115L-104.42,191.115L-105.116,187.638C-105.228,187.075 -104.95,186.506 -104.436,186.249C-104.436,186.249 -103.159,185.611 -103.159,185.611C-103.203,183.378 -103.148,181.291 -102.675,179.061C-102.669,179.031 -102.661,179.001 -102.652,178.971C-102.652,178.971 -102.097,177.057 -102.097,177.057C-101.555,174.87 -100.998,172.691 -100.413,170.515C-100.411,170.508 -100.41,170.502 -100.408,170.496L-99.658,167.864C-98.955,165.193 -98.953,165.189 -98.05,162.918C-97.935,162.627 -97.716,162.389 -97.436,162.249C-97.436,162.249 -96.123,161.592 -96.123,161.593C-95.986,158.539 -95.048,156.539 -93.615,153.676C-93.613,153.672 -93.611,153.668 -93.609,153.665L-92.628,151.751C-91.456,149.395 -90.249,147.087 -88.984,144.776C-88.926,144.67 -88.853,144.573 -88.767,144.488C-88.767,144.488 -86.919,142.64 -86.92,142.641C-85.744,140.225 -84.611,138.27 -82.936,136.108C-82.928,136.098 -82.92,136.088 -82.912,136.078C-82.912,136.078 -80.89,133.627 -80.885,133.622C-79.917,132.245 -78.917,130.888 -77.854,129.584C-77.612,129.287 -77.25,129.115 -76.867,129.115L-76.14,129.115L-76.14,127.388C-76.14,126.906 -75.868,126.465 -75.436,126.249C-75.436,126.249 -73.831,125.446 -73.831,125.447C-73.246,124.215 -72.632,122.996 -71.991,121.791C-71.838,121.502 -71.58,121.284 -71.27,121.18C-68.28,120.184 -68.291,120.163 -65.882,117.057C-64.397,115.045 -64.393,115.042 -62.747,113.468C-62.51,113.241 -62.195,113.115 -61.867,113.115L-60.14,113.115L-60.14,112.388C-60.14,112.099 -60.042,111.819 -59.861,111.593C-58.44,109.816 -58.44,109.816 -56.662,108.394C-56.437,108.213 -56.156,108.115 -55.867,108.115C-55.867,108.115 -54.424,108.115 -54.425,108.115C-51.639,105.105 -49.455,102.975 -45.395,101.849C-45.371,101.842 -45.347,101.836 -45.323,101.831L-43.14,101.36L-43.14,100.388C-43.14,99.795 -42.731,99.281 -42.153,99.147C-38.898,98.396 -35.742,97.474 -32.613,96.308C-29.871,93.188 -29.758,93.145 -25.296,91.957C-23.737,91.439 -22.178,90.918 -20.621,90.393L-18.352,89.62L-18.344,89.618C-17.017,89.176 -15.699,88.712 -14.386,88.222C-11.616,86.759 -10.576,85.979 -7.408,86.507C-7.333,86.52 -7.26,86.539 -7.189,86.564L-7.14,86.581L-7.14,86.388C-7.14,85.72 -6.624,85.166 -5.958,85.118L6.873,84.202C6.963,83.59 7.488,83.12 8.124,83.115C10.936,83.094 13.749,83.078 16.561,83.066L20.001,83.052L23.417,83.027L23.422,83.027L26.683,83.017C28.52,83.008 30.358,83.03 32.192,83.116C32.37,83.124 32.544,83.17 32.703,83.249C34.761,84.278 34.77,84.232 40.754,84.554C44.274,84.686 44.277,84.687 47.316,85.128C47.728,85.188 48.086,85.446 48.272,85.819C48.272,85.819 48.769,86.813 48.769,86.813C49.786,86.468 50.436,86.313 51.09,86.313C51.941,86.313 52.818,86.579 54.553,87.186C54.616,87.208 54.677,87.235 54.735,87.266C58.393,89.229 58.396,89.222 66.2,91.673C68.703,92.445 71.125,93.272 73.582,94.196C73.882,94.309 74.128,94.532 74.272,94.819C74.272,94.819 75.051,96.377 75.052,96.377C76.591,96.968 76.778,97.022 78.98,97.663C81.461,98.347 81.463,98.348 83.606,99.206C83.896,99.322 84.133,99.54 84.272,99.819C84.594,100.463 84.764,100.863 85.031,101.146C85.436,101.576 86.043,101.694 87.472,102.18L90.528,103.178C90.719,103.24 90.892,103.346 91.033,103.488C92.922,105.377 92.923,105.378 95.164,106.734C97.583,108.174 99.816,109.593 101.959,111.419C102.243,111.661 102.406,112.015 102.406,112.388L102.406,113.115L104.133,113.115C104.615,113.115 105.056,113.387 105.272,113.819C106.186,115.647 106.208,115.631 108.886,117.91L111.938,120.402C111.971,120.429 112.003,120.458 112.033,120.488L114.006,122.46C116.182,124.383 116.191,124.393 118.088,126.546C118.293,126.779 118.406,127.078 118.406,127.388L118.406,129.115L119.133,129.115C119.524,129.115 119.893,129.294 120.134,129.601L121.509,131.351C121.52,131.365 121.53,131.379 121.54,131.393C121.54,131.393 123.1,133.553 123.099,133.551C124.434,134.85 125.754,136.164 127.049,137.503C127.278,137.741 127.406,138.058 127.406,138.388C127.406,138.388 127.406,139.937 127.406,139.936C129.526,142.555 131.347,144.962 132.93,147.99C132.941,148.012 132.952,148.034 132.962,148.056L134.48,151.425C135.846,154.415 137.144,157.28 138.035,160.446C138.043,160.476 138.051,160.506 138.057,160.537L138.174,161.115L139.133,161.115C139.743,161.115 140.267,161.547 140.383,162.146L140.749,164.038L141.255,166.507L141.257,166.513C141.724,168.852 141.737,168.915 142.306,170.863C145.565,176.103 145.569,176.162 145.469,182.72L145.469,182.722L145.428,185.115L146.133,185.115C146.507,185.115 146.863,185.28 147.105,185.565C147.347,185.851 147.451,186.228 147.389,186.598L146.636,191.115L147.133,191.115C147.836,191.115 148.406,191.685 148.406,192.388C148.406,194.287 148.609,196.084 148.839,197.953L149.272,198.819C149.469,199.213 149.448,199.682 149.216,200.058C149.18,200.116 149.14,200.17 149.096,200.221C149.632,205.818 149.408,211.398 149.098,217.019L149.098,217.023L148.967,219.271C148.906,220.449 148.837,221.622 148.76,222.794L149.272,223.819C149.469,224.213 149.448,224.682 149.216,225.058C149.062,225.308 148.828,225.493 148.559,225.588C148.509,226.224 148.457,226.86 148.402,227.498C148.388,227.658 148.344,227.814 148.272,227.958C147.393,229.715 147.399,229.726 147.344,232.012L147.406,234.355C147.419,234.849 147.145,235.306 146.703,235.527C146.703,235.527 145.924,235.916 145.924,235.916C146.141,236.326 146.282,236.669 146.358,237.007C146.566,237.934 146.337,238.886 145.462,241.179C145.462,241.179 144.364,244.717 144.362,244.723C141.835,255.017 137.473,265.797 132.24,275.017C132.116,275.236 131.929,275.414 131.703,275.527L130.406,276.175L130.406,278.388C130.406,278.87 130.134,279.311 129.703,279.527C127.974,280.391 127.966,280.401 126.739,282.044L125.198,284.398L125.195,284.403C124.194,285.918 123.213,287.447 122.259,288.989C121.133,291.441 120.282,293.049 118.318,294.945C118.292,294.971 118.264,294.995 118.235,295.019C114.582,297.976 111.339,300.971 108.307,304.568C106.697,306.609 106.692,306.613 105.038,308.284C104.897,308.426 104.725,308.533 104.536,308.596C101.805,309.506 101.809,309.513 99.533,311.789L97.033,314.289C96.894,314.428 96.723,314.534 96.536,314.596C93.361,315.654 91.562,317.155 89.041,319.287C87.962,320.571 87.374,321.185 86.638,321.562C85.904,321.938 84.993,322.082 83.158,322.278L81.406,322.506L81.406,323.388C81.406,323.972 81.009,324.482 80.442,324.624C80.442,324.624 73.406,326.382 73.406,326.382L73.406,327.388C73.406,327.923 73.073,328.4 72.571,328.584C69.176,329.826 66.04,330.693 62.461,331.27C62.444,331.273 62.427,331.275 62.41,331.277L60.406,331.518L60.406,332.388C60.406,333.091 59.836,333.662 59.133,333.662L52.406,333.662L52.406,334.388C52.406,334.77 52.235,335.131 51.94,335.373C51.645,335.615 51.257,335.712 50.883,335.637C50.883,335.637 47.406,334.941 47.406,334.941L47.406,335.388C47.406,335.78 47.226,336.151 46.917,336.392C46.608,336.633 46.205,336.719 45.824,336.624L43.406,336.019L43.406,336.388C43.406,337.091 42.836,337.662 42.133,337.662C38.211,337.662 38.206,337.66 35.884,337.874C27.892,338.73 19.726,339.398 11.748,338.146C11.74,338.145 11.731,338.143 11.723,338.142C8.417,337.554 5.26,337.588 1.911,337.626L0.159,337.661C-0.184,337.668 -0.514,337.537 -0.758,337.298C-1.003,337.058 -1.14,336.73 -1.14,336.388C-1.14,336.388 -1.14,336.155 -1.14,336.155L-2.464,336.596C-3.065,336.797 -3.722,336.524 -4.006,335.958L-4.549,334.871L-7.558,335.624C-8.137,335.768 -8.739,335.491 -9.006,334.958L-9.654,333.662L-16.867,333.662C-17.57,333.662 -18.14,333.091 -18.14,332.388C-18.14,332.388 -18.14,331.701 -18.14,331.701C-19.239,331.708 -19.695,331.576 -21.572,331.024L-24.272,330.24C-27,329.51 -27.003,329.508 -29.341,328.57C-29.63,328.454 -29.867,328.236 -30.006,327.958L-30.755,326.459L-37.217,324.613C-37.56,324.514 -37.846,324.277 -38.006,323.958L-38.717,322.535L-41.014,322.144L-44.072,321.645C-44.335,321.602 -44.579,321.477 -44.767,321.289C-44.767,321.289 -48.618,317.438 -48.617,317.439C-50.568,316.482 -52.511,315.51 -54.446,314.522C-54.688,314.399 -54.884,314.201 -55.006,313.958C-55.891,312.188 -55.919,312.212 -58.511,310.448L-61.563,308.454C-61.637,308.406 -61.705,308.351 -61.767,308.289L-68.08,301.976L-68.082,301.974C-69.634,300.414 -71.19,298.858 -72.739,297.316C-76.029,294.255 -78.548,291.267 -80.995,287.522C-80.997,287.519 -80.999,287.516 -81.001,287.513C-82.615,284.999 -84.016,283.04 -86.142,280.914L-87.767,279.289C-88.006,279.05 -88.14,278.726 -88.14,278.388C-88.14,278.388 -88.14,275.838 -88.14,275.838C-94.411,268.059 -94.469,267.894 -97.575,257.23C-98.377,255.118 -99.193,253.01 -100.029,250.911C-101.066,248.853 -102.025,246.942 -102.745,244.75C-102.754,244.723 -102.761,244.696 -102.768,244.669L-103.283,242.66C-103.883,240.581 -103.884,240.575 -104.131,238.542C-104.154,238.355 -104.135,238.165 -104.075,237.986L-103.634,236.662L-103.867,236.662C-104.209,236.662 -104.537,236.524 -104.777,236.279C-105.016,236.034 -105.147,235.703 -105.14,235.361C-105.101,233.55 -105.1,231.737 -105.13,229.925L-105.767,229.289C-105.951,229.105 -106.074,228.869 -106.12,228.614C-106.439,226.843 -106.73,224.965 -106.972,223.025L-107.006,222.958C-107.154,222.66 -107.176,222.333 -107.091,222.037C-107.903,214.987 -108.05,207.236 -106.605,200.894C-106.6,200.875 -106.595,200.856 -106.59,200.837C-106.427,200.248 -106.322,199.864 -106.253,199.464ZM-104.502,222.27L-103.728,223.819L-104.196,224.575C-104.037,225.67 -103.865,226.738 -103.683,227.771L-102.967,228.488C-102.734,228.72 -102.601,229.034 -102.594,229.362C-102.562,230.946 -102.554,232.531 -102.572,234.115L-101.867,234.115C-101.458,234.115 -101.073,234.312 -100.834,234.644C-100.595,234.976 -100.529,235.403 -100.659,235.791C-100.659,235.791 -101.568,238.519 -101.568,238.521C-101.377,240.082 -101.348,240.18 -100.831,241.973C-100.827,241.985 -100.824,241.997 -100.821,242.01C-100.821,242.01 -100.312,243.995 -100.308,244.007C-99.625,246.072 -98.709,247.871 -97.73,249.815C-97.713,249.849 -97.698,249.882 -97.684,249.917C-96.829,252.062 -95.995,254.215 -95.176,256.374C-95.164,256.406 -95.154,256.437 -95.144,256.47C-92.127,266.83 -92.13,266.832 -85.876,274.589C-85.693,274.815 -85.594,275.097 -85.594,275.388L-85.594,277.861L-84.342,279.113C-82.078,281.376 -80.579,283.456 -78.861,286.133C-76.531,289.697 -74.132,292.542 -71,295.456C-70.989,295.466 -70.979,295.475 -70.969,295.485C-69.401,297.045 -67.838,298.609 -66.278,300.176L-60.06,306.394L-57.108,308.322C-57.101,308.326 -57.095,308.331 -57.088,308.336C-54.009,310.432 -53.851,310.58 -52.915,312.444C-51.053,313.392 -49.183,314.325 -47.307,315.245C-47.181,315.306 -47.066,315.389 -46.967,315.488L-43.257,319.198L-40.599,319.631L-40.591,319.633L-37.653,320.133C-37.253,320.201 -36.91,320.456 -36.728,320.819L-35.979,322.318L-29.517,324.164C-29.174,324.262 -28.888,324.499 -28.728,324.819C-28.728,324.819 -27.944,326.386 -27.944,326.386C-26.171,327.096 -25.997,327.142 -23.6,327.783C-23.592,327.785 -23.583,327.788 -23.574,327.79L-20.859,328.579L-20.855,328.581C-18.8,329.185 -18.801,329.189 -16.916,329.116C-16.57,329.102 -16.234,329.23 -15.984,329.47C-15.735,329.711 -15.594,330.042 -15.594,330.388C-15.594,330.388 -15.594,331.115 -15.594,331.115L-8.867,331.115C-8.385,331.115 -7.944,331.387 -7.728,331.819L-7.185,332.905L-4.176,332.153C-3.597,332.008 -2.995,332.285 -2.728,332.819L-2.222,333.831L-0.27,333.18C0.119,333.051 0.546,333.116 0.878,333.355C1.21,333.595 1.406,333.979 1.406,334.388C1.406,334.388 1.406,335.089 1.406,335.089L1.865,335.08C1.869,335.08 1.873,335.08 1.876,335.08C5.385,335.039 8.692,335.018 12.161,335.633C19.916,336.847 27.854,336.173 35.622,335.341C35.629,335.34 35.635,335.34 35.641,335.339C37.777,335.142 38.027,335.118 40.86,335.115L40.86,334.388C40.86,333.996 41.04,333.626 41.349,333.385C41.658,333.143 42.061,333.058 42.442,333.153L44.86,333.757L44.86,333.388C44.86,333.007 45.031,332.645 45.326,332.403C45.621,332.162 46.009,332.065 46.383,332.14L49.86,332.835L49.86,332.388C49.86,331.685 50.43,331.115 51.133,331.115L57.86,331.115L57.86,330.388C57.86,329.744 58.341,329.201 58.981,329.124C58.981,329.124 62.08,328.752 62.088,328.751C65.192,328.248 67.947,327.515 70.86,326.492L70.86,325.388C70.86,324.804 71.257,324.295 71.824,324.153L78.86,322.394L78.86,321.388C78.86,320.749 79.334,320.208 79.968,320.126L82.843,319.751C82.853,319.749 82.863,319.748 82.873,319.747C84.24,319.601 84.932,319.575 85.477,319.295C86.007,319.024 86.366,318.515 87.157,317.57C87.204,317.515 87.255,317.463 87.311,317.416C90.076,315.076 92.065,313.455 95.442,312.279L97.733,309.988C100.374,307.346 100.458,307.272 103.442,306.276C104.795,304.909 104.864,304.82 106.321,302.974C106.329,302.964 106.338,302.953 106.347,302.943C109.477,299.226 112.821,296.127 116.593,293.071C118.285,291.425 118.992,290.006 119.975,287.858C119.997,287.81 120.022,287.763 120.05,287.718C121.032,286.131 122.04,284.558 123.069,283.001L124.63,280.617C124.645,280.595 124.659,280.573 124.675,280.552C126.111,278.629 126.28,278.408 127.86,277.603L127.86,275.388C127.86,274.906 128.132,274.465 128.564,274.249C128.564,274.249 130.216,273.423 130.217,273.422C135.257,264.466 139.456,254.042 141.896,244.085C141.902,244.06 141.909,244.035 141.917,244.011L143.042,240.386C143.05,240.36 143.059,240.334 143.069,240.309C143.417,239.397 143.664,238.76 143.8,238.259C143.876,237.976 143.92,237.772 143.873,237.566C143.78,237.153 143.487,236.756 143.054,236.065C142.863,235.76 142.81,235.39 142.907,235.044C143.004,234.698 143.242,234.41 143.564,234.249C143.564,234.249 144.839,233.612 144.839,233.612L144.798,232.047C144.797,232.025 144.797,232.004 144.798,231.983C144.865,229.149 144.876,229.056 145.885,227.037C145.991,225.793 146.087,224.554 146.172,223.314L145.994,222.958C145.729,222.428 145.868,221.802 146.295,221.429C146.341,220.666 146.384,219.901 146.424,219.135L146.424,219.127L146.555,216.877C146.89,210.806 147.132,204.784 146.37,198.735C146.37,198.735 146.367,198.711 146.365,198.7L145.994,197.958C145.77,197.509 145.835,196.991 146.119,196.617C146.013,195.633 145.928,194.656 145.887,193.662L145.133,193.662C144.759,193.662 144.403,193.497 144.161,193.211C143.92,192.926 143.815,192.548 143.877,192.179C143.877,192.179 144.63,187.662 144.63,187.662L144.133,187.662C143.792,187.662 143.464,187.524 143.225,187.281C142.986,187.037 142.854,186.708 142.86,186.367L142.922,182.68C143.012,176.827 143.016,176.825 140.052,172.061C139.991,171.963 139.943,171.857 139.911,171.746C139.264,169.532 139.263,169.531 138.76,167.016L138.253,164.542C138.252,164.538 138.251,164.533 138.25,164.528L138.082,163.662L137.133,163.662C136.527,163.662 136.006,163.235 135.885,162.641C135.885,162.641 135.57,161.091 135.568,161.083C134.714,158.065 133.466,155.334 132.162,152.48L132.16,152.474C132.16,152.474 130.656,149.137 130.649,149.125C129.084,146.142 127.264,143.798 125.145,141.191C124.96,140.964 124.86,140.681 124.86,140.388C124.86,140.388 124.86,138.904 124.86,138.904C123.673,137.685 122.466,136.487 121.246,135.302C121.193,135.25 121.144,135.194 121.101,135.134L119.491,132.905C119.491,132.905 118.514,131.662 118.514,131.662L117.133,131.662C116.43,131.662 115.86,131.091 115.86,130.388C115.86,130.388 115.86,127.869 115.86,127.869C114.367,126.178 114.245,126.07 112.29,124.342C112.27,124.325 112.251,124.307 112.233,124.289L110.278,122.334L107.265,119.875C107.259,119.869 107.252,119.864 107.245,119.858C104.445,117.475 104.121,117.172 103.348,115.662L101.133,115.662C100.43,115.662 99.86,115.091 99.86,114.388C99.86,114.388 99.86,112.984 99.859,112.983C97.963,111.429 95.984,110.186 93.857,108.92C93.854,108.918 93.851,108.917 93.849,108.915C91.431,107.452 91.346,107.401 89.448,105.504L86.675,104.599C86.67,104.597 86.665,104.595 86.66,104.594C84.569,103.882 83.769,103.52 83.179,102.894C82.846,102.541 82.575,102.091 82.214,101.392C80.625,100.758 80.453,100.711 78.295,100.116C78.289,100.114 78.283,100.112 78.277,100.111C75.753,99.376 75.753,99.376 73.676,98.577C73.379,98.463 73.136,98.242 72.994,97.958C72.994,97.958 72.218,96.405 72.218,96.405C69.968,95.569 67.741,94.814 65.445,94.105L65.439,94.103C57.391,91.576 57.332,91.55 53.62,89.558C52.359,89.115 51.723,88.86 51.09,88.86C50.447,88.86 49.828,89.127 48.568,89.585C47.96,89.806 47.283,89.536 46.994,88.958C46.994,88.958 46.292,87.553 46.292,87.553C44.011,87.225 43.757,87.216 40.648,87.098C40.641,87.098 40.634,87.098 40.627,87.097C34.118,86.747 33.891,86.691 31.805,85.648C30.103,85.574 28.398,85.555 26.694,85.564L26.692,85.564L23.433,85.574L20.018,85.599L20.013,85.599L16.572,85.613C14.174,85.623 11.777,85.636 9.379,85.653C9.264,86.197 8.8,86.617 8.224,86.658L-4.594,87.574L-4.594,88.388C-4.594,88.802 -4.795,89.191 -5.133,89.429C-5.472,89.668 -5.905,89.727 -6.295,89.587C-6.295,89.587 -7.935,89.002 -7.937,89.001C-10.335,88.628 -11.11,89.376 -13.274,90.515C-13.321,90.54 -13.371,90.562 -13.422,90.581C-14.783,91.089 -16.155,91.573 -17.534,92.032L-19.802,92.805L-19.806,92.806C-21.38,93.336 -22.954,93.863 -24.53,94.386C-24.554,94.394 -24.579,94.401 -24.604,94.408C-28.443,95.43 -28.447,95.424 -30.91,98.229C-31.048,98.385 -31.222,98.506 -31.417,98.579C-34.433,99.719 -37.472,100.637 -40.594,101.395L-40.594,102.388C-40.594,102.988 -41.012,103.506 -41.598,103.633C-41.598,103.633 -44.748,104.312 -44.764,104.317C-48.461,105.356 -50.329,107.426 -52.93,110.251C-53.171,110.513 -53.511,110.662 -53.867,110.662C-53.867,110.662 -55.42,110.662 -55.42,110.662C-56.529,111.552 -56.703,111.726 -57.594,112.835L-57.594,114.388C-57.594,115.091 -58.164,115.662 -58.867,115.662C-58.867,115.662 -61.356,115.662 -61.356,115.662C-62.496,116.757 -62.606,116.907 -63.843,118.582C-63.849,118.59 -63.855,118.598 -63.861,118.606C-66.668,122.225 -66.812,122.375 -69.979,123.435C-70.583,124.586 -71.162,125.751 -71.714,126.929C-71.836,127.188 -72.041,127.399 -72.297,127.527L-73.594,128.175L-73.594,130.388C-73.594,131.091 -74.164,131.662 -74.867,131.662C-74.867,131.662 -76.257,131.662 -76.258,131.662C-77.151,132.785 -78,133.946 -78.825,135.12C-78.844,135.147 -78.864,135.173 -78.885,135.199C-78.885,135.199 -80.934,137.683 -80.941,137.691C-82.534,139.751 -83.597,141.615 -84.72,143.942C-84.782,144.07 -84.866,144.188 -84.967,144.289C-84.967,144.289 -86.837,146.159 -86.838,146.161C-88.057,148.39 -89.221,150.619 -90.352,152.893C-90.354,152.897 -90.356,152.902 -90.359,152.907L-91.34,154.821C-92.692,157.522 -93.594,159.326 -93.594,162.388C-93.594,162.87 -93.866,163.311 -94.297,163.527C-94.297,163.527 -95.863,164.31 -95.863,164.31C-96.538,166.014 -96.584,166.191 -97.198,168.524C-97.2,168.533 -97.202,168.541 -97.205,168.55C-97.205,168.55 -97.956,171.185 -97.959,171.194C-98.54,173.356 -99.093,175.522 -99.631,177.694C-99.635,177.711 -99.639,177.727 -99.644,177.743C-99.644,177.743 -100.193,179.635 -100.196,179.647C-100.67,181.919 -100.658,184.034 -100.594,186.353C-100.58,186.848 -100.855,187.306 -101.297,187.527C-101.297,187.527 -102.428,188.092 -102.428,188.092L-101.618,192.138C-101.543,192.513 -101.64,192.9 -101.882,193.195C-102.124,193.491 -102.485,193.662 -102.867,193.662C-102.867,193.662 -103.569,193.662 -103.569,193.662L-103.531,195.614C-103.531,195.629 -103.531,195.644 -103.531,195.659C-103.597,199.606 -103.611,199.625 -104.131,201.5C-105.543,207.736 -105.339,215.377 -104.502,222.27Z" style="fill:rgb(16,16,16);fill-rule:nonzero;"/>
        </g>
        <g transform="matrix(0.671071,-0.741393,0.741393,0.671071,95.9813,130.966)">
            <path d="M-12.248,97.536C-10.066,97.177 -8.402,95.283 -8.402,93L-8.402,92.729C-8.359,92.685 -8.316,92.641 -8.272,92.598C-8.271,92.598 -8,92.598 -8,92.598C-5.461,92.598 -3.402,90.539 -3.402,88L-3.402,83.863C-2.754,83.048 -2.398,82.032 -2.402,80.98L-2.418,77.249C-2.436,72.694 -2.448,68.139 -2.457,63.583L-2.457,63.581C-2.462,61.603 -2.469,59.626 -2.478,57.648C-2.49,54.818 -2.495,51.987 -2.5,49.157C-2.5,49.15 -2.5,49.144 -2.5,49.137L-2.516,46.462C-2.516,41.761 -2.727,41.735 -1.888,40.056C-1.573,39.427 -1.407,38.734 -1.402,38.031C-1.388,35.895 -1.437,33.758 -1.518,31.623C-1.518,31.611 -1.609,27.845 -1.609,27.845L-1.609,27.842C-1.674,25.181 -1.77,22.526 -1.882,19.865C-1.973,14.926 -1.688,11.27 0.147,7.691C1.359,10.047 1.723,12.554 1.792,16.018C1.766,18.641 1.72,21.228 1.654,23.82C1.653,23.836 1.653,23.853 1.653,23.87C1.633,25.237 1.614,26.605 1.598,27.972C1.551,31.277 1.486,34.581 1.404,37.886C1.377,38.969 1.733,40.022 2.402,40.863L2.402,82C2.402,83.082 2.776,84.078 3.402,84.863L3.402,88C3.402,90.539 5.461,92.598 8,92.598L8.271,92.598C8.315,92.641 8.359,92.684 8.402,92.728C8.402,92.729 8.402,93 8.402,93C8.402,94.742 9.386,96.334 10.944,97.112L11.986,97.633C13.661,100.034 13.86,102.266 13.77,105.262C13.317,107.865 12.291,109.524 10.797,111.59C9.833,112.204 9.657,112.281 8.593,112.623C7.542,112.961 6.679,113.652 6.116,114.54C4.926,114.242 3.65,114.429 2.583,115.089C1.811,115.566 1.212,116.25 0.838,117.045C0.179,117.148 -0.321,117.205 -0.763,117.214C-1.087,116.447 -1.617,115.771 -2.312,115.27C-3.415,114.475 -4.808,114.212 -6.116,114.54C-6.679,113.652 -7.542,112.961 -8.593,112.623L-9.723,112.26C-11.671,110.862 -12.668,109.064 -13.524,106.839C-14.018,103.324 -13.661,100.52 -12.248,97.536ZM-6.742,98.009C-6.937,98.176 -7.118,98.359 -7.282,98.557L-8.532,100.057C-9.613,101.354 -9.896,103.14 -9.269,104.708L-7.269,109.708C-6.571,111.453 -4.88,112.598 -3,112.598L3,112.598C4.979,112.598 6.736,111.331 7.362,109.454L9.362,103.454C10.017,101.487 9.276,99.325 7.55,98.174C4.593,96.203 2.082,95.137 -0.412,95.248C-2.361,95.335 -4.443,96.038 -6.742,98.009Z" style="fill:rgb(31,31,31);fill-rule:nonzero;"/>
        </g>
        <g transform="matrix(0.671071,-0.741393,0.741393,0.671071,248.849,272.032)">
            <path d="M1.414,14.239C1.386,13.861 1.355,13.385 1.332,12.87C1.332,12.858 1.34,9.068 1.34,9.068L1.34,9.057L1.332,5.27C1.397,3.688 1.409,3.082 1.6,2.465L2.331,2.465C2.954,4.601 2.62,6.693 2.598,9.103L2.598,9.108L2.571,12.985L2.559,14.011C2.178,14.089 1.796,14.165 1.414,14.239Z" style="fill:rgb(122,122,122);fill-rule:nonzero;"/>
        </g>
        <g transform="matrix(0.671071,-0.741393,0.741393,0.671071,93.7731,282.142)">
            <path d="M0.013,2.465C0.019,2.465 0.024,2.465 0.03,2.465L3.482,2.423C4.48,2.494 5.003,2.468 5.434,2.66C5.668,2.764 5.859,2.934 6.098,3.179C6.098,3.179 6.098,3.522 6.098,3.522C4.155,4.096 2.309,3.853 0.068,3.848L0.057,3.848L-3.417,3.855C-4.471,3.809 -5.049,3.788 -5.516,3.704C-5.369,3.297 -5.196,2.992 -4.949,2.775C-4.694,2.552 -4.342,2.557 -3.904,2.518C-2.899,2.43 -1.629,2.474 0.013,2.465Z" style="fill:rgb(100,100,100);fill-rule:nonzero;"/>
        </g>
        <g transform="matrix(0.671071,-0.741393,0.741393,0.671071,243.827,116.498)">
            <path d="M8.299,3.694C7.974,3.718 7.577,3.744 7.151,3.765C7.132,3.766 3.626,3.758 3.626,3.758L3.616,3.758L0.114,3.766C-0.962,3.718 -1.549,3.698 -2.022,3.613C-1.895,3.158 -1.787,2.794 -1.725,2.587C-1.377,2.553 -0.663,2.491 0.018,2.466L0.032,2.465L3.597,2.5L3.603,2.5L7.225,2.527L8.069,2.538C8.148,2.922 8.225,3.308 8.299,3.694Z" style="fill:rgb(94,94,94);fill-rule:nonzero;"/>
        </g>
        <g transform="matrix(0.671071,-0.741393,0.741393,0.671071,53.4929,173.436)">
            <path d="M5.341,12.912C2.751,10.113 1.35,6.555 -0.002,2.964C-0.002,2.963 0.388,2.703 0.388,2.703C0.747,2.82 1.007,2.928 1.219,3.107C1.609,3.437 1.794,3.97 2.304,4.933C2.312,4.952 3.77,8.049 3.77,8.049C3.832,8.182 3.906,8.308 3.991,8.428C4.694,9.418 5.41,10.401 6.15,11.364C5.825,12.118 5.617,12.582 5.341,12.912Z" style="fill:rgb(103,103,103);fill-rule:nonzero;"/>
        </g>
        <g transform="matrix(0.671071,-0.741393,0.741393,0.671071,133.35,85.2107)">
            <path d="M0.465,2.988L1.019,3.265C-0.154,6.739 -1.628,9.778 -3.608,12.937C-3.609,12.938 -4.636,13.281 -4.636,13.281L-5.092,12.976C-3.833,9.177 -2.291,5.894 0.465,2.988Z" style="fill:rgb(100,100,100);fill-rule:nonzero;"/>
        </g>
        <g transform="matrix(0.671071,-0.741393,0.741393,0.671071,81.3645,121.782)">
            <path d="M2.465,2.465L3.535,2.465L3.535,11.535L2.465,11.535L2.465,2.465Z" style="fill:rgb(108,108,108);fill-rule:nonzero;"/>
        </g>
        <g transform="matrix(0.671071,-0.741393,0.741393,0.671071,272.565,165.362)">
            <path d="M9.61,8.604C8.827,8.227 8.045,7.849 7.263,7.47L7.255,7.466L4.619,6.199C3.159,5.378 2.058,4.595 0.978,3.555C0.978,3.555 1.197,3.117 1.197,3.117C4.106,4.34 6.793,5.818 9.535,7.413C9.535,7.413 9.535,8 9.535,8C9.535,8.207 9.561,8.409 9.61,8.604Z" style="fill:rgb(99,99,99);fill-rule:nonzero;"/>
        </g>
        <g transform="matrix(0.671071,-0.741393,0.741393,0.671071,204.916,299.706)">
            <path d="M-6.911,9.443C-6.609,8.864 -6.307,8.284 -6.004,7.706C-6.002,7.702 -6,7.698 -5.998,7.695L-4.469,4.739C-3.86,3.793 -3.411,3.166 -2.769,2.834C-2.443,2.664 -2.081,2.573 -1.661,2.523C-1.608,2.789 -1.57,3.106 -1.521,3.575C-2.357,5.321 -3.326,6.907 -4.355,8.535C-4.355,8.535 -5,8.535 -5,8.535C-5.771,8.535 -6.459,8.889 -6.911,9.443ZM-7.374,10.336C-7.433,10.547 -7.465,10.77 -7.465,11L-7.465,11.072C-7.532,11.018 -7.603,10.968 -7.677,10.921C-7.576,10.726 -7.475,10.531 -7.374,10.336Z" style="fill:rgb(91,91,91);fill-rule:nonzero;"/>
        </g>
        <g transform="matrix(0.671071,-0.741393,0.741393,0.671071,55.8456,234.914)">
            <path d="M1.142,4.185C1.416,4.041 1.659,3.848 1.86,3.617C4.627,4.942 6.479,5.856 7.768,6.617C9.318,7.534 9.768,8.167 10.232,9.27C9.887,9.312 9.6,9.252 9.108,9.091C6.255,7.592 3.645,6.058 1.142,4.185Z" style="fill:rgb(92,92,92);fill-rule:nonzero;"/>
        </g>
        <g transform="matrix(0.671071,-0.741393,0.741393,0.671071,146.404,304.743)">
            <path d="M-8.304,9.193C-8.216,8.726 -8.09,8.26 -7.862,7.472C-6.623,6.538 -6.365,6.413 -4.42,5.466C-4.413,5.462 -4.405,5.458 -4.398,5.454L-0.093,3.302C0.014,3.473 0.14,3.63 0.284,3.769C-1.617,6.276 -4.559,7.541 -7.641,9.007C-7.875,9.076 -8.108,9.14 -8.304,9.193Z" style="fill:rgb(96,96,96);fill-rule:nonzero;"/>
        </g>
        <g transform="matrix(0.671071,-0.741393,0.741393,0.671071,275.378,221.86)">
            <path d="M3.662,8.781C3.489,8.448 3.305,8.091 3.099,7.706C2.281,6.049 1.541,4.355 0.866,2.62C0.866,2.62 0.94,2.546 0.94,2.546C1.421,2.607 1.73,2.707 2.33,2.962C3.371,4.663 3.535,5.722 3.535,8C3.535,8.271 3.58,8.534 3.662,8.781ZM4.039,9.492C4.332,9.878 4.739,10.178 5.221,10.338L7.045,10.946C7.155,11.296 7.228,11.558 7.292,11.843C7.292,11.843 6.707,12.233 6.707,12.233C5.336,11.57 4.707,10.717 4.039,9.492Z" style="fill:rgb(83,83,83);fill-rule:nonzero;"/>
        </g>
        <g transform="matrix(0.671071,-0.741393,0.741393,0.671071,194.757,81.4455)">
            <path d="M-2.18,6.324L-3.865,7.507C-5.706,8.555 -7.163,9.145 -9.092,9.422C-9.092,9.422 -9.101,9.414 -9.101,9.414C-8.584,8.352 -7.982,7.77 -6.584,7.049C-4.682,6.477 -4.628,6.465 -3,6.465C-2.715,6.465 -2.438,6.416 -2.18,6.324ZM-1.101,5.571C-0.911,5.341 -0.76,5.075 -0.662,4.779L-0.409,4.022C-0.125,4.22 0.2,4.358 0.546,4.423C-0.002,4.807 -0.551,5.19 -1.101,5.571Z" style="fill:rgb(86,86,86);fill-rule:nonzero;"/>
        </g>
        <g transform="matrix(0.671071,-0.741393,0.741393,0.671071,-17.3091,187.581)">
            <path d="M0,0C0.66,0.33 1.32,0.66 2,1C-2.87,6.703 -7.95,12.133 -13.25,17.438C-13.956,18.156 -14.663,18.875 -15.391,19.615C-16.071,20.298 -16.752,20.98 -17.453,21.684C-18.063,22.298 -18.673,22.912 -19.302,23.545C-21,25 -21,25 -24,26C-22.415,22.137 -19.94,19.711 -16.992,16.797C-16.507,16.314 -16.021,15.832 -15.521,15.334C-13.977,13.801 -12.426,12.276 -10.875,10.75C-9.824,9.709 -8.773,8.667 -7.723,7.625C-5.154,5.078 -2.579,2.537 0,0Z" style="fill:rgb(114,114,114);fill-rule:nonzero;"/>
        </g>
        <g transform="matrix(0.671071,-0.741393,0.741393,0.671071,150.352,170.738)">
            <rect x="0" y="0" width="1" height="13" style="fill:rgb(250,250,250);fill-rule:nonzero;"/>
        </g>
        <g transform="matrix(0.671071,-0.741393,0.741393,0.671071,141.027,182.53)">
            <rect x="0" y="0" width="1" height="11" style="fill:rgb(250,250,250);fill-rule:nonzero;"/>
        </g>
        <g transform="matrix(0.671071,-0.741393,0.741393,0.671071,81.2238,118.957)">
            <path d="M0,0L3,1L0,0Z" style="fill:rgb(251,251,251);fill-rule:nonzero;"/>
        </g>
    </g>
</svg>
