<?xml version="1.0" encoding="UTF-8"?>
<svg version="1.1" xmlns="http://www.w3.org/2000/svg" width="47" height="42">
<path d="M0 0 C3.94038746 1.31346249 4.30110887 2.79888915 6.28515625 6.390625 C6.89810547 7.49277344 7.51105469 8.59492188 8.14257812 9.73046875 C8.45783447 10.30845215 8.77309082 10.88643555 9.09790039 11.48193359 C10.05380498 13.23406243 11.02391858 14.9784148 11.99414062 16.72265625 C14.58453019 21.41210753 17.10717284 25.97931769 19 31 C17.02 31.99 17.02 31.99 15 33 C14.35933594 31.91203125 13.71867187 30.8240625 13.05859375 29.703125 C12.64270996 28.99687988 12.22682617 28.29063477 11.79833984 27.56298828 C10.88759805 26.01502134 9.97777402 24.46651408 9.06884766 22.91748047 C6.98718413 19.37031401 4.90159452 15.82654877 2.77734375 12.3046875 C2.14957031 11.25539063 1.52179687 10.20609375 0.875 9.125 C0.31554687 8.19945312 -0.24390625 7.27390625 -0.8203125 6.3203125 C-2 4 -2 4 -2 1 C-1.34 0.67 -0.68 0.34 0 0 Z " fill="#F97316" transform="translate(28,0)"/>
<path d="M0 0 C2.0625 0.4375 2.0625 0.4375 4 1 C3.40331659 5.30645445 1.85757179 8.39093156 -0.30859375 12.140625 C-0.63537613 12.70827576 -0.96215851 13.27592651 -1.29884338 13.86077881 C-1.98723763 15.05271871 -2.67911135 16.24265514 -3.37426758 17.43066406 C-4.43933724 19.25314376 -5.49085362 21.08296051 -6.54101562 22.9140625 C-7.2127519 24.07337464 -7.88525145 25.23224492 -8.55859375 26.390625 C-9.17017334 27.44282227 -9.78175293 28.49501953 -10.41186523 29.57910156 C-12 32 -12 32 -14 33 C-14.99 32.34 -15.98 31.68 -17 31 C-15.55870627 27.15596254 -13.78609665 23.65643805 -11.77734375 20.078125 C-11.15666016 18.97082031 -10.53597656 17.86351562 -9.89648438 16.72265625 C-9.25001953 15.57667969 -8.60355469 14.43070313 -7.9375 13.25 C-7.280357 12.07695843 -6.62345358 10.90378261 -5.96679688 9.73046875 C-1.13784004 1.13784004 -1.13784004 1.13784004 0 0 Z " fill="#F97316" transform="translate(17,0)"/>
<path d="M0 0 C11.55 0 23.1 0 35 0 C35 1.32 35 2.64 35 4 C23.45 4 11.9 4 0 4 C0 2.68 0 1.36 0 0 Z " fill="#F97316" transform="translate(6,38)"/>
</svg>
