<?xml version="1.0" encoding="UTF-8" standalone="no"?>
<!DOCTYPE svg PUBLIC "-//W3C//DTD SVG 1.1//EN" "http://www.w3.org/Graphics/SVG/1.1/DTD/svg11.dtd">
<svg width="100%" height="100%" viewBox="0 0 300 262" version="1.1" xmlns="http://www.w3.org/2000/svg" xmlns:xlink="http://www.w3.org/1999/xlink" xml:space="preserve" xmlns:serif="http://www.serif.com/" style="fill-rule:evenodd;clip-rule:evenodd;stroke-linejoin:round;stroke-miterlimit:2;">
    <g transform="matrix(1,0,0,1,136,19)">
        <path d="M-90.191,177.922C-90.219,177.889 -90.253,177.85 -90.29,177.807C-91.07,174.977 -91.512,172.153 -91.964,169.239C-91.967,169.219 -91.971,169.199 -91.974,169.179C-95.254,150.349 -103.554,135.214 -116.127,120.902C-131.016,103.863 -132.971,85.219 -131.687,63.3C-129.935,48.88 -124.336,36.409 -115.389,25.058C-115.379,25.046 -115.369,25.033 -115.359,25.02L-113.466,22.546C-112.31,21.04 -111.143,19.543 -109.962,18.056L-109.954,18.046C-108.658,16.4 -107.416,14.71 -106.19,13.011C-102.403,9.109 -97.984,6.623 -93.31,3.863C-93.295,3.855 -93.28,3.846 -93.266,3.837L-89.87,1.762C-63.085,-14.364 -30.239,-13.444 -3.325,1.909L-3.325,2C-3.325,3.454 -2.38,4.74 -0.992,5.174L0.803,5.735C16.957,13.236 26.667,30.205 32.657,46.231C39.061,64.472 40.093,87.892 31.79,105.668C30.928,107.235 30.045,108.777 29.139,110.305C29.133,110.316 29.127,110.327 29.12,110.338L27.575,113.015C24.151,118.676 20.251,123.437 15.763,128.284C15.751,128.297 15.739,128.31 15.727,128.323C8.81,136.038 4.488,144.13 0.899,153.799C0.894,153.809 0.021,155.937 0.021,155.937C0.011,155.961 0.002,155.986 -0.008,156.01C-2.286,161.962 -2.967,167.979 -3.49,174.293C-3.611,175.532 -3.801,176.763 -4.016,177.99C-5.19,178.693 -5.693,178.675 -8,178.675C-8.89,178.675 -9.743,179.032 -10.368,179.665C-10.993,180.299 -11.337,181.157 -11.325,182.047L-11.293,184.287C-11.251,187.679 -11.226,191.071 -11.2,194.463C-11.2,194.47 -11.2,194.478 -11.2,194.485L-11.149,197.999C-11.078,211.019 -13.678,219.24 -22.554,229.075C-30.234,236.356 -39.346,239.067 -49.793,238.95C-59.233,238.067 -67.734,233.695 -74.313,226.922C-80.14,219.658 -82.818,211.074 -82.773,201.841L-82.773,201.833L-82.763,198.335L-82.737,194.711L-82.737,194.7L-82.724,191.011C-82.712,188.015 -82.696,185.019 -82.675,182.023C-82.663,180.352 -83.894,178.932 -85.549,178.706L-88.373,178.319C-89.147,178.166 -89.921,177.986 -90.191,177.922ZM-83.402,1.983L-85.621,2.908C-85.639,2.916 -85.658,2.924 -85.677,2.932C-93.987,6.582 -99.939,12.337 -106.322,18.62L-109.046,21.254C-109.075,21.282 -109.103,21.311 -109.131,21.339C-111.564,23.869 -113.204,26.363 -114.843,29.456C-115.848,31.279 -115.854,31.286 -117.173,33.265C-117.177,33.271 -117.181,33.276 -117.184,33.282C-128.246,50.1 -131.137,72.481 -127.588,92.088C-127.576,92.157 -127.561,92.225 -127.545,92.292C-125.603,100.164 -122.784,107.779 -117.567,114.114C-116.959,114.852 -116.065,115.291 -115.113,115.323C-112.369,120.499 -108.843,125.126 -105.276,129.758C-103.737,131.823 -102.205,133.893 -100.68,135.969C-100.676,135.974 -100.672,135.978 -100.669,135.983L-99.011,138.215C-92.29,148.257 -90.115,161.25 -87.226,172.806C-86.856,174.287 -85.526,175.325 -84,175.325L-10,175.325C-8.474,175.325 -7.144,174.287 -6.774,172.806L-1.814,152.965C3.348,138.553 9.887,128.913 20.231,117.779C21.435,116.531 21.9,115.803 22.158,115.043C22.226,114.842 22.281,114.632 22.321,114.398C22.321,114.398 23.051,114.154 23.051,114.154C23.753,113.921 24.356,113.46 24.766,112.846C35.768,96.356 35.428,73.257 32.216,54.319C32.203,54.245 32.188,54.171 32.17,54.098C29.043,41.091 22.43,30.512 13.459,20.761C13.459,20.761 11.991,19.134 11.991,19.134L11.982,19.124C4.563,10.967 -2.35,4.907 -12.809,0.895L-14.891,0.096L-14.904,0.091C-37.905,-8.634 -60.992,-9.289 -83.39,1.977L-83.402,1.983ZM-77,178.675C-78.836,178.675 -80.325,180.164 -80.325,182L-80.325,192C-80.325,193.836 -78.836,195.325 -77,195.325L-18,195.325C-16.164,195.325 -14.675,193.836 -14.675,192L-14.675,182C-14.675,180.164 -16.164,178.675 -18,178.675L-77,178.675ZM-77,198.675C-78.833,198.675 -80.32,200.158 -80.325,201.991C-80.341,208.229 -80.326,208.226 -78.036,213.355C-77.528,214.495 -76.424,215.254 -75.178,215.32C-73.368,215.417 -71.555,215.443 -69.743,215.439L-66.348,215.438L-66.335,215.438L-62.643,215.423L-58.886,215.418C-55.578,215.414 -52.27,215.405 -48.962,215.394C-45.592,215.384 -42.222,215.379 -38.852,215.374C-32.231,215.363 -25.61,215.346 -18.989,215.325C-17.285,215.32 -15.861,214.027 -15.691,212.331L-14.691,202.331C-14.598,201.396 -14.904,200.465 -15.535,199.769C-16.165,199.072 -17.061,198.675 -18,198.675L-77,198.675ZM-69,217.675C-70.277,217.675 -71.441,218.406 -71.996,219.557C-72.55,220.707 -72.396,222.073 -71.601,223.072C-67.2,228.596 -67.192,228.586 -61.528,231.67C-61.474,231.699 -61.42,231.727 -61.365,231.753L-58.767,232.988C-58.733,233.004 -58.698,233.02 -58.664,233.035C-50.585,236.541 -43.548,235.811 -35.377,233.15C-35.298,233.124 -35.22,233.096 -35.143,233.064C-31.108,231.407 -28.171,229.363 -24.845,226.532C-24.383,226.139 -24.037,225.627 -23.846,225.051L-22.846,222.051C-22.508,221.038 -22.678,219.923 -23.303,219.056C-23.927,218.189 -24.931,217.675 -26,217.675L-69,217.675Z" style="fill:rgb(4,4,4);fill-rule:nonzero;"/>
    </g>
    <g transform="matrix(1,0,0,1,188.537,0.277953)">
        <path d="M-1.211,104.085C-1.308,103.953 -1.56,103.609 -1.863,103.181C-1.786,102.147 -1.695,101.71 -1.315,99.86L-0.727,96.979C0.357,92.324 1.598,87.722 2.93,83.132C3.226,82.113 3.041,81.014 2.428,80.148C1.814,79.282 0.84,78.743 -0.219,78.683L-2.201,78.572C-9.517,78.028 -10.03,78.187 -12.586,76.004C-13.98,72.959 -14.186,70.346 -14.191,66.9L-14.191,66.888L-14.21,63.139C-14.206,61.798 -14.202,60.456 -14.198,59.114C-14.198,59.109 -14.198,59.104 -14.198,59.099C-14.199,57.708 -14.201,56.317 -14.203,54.925C-14.206,52.019 -14.202,49.114 -14.193,46.208C-14.181,42.481 -14.188,38.755 -14.2,35.028C-14.207,32.162 -14.205,29.296 -14.2,26.429L-14.2,26.427C-14.198,25.051 -14.2,23.676 -14.205,22.301C-14.21,20.388 -14.201,18.476 -14.191,16.564L-14.191,16.551L-14.186,13.387C-13.922,10.211 -13.606,7.441 -11.381,5.169C-7.689,3.189 -4.132,3.489 0.005,3.483C0.01,3.483 0.015,3.483 0.02,3.483L2.621,3.468C5.462,3.454 8.302,3.447 11.142,3.441L11.146,3.441L17.075,3.424C21.22,3.413 25.365,3.408 29.51,3.404C34.824,3.399 40.138,3.375 45.452,3.346C49.531,3.327 53.61,3.322 57.689,3.321L57.693,3.321C59.657,3.318 61.62,3.31 63.583,3.297C66.312,3.28 69.042,3.281 71.773,3.288C71.789,3.288 71.805,3.288 71.821,3.288L74.228,3.26C78.85,3.298 82.231,4.184 85.874,7.098C87.707,9.642 87.229,12.342 87.231,15.423L87.231,15.429L87.24,19.336C87.239,20.745 87.237,22.153 87.234,23.562L87.234,23.569C87.235,25.015 87.236,26.461 87.237,27.907C87.239,30.934 87.237,33.961 87.232,36.988C87.226,40.875 87.229,44.763 87.235,48.65C87.239,51.633 87.238,54.616 87.235,57.599C87.235,59.034 87.235,60.469 87.238,61.904C87.24,63.899 87.236,65.896 87.231,67.893L87.231,67.899L87.229,71.273C87.142,73.175 87.117,73.505 86.626,75.014C82.764,77.787 79.817,78.812 74.869,78.725C74.863,78.725 74.858,78.725 74.853,78.725L71.991,78.688L68.912,78.643C68.899,78.643 68.885,78.643 68.872,78.643C66.699,78.637 64.526,78.634 62.353,78.633C58.985,78.631 55.619,78.616 52.25,78.553C36.023,77.733 36.01,77.752 22.184,84.903C21.784,85.11 21.428,85.392 21.135,85.735C19.718,87.394 18.335,89.084 17,90.81C15.762,91.963 14.502,93.096 13.21,94.189C13.203,94.196 13.195,94.202 13.188,94.209L11.29,95.842L9.33,97.506C9.32,97.515 9.309,97.524 9.299,97.533L7.045,99.494C2.497,103.284 2.209,103.655 -0.726,104.22C-0.935,104.163 -1.112,104.114 -1.211,104.085ZM5.988,77.454C5.904,78.952 5.797,80.448 5.675,81.942L5.675,81.95L5.367,85.851L5.114,88.87C4.992,90.326 5.791,91.703 7.116,92.32C8.441,92.936 10.009,92.659 11.044,91.628C13.57,89.109 16.071,86.598 18.47,83.958C28.456,74.565 40.162,76.384 53.203,76.644C53.217,76.644 53.231,76.644 53.245,76.644C56.852,76.673 60.458,76.687 64.065,76.694C66.277,76.702 68.488,76.726 70.7,76.766C70.707,76.766 70.713,76.767 70.72,76.767L73.736,76.804L76.391,76.855C76.416,76.855 76.441,76.856 76.466,76.856C78.498,76.85 79.483,76.641 80.377,76.162C81.158,75.743 81.944,75.02 83.294,73.351C83.712,72.834 83.973,72.208 84.046,71.547C84.362,68.716 84.366,68.706 84.295,65.389L84.295,61.786C84.295,61.777 84.294,61.768 84.294,61.759L84.263,57.822C84.259,56.484 84.257,55.147 84.255,53.809L84.255,53.806C84.247,50.267 84.227,46.729 84.205,43.19C84.185,39.587 84.176,35.984 84.166,32.381C84.144,25.301 84.11,18.221 84.068,11.14C84.06,9.829 83.316,8.632 82.142,8.046C78.492,6.22 74.599,6.53 70.591,6.533L68.095,6.522C65.353,6.513 62.612,6.511 59.87,6.51C57.973,6.507 56.075,6.503 54.178,6.5C50.194,6.494 46.211,6.492 42.227,6.493C37.12,6.493 32.013,6.479 26.905,6.462L26.903,6.462C22.98,6.451 19.057,6.449 15.133,6.449C13.253,6.448 11.371,6.444 9.49,6.436C6.857,6.426 4.224,6.429 1.592,6.435L-0.731,6.418C-3.405,6.337 -4.743,6.391 -5.942,6.746C-7.165,7.109 -8.29,7.791 -10.439,9.326C-11.234,9.894 -11.755,10.77 -11.873,11.74C-12.212,14.518 -12.215,14.528 -12.173,17.781L-12.202,21.304C-12.202,21.314 -12.202,21.324 -12.202,21.334L-12.199,25.188L-12.212,29.128C-12.22,31.891 -12.219,34.654 -12.214,37.416C-12.208,40.944 -12.225,44.471 -12.248,48L-12.248,48.004C-12.267,51.375 -12.263,54.747 -12.262,58.118L-12.29,61.965C-12.29,61.98 -12.29,61.994 -12.29,62.009L-12.271,65.558L-12.273,68.692C-12.273,68.868 -12.26,69.043 -12.233,69.217L-11.859,71.684C-11.712,72.653 -11.163,73.515 -10.347,74.059C-6.067,76.913 -3.555,76.957 1.539,77.203C3.527,77.302 4.919,77.371 5.923,77.449C5.944,77.451 5.966,77.453 5.988,77.454Z" style="fill:rgb(4,4,4);fill-rule:nonzero;"/>
    </g>
    <g transform="matrix(1,0,0,1,81.9712,31.7729)">
        <path d="M44.953,77.27C45.113,77.978 45.161,78.667 45.061,79.547C43.782,81.228 42.539,82.678 41.01,84.205C41.003,84.213 40.995,84.221 40.987,84.229L39.6,85.636C37.371,87.717 35.636,88.822 32.769,89.015C31.436,88.473 31.18,88.314 29.587,87.3C25.953,84.816 25.928,84.82 21.732,84.104C20.631,83.916 19.5,84.176 18.592,84.827C17.684,85.478 17.074,86.465 16.898,87.568L16.571,89.617L16.097,92.315C16.095,92.324 16.093,92.334 16.092,92.343L15.679,94.791C15.302,96.004 14.94,96.61 14.167,97.324C13.496,97.437 13.135,97.437 11.884,97.443L9.533,97.454L7.088,97.42C7.049,97.419 7.009,97.419 6.97,97.42L4.525,97.454L2.173,97.443L0.462,97.435C-0.317,97.215 -0.722,96.839 -1.185,96.272C-1.628,94.755 -1.674,94.477 -2.034,92.343C-2.036,92.334 -2.037,92.324 -2.039,92.315L-2.514,89.617L-2.84,87.568C-3.015,86.472 -3.619,85.49 -4.518,84.839C-5.417,84.188 -6.539,83.921 -7.635,84.097C-12.281,84.844 -15.22,86.175 -18.947,88.725C-20.433,89.184 -21.507,88.913 -22.945,88.473C-24.87,86.877 -25.068,86.654 -27.235,84.243C-27.25,84.227 -27.265,84.211 -27.279,84.195L-29.692,81.593C-30.897,79.735 -31.154,78.672 -30.94,76.671C-29.866,74.969 -28.744,73.299 -27.572,71.665C-27.305,71.293 -27.101,70.88 -26.968,70.442C-26.26,68.108 -26.262,68.107 -25.862,66.01C-25.654,64.917 -25.89,63.785 -26.518,62.866C-27.146,61.947 -28.115,61.317 -29.21,61.114L-30.972,60.788L-33.336,60.313C-33.345,60.312 -33.353,60.31 -33.362,60.308L-35.518,59.89C-37.392,59.333 -38.736,58.933 -40.169,57.919C-40.511,55.741 -40.418,53.597 -40.353,51.349C-40.351,51.29 -40.35,51.23 -40.351,51.171L-40.384,48.738C-40.355,46.189 -40.544,45.148 -40.186,44.339C-40.09,44.123 -39.945,43.942 -39.757,43.74C-37.86,42.89 -35.991,42.155 -33.987,41.536C-33.98,41.534 -33.973,41.532 -33.966,41.53L-31.568,40.776L-29.765,40.232C-27.779,39.634 -26.531,37.671 -26.833,35.618C-27.355,32.067 -28.134,29.551 -29.798,26.344C-30.269,25.353 -30.565,24.558 -30.725,23.756C-30.009,23.3 -29.432,22.627 -29.097,21.805L-28.518,20.384C-27.067,17.923 -25.17,16.235 -23.09,14.26C-23.064,14.235 -23.039,14.21 -23.013,14.185L-22.083,13.254C-18.489,13.136 -16.423,14.821 -13.133,16.808C-12.481,17.202 -11.733,17.41 -10.971,17.41L-7.971,17.41C-6.186,17.41 -4.598,16.277 -4.016,14.589L-3.216,12.267L-2.151,9.242L-2.147,9.23L-1.131,6.317C-0.801,5.521 -0.45,4.74 -0.224,4.246C-0.082,4.226 0.071,4.206 0.219,4.187L0.225,4.186L2.325,4.214C2.333,4.214 2.341,4.214 2.349,4.215L4.903,4.234L7.575,4.284C7.587,4.284 7.599,4.285 7.612,4.285L10.329,4.312C11.598,4.326 12.868,4.343 14.138,4.363C14.138,4.363 18.125,14.729 18.125,14.729C18.746,16.344 20.298,17.41 22.029,17.41L27.029,17.41C29.147,17.41 30.897,15.836 31.174,13.794C32.55,13.255 33.868,13.116 35.491,13.259C37.185,14.473 38.529,15.615 40.045,17.158C40.073,17.187 40.101,17.214 40.129,17.242L41.819,18.867C43.592,20.702 44.486,21.295 44.785,22.2C44.91,22.576 44.911,22.987 44.908,23.539C43.881,26.237 42.624,28.741 41.304,31.323C41.003,31.913 40.846,32.565 40.846,33.227L40.846,36.227C40.846,38.081 42.066,39.713 43.843,40.238L45.678,40.781L48.099,41.534C48.107,41.536 48.115,41.539 48.123,41.541L50.335,42.214C51.577,42.752 52.31,43.24 53.109,44.09C53.446,46.438 53.304,48.806 53.284,51.191C53.283,51.237 53.284,51.283 53.285,51.329L53.344,53.763C53.345,56.327 53.545,57.372 53.197,58.185C53.114,58.379 52.99,58.545 52.832,58.723C51.076,59.45 49.417,59.938 47.493,60.306C47.484,60.308 47.474,60.31 47.465,60.312L45.076,60.786L43.281,61.111C42.143,61.318 41.141,61.987 40.514,62.959C39.887,63.931 39.69,65.119 39.971,66.242L41.971,74.242C42.347,75.745 43.509,76.886 44.953,77.27ZM3.029,10.227L0.029,21.227L-4.971,22.227L-8.409,22.977C-12.6,23.271 -14.318,22.133 -17.971,20.227C-20.696,20.204 -20.696,20.204 -22.971,21.227L-24.971,24.227L-22.971,27.352C-20.216,32.235 -20.562,35.503 -21.846,40.915C-24.621,45.24 -27.045,45.66 -31.889,46.817L-33.971,47.227L-33.971,54.227L-31.889,54.856C-24.537,57.37 -24.537,57.37 -21.784,61.54C-20.896,65.57 -20.973,68.236 -21.971,72.227L-23.971,75.227C-23.612,78.188 -23.125,79.074 -20.971,81.227C-17.53,80.874 -15.902,80.181 -12.971,78.227C-10.815,78.215 -10.815,78.215 -8.471,78.54L-6.127,78.84C-3.971,79.227 -3.971,79.227 -0.971,80.227C0.197,82.95 0.197,82.95 1.216,86.29L2.259,89.637L3.029,92.227L10.029,92.227L10.439,90.18C12.418,81.979 12.418,81.979 16.279,79.602C20.256,78.144 22.837,77.673 27.029,78.227C28.385,79.196 29.723,80.191 31.029,81.227C34.033,80.962 34.862,80.394 37.029,78.227C36.676,74.785 35.983,73.158 34.029,70.227C34.308,65.303 35.049,61.2 38.029,57.227C41.283,55.831 44.571,54.967 48.029,54.227L48.029,47.227L46.13,46.825L43.654,46.29L41.193,45.762C39.029,45.227 39.029,45.227 37.029,44.227C34.745,39.746 33.3,36.33 34.029,31.227C35.19,28.457 36.545,25.837 38.029,23.227C36.721,21.653 36.721,21.653 35.029,20.227C31.176,20.468 29.268,21.067 26.029,23.227C21.103,22.948 17.044,22.147 13.029,19.227C11.651,16.31 10.777,13.359 10.029,10.227L3.029,10.227Z" style="fill:rgb(4,4,4);fill-rule:nonzero;"/>
    </g>
    <g transform="matrix(1,0,0,1,104,63)">
        <path d="M-1.682,2.31C2.112,5.374 4.158,8.696 5.176,13.441C5.935,20.784 5.77,27.847 1.76,34.206C-3.371,39.352 -8.179,40.289 -15.372,40.395C-21.452,40.337 -24.731,39.187 -29.836,36.18C-34.453,31.329 -36.466,26.117 -36.706,19.403C-36.367,12.384 -34.448,8.184 -29.43,3.337C-20.891,-3.503 -10.809,-3.665 -1.686,2.307L-1.682,2.31ZM-23.43,4.53C-23.589,4.622 -23.739,4.73 -23.878,4.851C-29.262,9.555 -29.259,9.557 -31.964,15.937C-32.107,16.274 -32.183,16.635 -32.19,17.001C-32.324,24.779 -30.199,28.568 -24.912,34.309C-24.717,34.521 -24.49,34.702 -24.24,34.846C-19.606,37.524 -15.743,37.718 -10.513,36.812C-10.246,36.766 -9.986,36.682 -9.743,36.562C-4.297,33.891 -1.109,30.703 1.562,25.257C1.681,25.016 1.764,24.759 1.811,24.495C2.764,19.076 2.334,15.286 -0.135,10.349C-0.245,10.128 -0.383,9.923 -0.546,9.738C-4.369,5.398 -7.219,3.715 -12.855,2.407C-13.016,2.37 -13.181,2.346 -13.347,2.337C-17.732,2.103 -19.668,2.352 -23.43,4.53Z" style="fill:rgb(5,5,5);fill-rule:nonzero;"/>
    </g>
    <g transform="matrix(1,0,0,1,200.014,36.0668)">
        <path d="M-5.302,6.987C-5.364,6.929 -5.466,6.835 -5.592,6.717C-5.687,5.811 -5.661,5.072 -5.189,4.213C-3.517,3.192 -2.15,3.482 -0.002,3.483C0.005,3.483 0.011,3.483 0.018,3.483L3.667,3.464L7.614,3.492C7.622,3.492 7.63,3.492 7.637,3.492C8.994,3.493 10.351,3.492 11.708,3.491C14.542,3.491 17.375,3.501 20.209,3.519C23.86,3.542 27.51,3.543 31.161,3.536C33.955,3.532 36.75,3.539 39.544,3.549L39.547,3.549C41.541,3.555 43.536,3.553 45.531,3.552L49.187,3.581L49.2,3.581L52.271,3.594C53.52,3.72 53.902,3.804 54.77,4.344C54.826,5.241 54.823,6.061 54.658,6.902C47.161,6.942 39.665,6.973 32.168,6.993C28.306,7.003 24.444,7.017 20.582,7.04C16.865,7.062 13.149,7.074 9.432,7.079L9.428,7.079C8,7.083 6.573,7.09 5.145,7.101C3.167,7.115 1.188,7.116 -0.791,7.116L-0.804,7.116L-4.066,7.129C-4.572,7.08 -5.093,7.014 -5.302,6.987Z" style="fill:rgb(7,7,7);fill-rule:nonzero;"/>
    </g>
    <g transform="matrix(1,0,0,1,199.094,19.3097)">
        <path d="M55.712,3.504C55.735,4.034 55.728,4.469 55.691,5.075C53.969,5.968 52.84,5.91 50.334,5.921L50.322,5.921L46.807,5.95L43.006,5.947L42.992,5.947L39.074,5.96C36.341,5.967 33.608,5.967 30.874,5.962C27.363,5.956 23.852,5.973 20.34,5.996C16.999,6.015 13.659,6.011 10.318,6.009C10.309,6.009 10.3,6.009 10.291,6.01L6.509,6.037L2.982,6.019C2.975,6.019 2.968,6.018 2.961,6.018L0.09,6.02C-1.593,5.769 -2.822,5.263 -4.088,4.512C-4.068,4.432 -4.047,4.354 -4.026,4.277C-3.97,4.07 -3.88,3.822 -3.813,3.646C-3.231,3.601 -1.566,3.484 0.002,3.483L0.009,3.483L3.875,3.474C5.278,3.475 6.681,3.478 8.084,3.48L8.091,3.48C9.523,3.479 10.954,3.478 12.385,3.477C15.385,3.475 18.386,3.478 21.386,3.482C25.247,3.488 29.107,3.485 32.968,3.479C35.921,3.475 38.876,3.476 41.829,3.479C43.254,3.479 44.68,3.479 46.105,3.476C48.085,3.474 50.065,3.478 52.046,3.483L52.052,3.483L55.394,3.486C55.501,3.491 55.608,3.497 55.712,3.504Z" style="fill:rgb(6,6,6);fill-rule:nonzero;"/>
    </g>
    <g transform="matrix(1,0,0,1,213.743,54.2711)">
        <path d="M24.927,6.988C24.916,6.988 22.289,6.986 22.289,6.986C22.282,6.986 22.275,6.986 22.269,6.986L19.537,6.999C17.635,7.004 15.732,7.005 13.829,7L13.825,7C10.888,6.997 7.952,7.021 5.015,7.046C3.168,7.048 1.321,7.049 -0.525,7.048C-0.538,7.048 -0.551,7.048 -0.564,7.048L-3.199,7.076C-5.126,7.061 -5.465,7.055 -7.673,6.852C-7.824,6.615 -7.929,6.41 -7.991,6.195C-8.106,5.79 -8.007,5.379 -7.929,4.647C-7.928,4.645 -7.696,3.755 -7.696,3.755C-5.245,3.055 -2.598,3.487 0.005,3.483L0.014,3.483L2.604,3.473C4.412,3.468 6.22,3.466 8.027,3.466L8.03,3.466C10.808,3.464 13.586,3.446 16.364,3.427C18.118,3.424 19.873,3.422 21.627,3.421C21.636,3.421 21.646,3.421 21.655,3.421L24.154,3.399C26.669,3.409 28.183,3.345 30.083,4.273C30.141,5.049 30.132,5.546 30.054,6.415C28.524,7.409 27.086,6.965 24.927,6.988Z" style="fill-rule:nonzero;"/>
    </g>
    <g transform="matrix(1,0,0,1,118,106)">
        <path d="M0,0C0.99,0.33 1.98,0.66 3,1C2.25,3.938 2.25,3.938 1,7C-1.125,7.875 -1.125,7.875 -3,8C-2.505,7.423 -2.01,6.845 -1.5,6.25C0.37,3.896 0.37,3.896 0,0Z" style="fill:rgb(32,32,32);fill-rule:nonzero;"/>
    </g>
</svg>
