<?xml version="1.0" encoding="UTF-8"?>
<svg version="1.1" xmlns="http://www.w3.org/2000/svg" width="348" height="347">
<path d="M0 0 C6.6 0 13.2 0 20 0 C20 1.32 20 2.64 20 4 C19.34 4 18.68 4 18 4 C18 4.66 18 5.32 18 6 C18.63164062 6.23976563 19.26328125 6.47953125 19.9140625 6.7265625 C22 8 22 8 22.8984375 10.0234375 C23.05570312 10.79945312 23.21296875 11.57546875 23.375 12.375 C23.54773438 13.14585938 23.72046875 13.91671875 23.8984375 14.7109375 C24.02001371 17.45107814 23.55327642 18.75417995 22 21 C21.01 21.33 20.02 21.66 19 22 C18.67 22.66 18.34 23.32 18 24 C18.99 24.33 19.98 24.66 21 25 C21 28.3 21 31.6 21 35 C22.485 33.515 22.485 33.515 24 32 C25.32 32.66 26.64 33.32 28 34 C28 34.66 28 35.32 28 36 C27.34 36.66 26.68 37.32 26 38 C26 38.66 26 39.32 26 40 C26.66 40 27.32 40 28 40 C28 41.32 28 42.64 28 44 C26.515 44.495 26.515 44.495 25 45 C23.90341064 48.28976808 24.20046862 49.71303767 25 53 C23.02 53.33 21.04 53.66 19 54 C19 54.66 19 55.32 19 56 C17.515 56.495 17.515 56.495 16 57 C15.26676204 59.01508358 15.26676204 59.01508358 15 61 C13.35 61.33 11.7 61.66 10 62 C10.66 62.66 11.32 63.32 12 64 C10.865625 64.433125 9.73125 64.86625 8.5625 65.3125 C7.386875 65.869375 6.21125 66.42625 5 67 C4.67 67.99 4.34 68.98 4 70 C4.99 70.33 5.98 70.66 7 71 C6.67 71.99 6.34 72.98 6 74 C5.01 73.67 4.02 73.34 3 73 C2.67 72.34 2.34 71.68 2 71 C1.34 71 0.68 71 0 71 C-0.66 72.98 -1.32 74.96 -2 77 C-2.66 77 -3.32 77 -4 77 C-4 78.65 -4 80.3 -4 82 C-5.32 81.67 -6.64 81.34 -8 81 C-7.773125 81.763125 -7.54625 82.52625 -7.3125 83.3125 C-7 86 -7 86 -8.1875 87.8125 C-10 89 -10 89 -14 89 C-14.0825 89.7425 -14.165 90.485 -14.25 91.25 C-15.16096373 94.59020034 -16.35636147 95.80955665 -19 98 C-19.70125 98.33 -20.4025 98.66 -21.125 99 C-23.17200004 99.83817122 -23.17200004 99.83817122 -23.8125 101.9375 C-25.66088048 105.14784504 -28.65955823 105.66382329 -32 107 C-32.33 107.66 -32.66 108.32 -33 109 C-33.99 109 -34.98 109 -36 109 C-36 109.99 -36 110.98 -36 112 C-36.95971892 113.03872017 -37.96886344 114.03213772 -39 115 C-42.23544513 119.27225822 -45.28868107 123.57736213 -47.6875 128.375 C-49.10431426 131.20862852 -50.73993709 132.81056406 -53 135 C-54.82619087 137.51364756 -54.82619087 137.51364756 -56 140 C-55.67 140.66 -55.34 141.32 -55 142 C-55.5625 144.0625 -55.5625 144.0625 -57 146 C-57.99 146.144375 -58.98 146.28875 -60 146.4375 C-60.99 146.623125 -61.98 146.80875 -63 147 C-64.13545562 149.29534258 -64.13545562 149.29534258 -65 152 C-67.625 154.8125 -67.625 154.8125 -70 157 C-69.34 157 -68.68 157 -68 157 C-68 158.65 -68 160.3 -68 162 C-69.32 162 -70.64 162 -72 162 C-72 161.34 -72 160.68 -72 160 C-73.94999129 160.19471111 -73.94999129 160.19471111 -76 161 C-77.24174796 162.9001177 -77.24174796 162.9001177 -78 165 C-78.33 165.66 -78.66 166.32 -79 167 C-78.34 167.33 -77.68 167.66 -77 168 C-76.67 166.68 -76.34 165.36 -76 164 C-75.34 164 -74.68 164 -74 164 C-74 165.32 -74 166.64 -74 168 C-74.66 168 -75.32 168 -76 168 C-73.80528594 172.51135667 -71.58826282 174.06273348 -67 176 C-67 175.34 -67 174.68 -67 174 C-65.68 174 -64.36 174 -63 174 C-63.268125 174.721875 -63.53625 175.44375 -63.8125 176.1875 C-64.34237004 179.20298497 -64.34237004 179.20298497 -61.8125 181.5625 C-60.884375 182.366875 -59.95625 183.17125 -59 184 C-57.63015802 185.29579647 -56.2848951 186.61992749 -55 188 C-55 188.66 -55 189.32 -55 190 C-54.2575 190.2475 -53.515 190.495 -52.75 190.75 C-49.76976913 192.10465039 -48.10080748 193.5101541 -46 196 C-46 196.66 -46 197.32 -46 198 C-42.7 198.66 -39.4 199.32 -36 200 C-36.33 201.65 -36.66 203.3 -37 205 C-34.31158141 207.25245881 -32.35358125 208.88213958 -29 210 C-29 209.01 -29 208.02 -29 207 C-30.32 206.67 -31.64 206.34 -33 206 C-33 205.01 -33 204.02 -33 203 C-31.68 203 -30.36 203 -29 203 C-28.67 203.66 -28.34 204.32 -28 205 C-26.35636866 205.72159424 -24.68949614 206.39351421 -23 207 C-23.33 207.99 -23.66 208.98 -24 210 C-24.99 210 -25.98 210 -27 210 C-25.66757255 213.99728234 -23.43722554 214.73289379 -20 217 C-20 217.66 -20 218.32 -20 219 C-19.01 219 -18.02 219 -17 219 C-15.3125 220.5 -15.3125 220.5 -14 222 C-14 221.01 -14 220.02 -14 219 C-13.01 219 -12.02 219 -11 219 C-10 222 -10 222 -10 226 C-8.12042417 227.6255919 -8.12042417 227.6255919 -5.6875 228.9375 C-1.85691167 231.31079929 -0.24801961 233.09040069 2 237 C4.55614753 239.1609199 7.24769327 241.09757421 10 243 C10.33 242.34 10.66 241.68 11 241 C13.00124361 241.32578384 15.00102872 241.66055205 17 242 C17.9075 242.12375 18.815 242.2475 19.75 242.375 C22 243 22 243 24 246 C26.05003955 247.19232613 26.05003955 247.19232613 28 248 C28 249.32 28 250.64 28 252 C26.35 251.67 24.7 251.34 23 251 C22.67 249.35 22.34 247.7 22 246 C18.7 245.34 15.4 244.68 12 244 C12 244.66 12 245.32 12 246 C12.53625 246.061875 13.0725 246.12375 13.625 246.1875 C17.17026157 247.40035264 19.2592392 249.44610926 22 252 C22 252.66 22 253.32 22 254 C23.65 254.66 25.3 255.32 27 256 C27.33 255.67 27.66 255.34 28 255 C28.99 255.33 29.98 255.66 31 256 C31 256.66 31 257.32 31 258 C31.78375 258.061875 32.5675 258.12375 33.375 258.1875 C34.24125 258.455625 35.1075 258.72375 36 259 C37.1875 261.5 37.1875 261.5 38 264 C38.66 264.33 39.32 264.66 40 265 C39.67 265.66 39.34 266.32 39 267 C39 267.99 39 268.98 39 270 C40.65 270.66 42.3 271.32 44 272 C44 275.63 44 279.26 44 283 C44.99 283 45.98 283 47 283 C47.33 285.31 47.66 287.62 48 290 C48.66 290 49.32 290 50 290 C50.33 291.32 50.66 292.64 51 294 C51.804375 293.34 52.60875 292.68 53.4375 292 C56 290 56 290 57 290 C57.12375 290.804375 57.2475 291.60875 57.375 292.4375 C57.58125 293.283125 57.7875 294.12875 58 295 C58.66 295.33 59.32 295.66 60 296 C60 297.98 60 299.96 60 302 C59.01 302 58.02 302 57 302 C57 300.35 57 298.7 57 297 C56.34 297 55.68 297 55 297 C55.66 299.64 56.32 302.28 57 305 C57.99 305 58.98 305 60 305 C60 308.96 60 312.92 60 317 C53.07 317 46.14 317 39 317 C38.67 316.01 38.34 315.02 38 314 C37.34 314.99 36.68 315.98 36 317 C34.0546875 317.29296875 34.0546875 317.29296875 31.875 317.1875 C30.59625 317.125625 29.3175 317.06375 28 317 C28 316.34 28 315.68 28 315 C27.01 315 26.02 315 25 315 C25 315.66 25 316.32 25 317 C25.66 317.33 26.32 317.66 27 318 C27.625 320.5625 27.625 320.5625 28 323 C27.4225 322.62875 26.845 322.2575 26.25 321.875 C24 320.70833333 24 320.70833333 21.75 321.875 C21.1725 322.24625 20.595 322.6175 20 323 C20 324.32 20 325.64 20 327 C19.34 327 18.68 327 18 327 C17.67 327.99 17.34 328.98 17 330 C15.02 330.33 13.04 330.66 11 331 C10.67 330.34 10.34 329.68 10 329 C10.804375 328.79375 11.60875 328.5875 12.4375 328.375 C13.283125 327.92125 14.12875 327.4675 15 327 C15.89830839 323.94727535 15.89830839 323.94727535 16 321 C15.34 320.67 14.68 320.34 14 320 C13.67 321.32 13.34 322.64 13 324 C12.01 323.67 11.02 323.34 10 323 C10 321.35 10 319.7 10 318 C8.68 317.67 7.36 317.34 6 317 C5.7525 315.9275 5.505 314.855 5.25 313.75 C3.96546929 309.89640788 3.19845965 308.39884474 0 306 C-1.03125 305.690625 -2.0625 305.38125 -3.125 305.0625 C-4.07375 304.711875 -5.0225 304.36125 -6 304 C-6.433125 302.88625 -6.433125 302.88625 -6.875 301.75 C-8.42525583 297.96048575 -10.99010866 296.57784487 -14.3203125 294.33203125 C-14.87460937 293.89246094 -15.42890625 293.45289063 -16 293 C-16 292.34 -16 291.68 -16 291 C-16.928125 290.5359375 -16.928125 290.5359375 -17.875 290.0625 C-19.25 289.375 -20.625 288.6875 -22 288 C-22 287.01 -22 286.02 -22 285 C-23.32 285.33 -24.64 285.66 -26 286 C-26 285.01 -26 284.02 -26 283 C-26.928125 282.731875 -27.85625 282.46375 -28.8125 282.1875 C-31.76240366 281.08851629 -33.05615186 280.37581439 -35 278 C-36.32 278.66 -37.64 279.32 -39 280 C-38.67 281.32 -38.34 282.64 -38 284 C-39.32 284.33 -40.64 284.66 -42 285 C-43.4783226 282.04335481 -43.06032783 279.25770263 -43 276 C-43.66 276 -44.32 276 -45 276 C-45.66 274.35 -46.32 272.7 -47 271 C-45.35 271 -43.7 271 -42 271 C-42.433125 270.44570313 -42.86625 269.89140625 -43.3125 269.3203125 C-43.869375 268.59585937 -44.42625 267.87140625 -45 267.125 C-45.556875 266.40570313 -46.11375 265.68640625 -46.6875 264.9453125 C-48 263 -48 263 -48 261 C-48.721875 260.7525 -49.44375 260.505 -50.1875 260.25 C-53.27606582 258.87730408 -55.51011418 257.27646704 -58 255 C-58 254.34 -58 253.68 -58 253 C-60.97 252.01 -60.97 252.01 -64 251 C-63.60246179 252.46366342 -63.18118616 253.9208935 -62.75 255.375 C-62.51796875 256.18710937 -62.2859375 256.99921875 -62.046875 257.8359375 C-61.16582904 260.12109564 -61.16582904 260.12109564 -59.09375 261.28125 C-56.3386923 262.22701608 -53.88964053 262.1313473 -51 262 C-50.67 262.99 -50.34 263.98 -50 265 C-49.34 265.33 -48.68 265.66 -48 266 C-48 267.65 -48 269.3 -48 271 C-49.65 271.66 -51.3 272.32 -53 273 C-53.625 271.1875 -53.625 271.1875 -54 269 C-53.34 268.01 -52.68 267.02 -52 266 C-53.299375 266.37125 -53.299375 266.37125 -54.625 266.75 C-59.0724027 267.07943724 -60.6076703 265.78924886 -64 263 C-66.07024239 261.06777377 -66.89279417 259.85424329 -67.24609375 257.0390625 C-67.3125 254.875 -67.3125 254.875 -67 251 C-66.34 250.34 -65.68 249.68 -65 249 C-66.90401138 247.09598862 -68.33425686 246.06479561 -71.046875 245.80078125 C-73.03233273 245.8113422 -75.0169914 245.90084957 -77 246 C-76.34 244.35 -75.68 242.7 -75 241 C-77.31 241.99 -79.62 242.98 -82 244 C-82 244.66 -82 245.32 -82 246 C-80.68 246.66 -79.36 247.32 -78 248 C-78.33 248.66 -78.66 249.32 -79 250 C-80.65 250 -82.3 250 -84 250 C-85.1875 247.3125 -85.1875 247.3125 -86 244 C-84.69132936 241.05549106 -83.90597137 239.45298569 -81 238 C-81.66 237.01 -82.32 236.02 -83 235 C-85.58380177 234.74969023 -85.58380177 234.74969023 -88 235 C-88.226875 234.2575 -88.45375 233.515 -88.6875 232.75 C-90.2589561 229.4574253 -91.99995716 228.02502891 -95 226 C-95.66 226 -96.32 226 -97 226 C-97.66 226.66 -98.32 227.32 -99 228 C-99.99 227.34 -100.98 226.68 -102 226 C-102 225.34 -102 224.68 -102 224 C-101.01 223.67 -100.02 223.34 -99 223 C-99.99 222.34 -100.98 221.68 -102 221 C-102 220.34 -102 219.68 -102 219 C-104.31 219 -106.62 219 -109 219 C-109.33 219.66 -109.66 220.32 -110 221 C-111.65 221 -113.3 221 -115 221 C-114.67 220.01 -114.34 219.02 -114 218 C-113.01 217.67 -112.02 217.34 -111 217 C-112.32 216.34 -113.64 215.68 -115 215 C-115 215.99 -115 216.98 -115 218 C-116.32 217.67 -117.64 217.34 -119 217 C-119 217.99 -119 218.98 -119 220 C-119.66 220 -120.32 220 -121 220 C-121.33 222.31 -121.66 224.62 -122 227 C-121.01 227.33 -120.02 227.66 -119 228 C-119.66 229.65 -120.32 231.3 -121 233 C-121.66 233 -122.32 233 -123 233 C-123 232.34 -123 231.68 -123 231 C-125.65671948 232.32835974 -125.60501447 233.42605624 -126.5625 236.1875 C-128.64009853 241.19443285 -131.51341487 243.14127078 -136.171875 245.7109375 C-136.77515625 246.13632813 -137.3784375 246.56171875 -138 247 C-138.15811388 250.05270463 -138.15811388 250.05270463 -137 253 C-138.32 252.67 -139.64 252.34 -141 252 C-141.61875 253.2375 -141.61875 253.2375 -142.25 254.5 C-142.8275 255.325 -143.405 256.15 -144 257 C-145.32 257 -146.64 257 -148 257 C-148 258.32 -148 259.64 -148 261 C-145.03 260.01 -142.06 259.02 -139 258 C-141 262 -141 262 -142 263 C-147.52941176 263.23529412 -147.52941176 263.23529412 -150 262 C-151.32 264.64 -152.64 267.28 -154 270 C-151.45395403 273.52381687 -151.45395403 273.52381687 -148 276 C-148.33 277.65 -148.66 279.3 -149 281 C-149.99 280.67 -150.98 280.34 -152 280 C-152 278.68 -152 277.36 -152 276 C-152.99 276 -153.98 276 -155 276 C-155.33 274.68 -155.66 273.36 -156 272 C-158.25245881 274.68841859 -159.88213958 276.64641875 -161 280 C-159.35 280 -157.7 280 -156 280 C-155.67 279.01 -155.34 278.02 -155 277 C-155.875 283.875 -155.875 283.875 -157 285 C-158.99958364 285.04080783 -161.00045254 285.04254356 -163 285 C-163.33 284.34 -163.66 283.68 -164 283 C-164.66 283.33 -165.32 283.66 -166 284 C-166.144375 284.61875 -166.28875 285.2375 -166.4375 285.875 C-167.11993786 288.45309859 -168.02370557 289.24329384 -170 291 C-173.32740489 294.01546068 -175.1411378 296.91050317 -177 301 C-177.99 301 -178.98 301 -180 301 C-180 302.32 -180 303.64 -180 305 C-180.66 305 -181.32 305 -182 305 C-182 305.66 -182 306.32 -182 307 C-181.34 307 -180.68 307 -180 307 C-179.63734957 311.23092172 -180.39749195 313.62637846 -183 317 C-183.99 317 -184.98 317 -186 317 C-185.835 316.401875 -185.67 315.80375 -185.5 315.1875 C-184.8885876 312.88655664 -184.8885876 312.88655664 -185 310 C-185.29132813 310.5053125 -185.58265625 311.010625 -185.8828125 311.53125 C-187.1470972 313.53502197 -188.34859082 315.29738433 -190 317 C-193.3125 317.4375 -193.3125 317.4375 -196 317 C-196 318.65 -196 320.3 -196 322 C-197.45792884 322.05399736 -198.91642712 322.09279177 -200.375 322.125 C-201.18710938 322.14820313 -201.99921875 322.17140625 -202.8359375 322.1953125 C-205 322 -205 322 -207 320 C-207.309375 318.989375 -207.61875 317.97875 -207.9375 316.9375 C-208.288125 315.968125 -208.63875 314.99875 -209 314 C-209.99 313.67 -210.98 313.34 -212 313 C-212.66 314.32 -213.32 315.64 -214 317 C-215.98 317 -217.96 317 -220 317 C-220.33 315.35 -220.66 313.7 -221 312 C-221.33 313.65 -221.66 315.3 -222 317 C-223.98 317 -225.96 317 -228 317 C-228 318.32 -228 319.64 -228 321 C-228.99 321 -229.98 321 -231 321 C-232.49821059 324.37097383 -233 326.20442119 -233 330 C-234.98 330 -236.96 330 -239 330 C-239.37125 331.4540625 -239.37125 331.4540625 -239.75 332.9375 C-240.1625 333.948125 -240.575 334.95875 -241 336 C-243.125 336.875 -243.125 336.875 -245 337 C-245.433125 338.6396875 -245.433125 338.6396875 -245.875 340.3125 C-247 344 -247 344 -249 347 C-249.99 347 -250.98 347 -252 347 C-252 346.34 -252 345.68 -252 345 C-252.66 345 -253.32 345 -254 345 C-254 345.66 -254 346.32 -254 347 C-254.99 347 -255.98 347 -257 347 C-257 346.01 -257 345.02 -257 344 C-258.65 344.66 -260.3 345.32 -262 346 C-262.03738281 345.14277344 -262.07476562 344.28554688 -262.11328125 343.40234375 C-262.48438703 336.94801388 -262.93509448 331.73004075 -266 326 C-268.77000825 329.32086771 -268.77000825 329.32086771 -271 333 C-273.31 333 -275.62 333 -278 333 C-278 329.04 -278 325.08 -278 321 C-276.35 321 -274.7 321 -273 321 C-272.34 320.01 -271.68 319.02 -271 318 C-273.31 318 -275.62 318 -278 318 C-278 316.68 -278 315.36 -278 314 C-277.01 314 -276.02 314 -275 314 C-275 314.66 -275 315.32 -275 316 C-273.824375 315.9690625 -273.824375 315.9690625 -272.625 315.9375 C-270 316 -270 316 -268 317 C-267.01 315.02 -267.01 315.02 -266 313 C-267.65 313.33 -269.3 313.66 -271 314 C-271.495 312.515 -271.495 312.515 -272 311 C-270.25 308.9375 -270.25 308.9375 -268 307 C-265.75 307.25 -265.75 307.25 -264 308 C-264 308.66 -264 309.32 -264 310 C-263.319375 309.505 -262.63875 309.01 -261.9375 308.5 C-259 307 -259 307 -255.5 307.125 C-251.85159673 307.33802543 -251.85159673 307.33802543 -249.125 304.75 C-246.90533023 302.28856288 -246.90533023 302.28856288 -246.5625 299.9375 C-245.62433172 296.70603149 -242.74187429 295.71367143 -240 294 C-239.67 293.34 -239.34 292.68 -239 292 C-240.32 292 -241.64 292 -243 292 C-242.67 290.35 -242.34 288.7 -242 287 C-241.01 287 -240.02 287 -239 287 C-238.505 288.485 -238.505 288.485 -238 290 C-235.12579877 287.28395285 -235.12579877 287.28395285 -233 284 C-233.66 284 -234.32 284 -235 284 C-234.125 278.25 -234.125 278.25 -233 276 C-232.01 276 -231.02 276 -230 276 C-229.690625 275.38125 -229.38125 274.7625 -229.0625 274.125 C-228.375 272.75 -227.6875 271.375 -227 270 C-228.98 270.66 -230.96 271.32 -233 272 C-232.67 270.35 -232.34 268.7 -232 267 C-230.35 267.33 -228.7 267.66 -227 268 C-226.67 267.34 -226.34 266.68 -226 266 C-224.68671343 264.64691687 -223.35500919 263.31129922 -222 262 C-222.99 261.67 -223.98 261.34 -225 261 C-223.6062718 256.56541027 -221.39417765 254.12621626 -218 251 C-217.34 251.66 -216.68 252.32 -216 253 C-213.63019987 250.04622502 -213.63019987 250.04622502 -214 246 C-213.01 246 -212.02 246 -211 246 C-211 244.68 -211 243.36 -211 242 C-211.99 242 -212.98 242 -214 242 C-214 239.03 -214 236.06 -214 233 C-212.68 233 -211.36 233 -210 233 C-210 235.64 -210 238.28 -210 241 C-209.34 241.33 -208.68 241.66 -208 242 C-208.33 240.02 -208.66 238.04 -209 236 C-207.02 236.33 -205.04 236.66 -203 237 C-202.34 235.68 -201.68 234.36 -201 233 C-202.98 233.99 -202.98 233.99 -205 235 C-206 234 -206 234 -206.0625 230.9375 C-206.041875 229.968125 -206.02125 228.99875 -206 228 C-204.35 228.33 -202.7 228.66 -201 229 C-201 229.66 -201 230.32 -201 231 C-197.7546873 230.27290804 -197.7546873 230.27290804 -196.25 227.1875 C-194.93833678 223.84275879 -195.00037173 223.22102443 -196 220 C-195.34 219.01 -194.68 218.02 -194 217 C-194.99 217.33 -195.98 217.66 -197 218 C-198 217 -198 217 -198.09765625 214.93359375 C-198.08605469 214.10988281 -198.07445312 213.28617188 -198.0625 212.4375 C-198.05347656 211.61121094 -198.04445313 210.78492188 -198.03515625 209.93359375 C-198.02355469 209.29550781 -198.01195312 208.65742188 -198 208 C-197.34 208 -196.68 208 -196 208 C-195.505 210.475 -195.505 210.475 -195 213 C-191.64888166 210.76592111 -190.18446044 209.73784176 -189.1875 205.75 C-189.0946875 204.38875 -189.0946875 204.38875 -189 203 C-188.34 203 -187.68 203 -187 203 C-185.75 205.125 -185.75 205.125 -185 208 C-186.75 211.125 -186.75 211.125 -189 214 C-189.66 214.99 -190.32 215.98 -191 217 C-190.01 217 -189.02 217 -188 217 C-184.54736544 213.54736544 -183.44925138 210.82945236 -183 206 C-182.01 206.33 -181.02 206.66 -180 207 C-179.67 206.01 -179.34 205.02 -179 204 C-178.154375 203.38125 -177.30875 202.7625 -176.4375 202.125 C-173.71315067 200.2323837 -173.71315067 200.2323837 -173.6875 197.25 C-173.790625 196.5075 -173.89375 195.765 -174 195 C-174.99 195 -175.98 195 -177 195 C-178.76462683 191.91190305 -179 190.76687864 -179 187 C-178.34 187 -177.68 187 -177 187 C-177 188.32 -177 189.64 -177 191 C-175.68 191 -174.36 191 -173 191 C-173 191.66 -173 192.32 -173 193 C-172.01 193 -171.02 193 -170 193 C-168.19555272 191.05674908 -167.13267221 189.60650153 -166.5625 187 C-165.77966609 184.21659055 -164.05707325 182.99657109 -162 181 C-160.95650161 179.36021682 -159.94392019 177.69905634 -159 176 C-160.32 176.33 -161.64 176.66 -163 177 C-163.33 175.68 -163.66 174.36 -164 173 C-165.65 173 -167.3 173 -169 173 C-169 172.34 -169 171.68 -169 171 C-169.7425 170.731875 -170.485 170.46375 -171.25 170.1875 C-173.86636554 169.05770579 -175.80187111 167.79106798 -178 166 C-178 166.66 -178 167.32 -178 168 C-179.65 168 -181.3 168 -183 168 C-183.33 169.65 -183.66 171.3 -184 173 C-184.99 173 -185.98 173 -187 173 C-187.144375 171.88625 -187.28875 170.7725 -187.4375 169.625 C-187.78372035 166.17857953 -187.78372035 166.17857953 -189 164 C-186.36 164 -183.72 164 -181 164 C-181.93427038 163.03851787 -182.87256421 162.08094443 -183.8125 161.125 C-184.33457031 160.59132812 -184.85664063 160.05765625 -185.39453125 159.5078125 C-187.13259904 157.79223439 -187.13259904 157.79223439 -190 156 C-191.485 155.01 -191.485 155.01 -193 154 C-193.66 154.66 -194.32 155.32 -195 156 C-195 155.34 -195 154.68 -195 154 C-195.66 154 -196.32 154 -197 154 C-197.33 154.99 -197.66 155.98 -198 157 C-202.7632312 152.48746518 -202.7632312 152.48746518 -204.0625 149.8125 C-205.27341861 147.47139069 -206.60177814 146.95928874 -209 146 C-208.67 144.68 -208.34 143.36 -208 142 C-210.84123027 139.27647808 -210.84123027 139.27647808 -214 137 C-216.80485127 137.0406843 -216.80485127 137.0406843 -219 138 C-219 137.34 -219 136.68 -219 136 C-218.34 135.67 -217.68 135.34 -217 135 C-218.32 134.67 -219.64 134.34 -221 134 C-221 134.66 -221 135.32 -221 136 C-221.66 136 -222.32 136 -223 136 C-223 134.68 -223 133.36 -223 132 C-223.99 132 -224.98 132 -226 132 C-226.33 131.34 -226.66 130.68 -227 130 C-227.99 129.67 -228.98 129.34 -230 129 C-230 127.68 -230 126.36 -230 125 C-233.57992391 123.09944543 -237.20518822 121.94639176 -241.07421875 120.78125 C-243 120 -243 120 -244 118 C-244 117.01 -244 116.02 -244 115 C-245.65 114.34 -247.3 113.68 -249 113 C-249 113.99 -249 114.98 -249 116 C-250.65 115.67 -252.3 115.34 -254 115 C-254.33 113.68 -254.66 112.36 -255 111 C-253.35 111 -251.7 111 -250 111 C-253.82180842 106.5991297 -256.47371099 105.19194469 -262 104 C-261.67 103.34 -261.34 102.68 -261 102 C-260.01 102 -259.02 102 -258 102 C-258.75150023 98.72226496 -258.75150023 98.72226496 -262 97 C-260.89932004 96.18278283 -259.79430269 95.37140549 -258.6875 94.5625 C-258.07261719 94.11003906 -257.45773437 93.65757813 -256.82421875 93.19140625 C-255 92 -255 92 -252 91 C-252.78375 90.566875 -253.5675 90.13375 -254.375 89.6875 C-257 88 -257 88 -259 85 C-260.485 84.505 -260.485 84.505 -262 84 C-262 83.01 -262 82.02 -262 81 C-260.68 81.33 -259.36 81.66 -258 82 C-258 82.66 -258 83.32 -258 84 C-256.35 84 -254.7 84 -253 84 C-253 83.34 -253 82.68 -253 82 C-253.804375 81.773125 -254.60875 81.54625 -255.4375 81.3125 C-258 80 -258 80 -258.8125 77.5625 C-259 75 -259 75 -259 72 C-258.34 72 -257.68 72 -257 72 C-257 72.99 -257 73.98 -257 75 C-255.02 74.505 -255.02 74.505 -253 74 C-253 73.34 -253 72.68 -253 72 C-253.639375 71.896875 -254.27875 71.79375 -254.9375 71.6875 C-255.618125 71.460625 -256.29875 71.23375 -257 71 C-257.33 70.01 -257.66 69.02 -258 68 C-259.73003698 67.24922923 -261.46355842 66.50411546 -263.22265625 65.82421875 C-265.66128491 64.69333821 -267.18259934 62.947215 -269 61 C-270.485 60.505 -270.485 60.505 -272 60 C-271.34 59.01 -270.68 58.02 -270 57 C-270.99 56.34 -271.98 55.68 -273 55 C-273 54.34 -273 53.68 -273 53 C-273.8971875 52.566875 -273.8971875 52.566875 -274.8125 52.125 C-277 51 -277 51 -280 49 C-280.495 51.475 -280.495 51.475 -281 54 C-282.32 53.67 -283.64 53.34 -285 53 C-285.33 50.69 -285.66 48.38 -286 46 C-284.35 46.66 -282.7 47.32 -281 48 C-281.474375 47.62875 -281.94875 47.2575 -282.4375 46.875 C-284.65505094 44.21393887 -285 42.4526481 -285 39 C-281.43726099 34.24968132 -276.12215533 30.9283835 -271 28 C-270.34 28 -269.68 28 -269 28 C-269 28.66 -269 29.32 -269 30 C-269.66 30 -270.32 30 -271 30 C-271 30.66 -271 31.32 -271 32 C-269.35 31.34 -267.7 30.68 -266 30 C-266.495 29.54625 -266.99 29.0925 -267.5 28.625 C-269 27 -269 27 -269 25 C-269.7425 25.061875 -270.485 25.12375 -271.25 25.1875 C-274.49187763 24.96646289 -275.72162458 24.27837542 -278 22 C-278 21.01 -278 20.02 -278 19 C-276.35 19.33 -274.7 19.66 -273 20 C-272.34 19.01 -271.68 18.02 -271 17 C-265.68404685 18.60714863 -261.59322683 20.93784878 -257 24 C-256.67 24.99 -256.34 25.98 -256 27 C-252.21600222 29.81599835 -248.25218743 31.97514884 -244 34 C-244 34.66 -244 35.32 -244 36 C-246.475 36.495 -246.475 36.495 -249 37 C-247.27773504 40.24849977 -247.27773504 40.24849977 -244 41 C-244.09796875 41.72703125 -244.1959375 42.4540625 -244.296875 43.203125 C-243.88066327 47.1242776 -242.19402886 48.21439133 -239.25 50.75 C-238.36828125 51.52859375 -237.4865625 52.3071875 -236.578125 53.109375 C-234.23281252 54.82927082 -232.83296176 55.60285583 -230 56 C-230 56.99 -230 57.98 -230 59 C-228.02 59 -226.04 59 -224 59 C-224 59.66 -224 60.32 -224 61 C-223.31164062 61.08378906 -222.62328125 61.16757812 -221.9140625 61.25390625 C-218.29726735 62.17992217 -215.47624462 63.93726803 -212.375 65.9375 C-211.51648438 66.47793945 -211.51648438 66.47793945 -210.640625 67.02929688 C-208.07020462 68.65224835 -205.52937419 70.31375054 -203 72 C-203 72.66 -203 73.32 -203 74 C-200.69 74 -198.38 74 -196 74 C-196.495 75.485 -196.495 75.485 -197 77 C-196.01 77.556875 -196.01 77.556875 -195 78.125 C-191.15510081 80.52806199 -187.60126319 83.25072552 -184 86 C-182.88818359 86.7734375 -182.88818359 86.7734375 -181.75390625 87.5625 C-180.88572266 88.2740625 -180.88572266 88.2740625 -180 89 C-180 89.66 -180 90.32 -180 91 C-176.37 91 -172.74 91 -169 91 C-169 91.99 -169 92.98 -169 94 C-169.66 94.66 -170.32 95.32 -171 96 C-170.030625 96.598125 -169.06125 97.19625 -168.0625 97.8125 C-165 100 -165 100 -164 103 C-162.67661368 103.68620031 -161.34050052 104.34786461 -160 105 C-157.85832084 106.56044105 -155.96955738 108.20949329 -154 110 C-154 110.66 -154 111.32 -154 112 C-151.60280568 112.67958603 -151.60280568 112.67958603 -149 113 C-148.34 112.34 -147.68 111.68 -147 111 C-146.7525 111.763125 -146.505 112.52625 -146.25 113.3125 C-144.85038832 116.32166511 -143.89790845 117.4268497 -141 119 C-137.78455841 119.32154416 -135.08634644 118.91447302 -132 118 C-132 119.32 -132 120.64 -132 122 C-132.99 122.33 -133.98 122.66 -135 123 C-132.03 123 -129.06 123 -126 123 C-126 123.99 -126 124.98 -126 126 C-126.99 126 -127.98 126 -129 126 C-126.28395285 128.87420123 -126.28395285 128.87420123 -123 131 C-123 130.01 -123 129.02 -123 128 C-122.38125 127.814375 -121.7625 127.62875 -121.125 127.4375 C-117.96612595 125.30061462 -117.91273871 122.58575921 -117 119 C-116.34 118.67 -115.68 118.34 -115 118 C-114.67 117.01 -114.34 116.02 -114 115 C-113.01 114.67 -112.02 114.34 -111 114 C-110.360625 113.360625 -109.72125 112.72125 -109.0625 112.0625 C-107.09873812 110.09873812 -105.52607907 109.08260532 -103 108 C-103 108.66 -103 109.32 -103 110 C-102.34 109.67 -101.68 109.34 -101 109 C-101.33 107.35 -101.66 105.7 -102 104 C-101.278125 104.103125 -100.55625 104.20625 -99.8125 104.3125 C-95.80245645 103.86693961 -94.59843542 101.99819471 -92 99 C-91.278125 98.071875 -90.55625 97.14375 -89.8125 96.1875 C-89.214375 95.465625 -88.61625 94.74375 -88 94 C-87.34 94 -86.68 94 -86 94 C-86 91.69 -86 89.38 -86 87 C-85.01 86.67 -84.02 86.34 -83 86 C-83 85.01 -83 84.02 -83 83 C-82.01 83 -81.02 83 -80 83 C-79.8453125 82.0409375 -79.8453125 82.0409375 -79.6875 81.0625 C-79.3471875 80.0415625 -79.3471875 80.0415625 -79 79 C-78.01 78.67 -77.02 78.34 -76 78 C-76.37125 77.1646875 -76.37125 77.1646875 -76.75 76.3125 C-77 74 -77 74 -75.25 71.3125 C-73 69 -73 69 -70 68 C-70 68.66 -70 69.32 -70 70 C-66.06451569 66.93906776 -63.31883213 64.50884026 -61 60 C-62.98 60.99 -64.96 61.98 -67 63 C-67 62.01 -67 61.02 -67 60 C-66.34 59.67 -65.68 59.34 -65 59 C-64.71125 57.948125 -64.4225 56.89625 -64.125 55.8125 C-62.91879735 51.72481325 -61.90394481 49.13320361 -59 46 C-56.15345477 45.48195058 -53.9238131 45.70761869 -51 46 C-51 46.66 -51 47.32 -51 48 C-50.34 48 -49.68 48 -49 48 C-48.67 46.68 -48.34 45.36 -48 44 C-48.99 43.67 -49.98 43.34 -51 43 C-51 42.34 -51 41.68 -51 41 C-51.99 41 -52.98 41 -54 41 C-54 39.68 -54 38.36 -54 37 C-49.75177626 37.47202486 -47.80010291 39.96655518 -45 43 C-43.5934258 39.51825579 -42.23865675 36.02252322 -40.9375 32.5 C-40.59589844 31.5821875 -40.25429687 30.664375 -39.90234375 29.71875 C-39.05063111 27.15255089 -38.46744378 24.66009241 -38 22 C-36.68 22.33 -35.36 22.66 -34 23 C-34.33 24.32 -34.66 25.64 -35 27 C-35.66 27 -36.32 27 -37 27 C-36.67 27.99 -36.34 28.98 -36 30 C-35.19175781 29.13375 -34.38351563 28.2675 -33.55078125 27.375 C-32.4720327 26.24934934 -31.39256786 25.12438483 -30.3125 24 C-29.78205078 23.42765625 -29.25160156 22.8553125 -28.70507812 22.265625 C-24.64783886 18.08393054 -24.64783886 18.08393054 -21.10546875 17.625 C-20.41066406 17.74875 -19.71585937 17.8725 -19 18 C-19 17.34 -19 16.68 -19 16 C-19.66 16 -20.32 16 -21 16 C-21 15.34 -21 14.68 -21 14 C-19.68 14 -18.36 14 -17 14 C-17 14.66 -17 15.32 -17 16 C-14.03339291 14.55119189 -11.13882251 13.08393919 -8.3125 11.375 C-6 10 -6 10 -3 9 C-2.87625 8.2575 -2.7525 7.515 -2.625 6.75 C-2 4 -2 4 0 0 Z M2 2 C1.67 3.32 1.34 4.64 1 6 C3.97 6 6.94 6 10 6 C10 5.01 10 4.02 10 3 C7.36 2.67 4.72 2.34 2 2 Z M10 12 C10 13.65 10 15.3 10 17 C10.99 17.33 11.98 17.66 13 18 C13 17.34 13 16.68 13 16 C12.34 16 11.68 16 11 16 C11.33 15.01 11.66 14.02 12 13 C11.34 12.67 10.68 12.34 10 12 Z M-263 31 C-262.01 32.485 -262.01 32.485 -261 34 C-260.34 33.67 -259.68 33.34 -259 33 C-260.32 32.34 -261.64 31.68 -263 31 Z M-255 37 C-254.01 38.485 -254.01 38.485 -253 40 C-251.68 39.67 -250.36 39.34 -249 39 C-250.98 38.34 -252.96 37.68 -255 37 Z M-60 52 C-61.35439668 54.70879335 -61.06501451 57.00933268 -61 60 C-57.91202978 59.3530435 -57.91202978 59.3530435 -57 57.125 C-56.67 56.42375 -56.34 55.7225 -56 55 C-54.375 53.25 -54.375 53.25 -53 52 C-53.33 51.01 -53.66 50.02 -54 49 C-56.21143289 49 -58.22027357 50.84317782 -60 52 Z M-251 75 C-250.67 75.99 -250.34 76.98 -250 78 C-249.67 77.01 -249.34 76.02 -249 75 C-249.66 75 -250.32 75 -251 75 Z M-253 84 C-253 84.66 -253 85.32 -253 86 C-252.34 86 -251.68 86 -251 86 C-251 86.99 -251 87.98 -251 89 C-250.01 88.67 -249.02 88.34 -248 88 C-249.31200404 86.64567325 -250.64631404 85.31266518 -252 84 C-252.33 84 -252.66 84 -253 84 Z M-244 92 C-244 92.66 -244 93.32 -244 94 C-244.99 94 -245.98 94 -247 94 C-246.67 94.99 -246.34 95.98 -246 97 C-243.98491642 97.73323796 -243.98491642 97.73323796 -242 98 C-242 97.01 -242 96.02 -242 95 C-241.54625 95.495 -241.0925 95.99 -240.625 96.5 C-239.12364481 98.22609337 -239.12364481 98.22609337 -237 98 C-237.03122943 96.03243548 -237.03122943 96.03243548 -238 94 C-240.99615946 92.6954344 -240.99615946 92.6954344 -244 92 Z M-241 98 C-241.33377251 101.03343074 -241.33377251 101.03343074 -239.375 102.8125 C-236.92994954 104.35703138 -236.92994954 104.35703138 -233.75 103.1875 C-232.8425 102.795625 -231.935 102.40375 -231 102 C-231.33 101.01 -231.66 100.02 -232 99 C-232.99 99 -233.98 99 -235 99 C-235 99.66 -235 100.32 -235 101 C-235.99 101.495 -235.99 101.495 -237 102 C-237.66 100.68 -238.32 99.36 -239 98 C-239.66 98 -240.32 98 -241 98 Z M-107 111 C-109.26212435 113.26513223 -109.26212435 113.26513223 -111 116 C-110.67 116.99 -110.34 117.98 -110 119 C-107.43750025 116.68767578 -107.43750025 116.68767578 -105 114 C-105 113.01 -105 112.02 -105 111 C-105.66 111 -106.32 111 -107 111 Z M-117 124 C-117.33 124.66 -117.66 125.32 -118 126 C-117.01 125.67 -116.02 125.34 -115 125 C-115.66 124.67 -116.32 124.34 -117 124 Z M-123 131 C-122 133 -122 133 -122 133 Z M-204 144 C-204.33 144.99 -204.66 145.98 -205 147 C-204.195625 147.45375 -203.39125 147.9075 -202.5625 148.375 C-200 150 -200 150 -199 152 C-198.01 151.67 -197.02 151.34 -196 151 C-196 150.01 -196 149.02 -196 148 C-199.61494384 145.01085343 -199.61494384 145.01085343 -204 144 Z M-178 207 C-177.34 207.66 -176.68 208.32 -176 209 C-176 208.34 -176 207.68 -176 207 C-176.66 207 -177.32 207 -178 207 Z M-113 211 C-112.34 212.32 -111.68 213.64 -111 215 C-110.01 215 -109.02 215 -108 215 C-108.66 213.68 -109.32 212.36 -110 211 C-110.99 211 -111.98 211 -113 211 Z M-194 220 C-193.67 220.99 -193.34 221.98 -193 223 C-192.01 222.67 -191.02 222.34 -190 222 C-190 221.34 -190 220.68 -190 220 C-191.32 220 -192.64 220 -194 220 Z M-211 246 C-210 248 -210 248 -210 248 Z M-221 257 C-220.67 258.32 -220.34 259.64 -220 261 C-219.34 259.35 -218.68 257.7 -218 256 C-219.2236068 255.9254644 -219.2236068 255.9254644 -221 257 Z M-180 262 C-180.33 262.66 -180.66 263.32 -181 264 C-180.34 264 -179.68 264 -179 264 C-179.33 263.34 -179.66 262.68 -180 262 Z M-220 272 C-219 274 -219 274 -219 274 Z M-41 273 C-41 273.99 -41 274.98 -41 276 C-39.68 276.33 -38.36 276.66 -37 277 C-37.33 275.68 -37.66 274.36 -38 273 C-38.99 273 -39.98 273 -41 273 Z M-194 291 C-196.30252228 293.14842545 -196.30252228 293.14842545 -198 296 C-197.86850174 298.75124253 -197.86850174 298.75124253 -197 301 C-196.67 300.34 -196.34 299.68 -196 299 C-193.9375 298.375 -193.9375 298.375 -192 298 C-192 295.69 -192 293.38 -192 291 C-192.66 291 -193.32 291 -194 291 Z M-200 298 C-202.97 301.96 -202.97 301.96 -206 306 C-202.20789169 307.4090043 -202.20789169 307.4090043 -199.75 305.875 C-197.73265199 304.09676112 -197.73265199 304.09676112 -197.75 301.3125 C-197.87375 300.1678125 -197.87375 300.1678125 -198 299 C-198.66 298.67 -199.32 298.34 -200 298 Z M42 306 C42 306.66 42 307.32 42 308 C42.66 308 43.32 308 44 308 C44.33 308.99 44.66 309.98 45 311 C45.66 310.67 46.32 310.34 47 310 C47.65555119 307.47266765 47.65555119 307.47266765 48 305 C44.2236068 304.7018576 44.2236068 304.7018576 42 306 Z M-255 308 C-255.66 308.66 -256.32 309.32 -257 310 C-256.67 310.99 -256.34 311.98 -256 313 C-255.34 312.34 -254.68 311.68 -254 311 C-254.33 310.01 -254.66 309.02 -255 308 Z M-208 308 C-208.33 309.32 -208.66 310.64 -209 312 C-207.02 312.99 -207.02 312.99 -205 314 C-204.67 312.68 -204.34 311.36 -204 310 C-205.32 309.34 -206.64 308.68 -208 308 Z M-261 318 C-261 321 -261 321 -261 321 Z " fill="#FFFFFF" transform="translate(288,0)"/>
<path d="M0 0 C2.875 -0.125 2.875 -0.125 6 0 C6.66 0.66 7.32 1.32 8 2 C9.93991404 2.42137285 9.93991404 2.42137285 12.0625 2.5625 C16 3 16 3 17 4 C17.04063832 5.66617115 17.042721 7.33388095 17 9 C14.72923158 9.02699725 12.45837179 9.04639453 10.1875 9.0625 C8.29064453 9.07990234 8.29064453 9.07990234 6.35546875 9.09765625 C3 9 3 9 0 8 C-1.125 2.25 -1.125 2.25 0 0 Z " fill="#FFFFFF" transform="translate(75,324)"/>
<path d="M0 0 C0.99 0.33 1.98 0.66 3 1 C2.67 2.98 2.34 4.96 2 7 C3.32 7 4.64 7 6 7 C6 8.65 6 10.3 6 12 C4.35 12 2.7 12 1 12 C0.67 11.01 0.34 10.02 0 9 C-4.29 9 -8.58 9 -13 9 C-13.33 7.68 -13.66 6.36 -14 5 C-12.68 5 -11.36 5 -10 5 C-10 5.66 -10 6.32 -10 7 C-4.50583771 5.50921639 -4.50583771 5.50921639 -0.5 1.8125 C-0.335 1.214375 -0.17 0.61625 0 0 Z " fill="#FFFFFF" transform="translate(166,241)"/>
<path d="M0 0 C1.65 0 3.3 0 5 0 C5 1.65 5 3.3 5 5 C3.02 5.99 3.02 5.99 1 7 C1.185625 7.94875 1.37125 8.8975 1.5625 9.875 C2 13 2 13 1 15 C0.34 15 -0.32 15 -1 15 C-1.66 12.36 -2.32 9.72 -3 7 C-4.32 6.67 -5.64 6.34 -7 6 C-6.67 5.01 -6.34 4.02 -6 3 C-4.02 3.495 -4.02 3.495 -2 4 C-1.34 2.68 -0.68 1.36 0 0 Z " fill="#FFFFFF" transform="translate(295,219)"/>
<path d="M0 0 C0.66 0 1.32 0 2 0 C2.66 2.64 3.32 5.28 4 8 C5.32 8.33 6.64 8.66 8 9 C7.67 9.99 7.34 10.98 7 12 C5.35 12 3.7 12 2 12 C1.67 12.99 1.34 13.98 1 15 C-0.65 15 -2.3 15 -4 15 C-4 13.35 -4 11.7 -4 10 C-2.68 10 -1.36 10 0 10 C-0.185625 8.72125 -0.37125 7.4425 -0.5625 6.125 C-1.125 2.25 -1.125 2.25 0 0 Z " fill="#FFFFFF" transform="translate(14,62)"/>
<path d="M0 0 C7.52422907 -0.37004405 7.52422907 -0.37004405 9.6875 1.3125 C10.120625 1.869375 10.55375 2.42625 11 3 C11.86625 3.515625 12.7325 4.03125 13.625 4.5625 C16 6 16 6 17 8 C16.72057545 9.67654729 16.39171753 11.34608154 16 13 C14.125 12.3125 14.125 12.3125 12 11 C11.7525 10.175 11.505 9.35 11.25 8.5 C10.27904333 5.86963228 10.27904333 5.86963228 8.1015625 5.23046875 C6.08583321 4.73891371 4.04289537 4.36244918 2 4 C2 3.34 2 2.68 2 2 C1.34 2 0.68 2 0 2 C0 1.34 0 0.68 0 0 Z " fill="#FFFFFF" transform="translate(121,96)"/>
<path d="M0 0 C1.32 0.66 2.64 1.32 4 2 C0.48417174 6.66283606 -2.03648545 9.72210402 -8 11 C-8.66 10.01 -9.32 9.02 -10 8 C-9.36191406 7.50628906 -8.72382813 7.01257813 -8.06640625 6.50390625 C-7.24011719 5.86324219 -6.41382813 5.22257812 -5.5625 4.5625 C-4.73878906 3.92441406 -3.91507812 3.28632812 -3.06640625 2.62890625 C-1.12498733 1.16417803 -1.12498733 1.16417803 0 0 Z " fill="#FFFFFF" transform="translate(278,96)"/>
<path d="M0 0 C1.98 0.495 1.98 0.495 4 1 C4 4.63 4 8.26 4 12 C3.01 12.495 3.01 12.495 2 13 C2 12.34 2 11.68 2 11 C1.01 10.67 0.02 10.34 -1 10 C-1.02689216 8.52093108 -1.04634621 7.04172517 -1.0625 5.5625 C-1.07410156 4.73878906 -1.08570313 3.91507812 -1.09765625 3.06640625 C-1 1 -1 1 0 0 Z " fill="#FFFFFF" transform="translate(203,65)"/>
<path d="M0 0 C1.32 0 2.64 0 4 0 C4 0.99 4 1.98 4 3 C5.32 3 6.64 3 8 3 C8 2.01 8 1.02 8 0 C9.32 0 10.64 0 12 0 C11.67 1.32 11.34 2.64 11 4 C10.34 4 9.68 4 9 4 C9 5.32 9 6.64 9 8 C5.56801397 6.76067171 2.69674368 5.49698489 0 3 C0 2.01 0 1.02 0 0 Z " fill="#FFFFFF" transform="translate(236,187)"/>
<path d="M0 0 C1.8871875 0.061875 1.8871875 0.061875 3.8125 0.125 C3.4825 1.775 3.1525 3.425 2.8125 5.125 C1.53375 5.186875 0.255 5.24875 -1.0625 5.3125 C-1.78179687 5.34730469 -2.50109375 5.38210937 -3.2421875 5.41796875 C-3.88414062 5.32128906 -4.52609375 5.22460938 -5.1875 5.125 C-5.8475 4.135 -6.5075 3.145 -7.1875 2.125 C-4.09861478 0.06574319 -3.47814073 -0.1140374 0 0 Z " fill="#FFFFFF" transform="translate(214.1875,58.875)"/>
<path d="M0 0 C0.66 0 1.32 0 2 0 C2.39451163 3.45197673 2.21819966 4.7017938 0.125 7.5625 C-0.57625 8.366875 -1.2775 9.17125 -2 10 C-2.70885894 11.31138904 -3.39456452 12.63777017 -4 14 C-5.1875 12.3125 -5.1875 12.3125 -6 10 C-4.8125 7.5625 -4.8125 7.5625 -3 5 C-2.484375 4.071875 -1.96875 3.14375 -1.4375 2.1875 C-0.963125 1.465625 -0.48875 0.74375 0 0 Z " fill="#FFFFFF" transform="translate(244,126)"/>
<path d="M0 0 C0.99 0 1.98 0 3 0 C3 0.99 3 1.98 3 3 C2.01 3 1.02 3 0 3 C-0.33 4.65 -0.66 6.3 -1 8 C-2.32 8 -3.64 8 -5 8 C-4.67 6.35 -4.34 4.7 -4 3 C-2.68 2.67 -1.36 2.34 0 2 C0 1.34 0 0.68 0 0 Z " fill="#FFFFFF" transform="translate(57,330)"/>
<path d="M0 0 C1.65 0 3.3 0 5 0 C5 3 5 3 3.3125 5.25 C1 7 1 7 -1.75 6.75 C-2.4925 6.5025 -3.235 6.255 -4 6 C-3.67 5.34 -3.34 4.68 -3 4 C-2.34 4 -1.68 4 -1 4 C-0.67 2.68 -0.34 1.36 0 0 Z " fill="#FFFFFF" transform="translate(30,118)"/>
<path d="M0 0 C-0.33 1.65 -0.66 3.3 -1 5 C-2.98 5.66 -4.96 6.32 -7 7 C-6.6875 4.625 -6.6875 4.625 -6 2 C-3 0 -3 0 0 0 Z " fill="#FFFFFF" transform="translate(49,340)"/>
<path d="M0 0 C0.66 0 1.32 0 2 0 C1.93993922 1.45947705 1.8511311 2.91779272 1.75 4.375 C1.70359375 5.18710938 1.6571875 5.99921875 1.609375 6.8359375 C1 9 1 9 -1.046875 10.2890625 C-2.01367188 10.64097656 -2.01367188 10.64097656 -3 11 C-2.53199289 6.94393835 -2.12046792 3.53411321 0 0 Z " fill="#FFFFFF" transform="translate(81,219)"/>
<path d="M0 0 C1.423125 0.495 1.423125 0.495 2.875 1 C5.77062452 2.10159191 5.77062452 2.10159191 8 2 C8.33 3.65 8.66 5.3 9 7 C6.07459296 6.37312706 3.5164751 5.64872507 1 4 C0.25 1.875 0.25 1.875 0 0 Z " fill="#FFFFFF" transform="translate(51,48)"/>
<path d="M0 0 C2 1.375 2 1.375 4 3 C4 3.66 4 4.32 4 5 C3.01 5.495 3.01 5.495 2 6 C1.67 6.99 1.34 7.98 1 9 C1.99 9 2.98 9 4 9 C4 9.66 4 10.32 4 11 C2.35 10.67 0.7 10.34 -1 10 C-1.02689216 8.52093108 -1.04634621 7.04172517 -1.0625 5.5625 C-1.07410156 4.73878906 -1.08570313 3.91507812 -1.09765625 3.06640625 C-1 1 -1 1 0 0 Z " fill="#FFFFFF" transform="translate(312,1)"/>
<path d="M0 0 C1.98 0.495 1.98 0.495 4 1 C4.33 3.31 4.66 5.62 5 8 C2.525 7.01 2.525 7.01 0 6 C0 4 0 2 0 0 Z " fill="#FFFFFF" transform="translate(94,156)"/>
<path d="M0 0 C1.65 0 3.3 0 5 0 C5.33 1.65 5.66 3.3 6 5 C6.66 5 7.32 5 8 5 C8 5.99 8 6.98 8 8 C7.01 7.67 6.02 7.34 5 7 C5 6.01 5 5.02 5 4 C3.02 3.34 1.04 2.68 -1 2 C-0.67 1.34 -0.34 0.68 0 0 Z " fill="#FFFFFF" transform="translate(19,11)"/>
<path d="M0 0 C2.35964273 0.40683495 3.85934088 0.89814339 5.8125 2.3125 C7 4 7 4 6.6875 6.1875 C6.460625 6.785625 6.23375 7.38375 6 8 C5.34 8 4.68 8 4 8 C4 6.68 4 5.36 4 4 C2.68 3.67 1.36 3.34 0 3 C0 2.01 0 1.02 0 0 Z " fill="#FFFFFF" transform="translate(74,146)"/>
<path d="M0 0 C0.33 0.99 0.66 1.98 1 3 C-1.8125 3.6875 -1.8125 3.6875 -5 4 C-6.875 2.5625 -6.875 2.5625 -8 1 C-5.29120665 -0.35439668 -2.99066732 -0.06501451 0 0 Z " fill="#FFFFFF" transform="translate(315,327)"/>
<path d="M0 0 C1.2065625 0.0309375 1.2065625 0.0309375 2.4375 0.0625 C2.4375 2.0625 2.4375 2.0625 0.625 4.1875 C-1.5625 6.0625 -1.5625 6.0625 -4.5625 6.0625 C-3.48963568 0.08511307 -3.48963568 0.08511307 0 0 Z " fill="#FFFFFF" transform="translate(152.5625,109.9375)"/>
<path d="M0 0 C1.2065625 0.0309375 1.2065625 0.0309375 2.4375 0.0625 C2.4375 2.3725 2.4375 4.6825 2.4375 7.0625 C1.4475 7.0625 0.4575 7.0625 -0.5625 7.0625 C-0.5625 5.4125 -0.5625 3.7625 -0.5625 2.0625 C-1.5525 1.7325 -2.5425 1.4025 -3.5625 1.0625 C-2.5625 0.0625 -2.5625 0.0625 0 0 Z " fill="#FFFFFF" transform="translate(313.5625,21.9375)"/>
<path d="M0 0 C1.32 0 2.64 0 4 0 C4 1.98 4 3.96 4 6 C2.68 6 1.36 6 0 6 C0 4.02 0 2.04 0 0 Z " fill="#FFFFFF" transform="translate(37,11)"/>
<path d="M0 0 C1.32 0 2.64 0 4 0 C3.75 2.375 3.75 2.375 3 5 C0.9375 6.3125 0.9375 6.3125 -1 7 C-0.67 4.69 -0.34 2.38 0 0 Z " fill="#FFFFFF" transform="translate(14,299)"/>
<path d="M0 0 C1.32 0 2.64 0 4 0 C6.25 3 6.25 3 8 6 C7.01 6.33 6.02 6.66 5 7 C5 6.01 5 5.02 5 4 C3.35 3.67 1.7 3.34 0 3 C0 2.01 0 1.02 0 0 Z " fill="#FFFFFF" transform="translate(269,294)"/>
<path d="M0 0 C2.125 0.9375 2.125 0.9375 4 2 C3.01 3.32 2.02 4.64 1 6 C0.01 5.67 -0.98 5.34 -2 5 C-2 3.68 -2 2.36 -2 1 C-1.34 0.67 -0.68 0.34 0 0 Z " fill="#FFFFFF" transform="translate(220,46)"/>
<path d="M0 0 C1.98 0 3.96 0 6 0 C6 0.99 6 1.98 6 3 C4.02 3.33 2.04 3.66 0 4 C0 2.68 0 1.36 0 0 Z " fill="#FFFFFF" transform="translate(237,278)"/>
<path d="M0 0 C0.99 0 1.98 0 3 0 C3 1.32 3 2.64 3 4 C2.01 4 1.02 4 0 4 C0 4.66 0 5.32 0 6 C-0.99 6 -1.98 6 -3 6 C-2.67 4.68 -2.34 3.36 -2 2 C-1.34 2 -0.68 2 0 2 C0 1.34 0 0.68 0 0 Z " fill="#FFFFFF" transform="translate(217,166)"/>
<path d="M0 0 C0.99 0.99 1.98 1.98 3 3 C2.67 3.99 2.34 4.98 2 6 C0.68 6 -0.64 6 -2 6 C-2 4.35 -2 2.7 -2 1 C-1.34 0.67 -0.68 0.34 0 0 Z " fill="#FFFFFF" transform="translate(227,151)"/>
<path d="M0 0 C2.97 0.495 2.97 0.495 6 1 C6.33 1.99 6.66 2.98 7 4 C4.69 3.67 2.38 3.34 0 3 C0 2.01 0 1.02 0 0 Z " fill="#FFFFFF" transform="translate(42,274)"/>
<path d="M0 0 C0.33 1.32 0.66 2.64 1 4 C-0.32 4.33 -1.64 4.66 -3 5 C-3.66 3.68 -4.32 2.36 -5 1 C-3 0 -3 0 0 0 Z " fill="#FFFFFF" transform="translate(232,177)"/>
<path d="M0 0 C2.91517292 1.07401108 4.77810176 1.77810176 7 4 C6 5 6 5 3.4375 5.0625 C2.2309375 5.0315625 2.2309375 5.0315625 1 5 C0.67 3.35 0.34 1.7 0 0 Z " fill="#FFFFFF" transform="translate(98,75)"/>
<path d="M0 0 C1.65 0 3.3 0 5 0 C5 1.32 5 2.64 5 4 C3.35 3.67 1.7 3.34 0 3 C0 2.01 0 1.02 0 0 Z " fill="#FFFFFF" transform="translate(76,59)"/>
<path d="M0 0 C1.65 0 3.3 0 5 0 C5.33 0.99 5.66 1.98 6 3 C2.98968256 3.93423645 2.13349732 4.04449911 -1 3 C-0.67 2.01 -0.34 1.02 0 0 Z " fill="#FFFFFF" transform="translate(44,267)"/>
<path d="M0 0 C0.99 0 1.98 0 3 0 C5.1875 2.5 5.1875 2.5 7 5 C5.02 5 3.04 5 1 5 C0.67 3.35 0.34 1.7 0 0 Z " fill="#FFFFFF" transform="translate(85,59)"/>
<path d="M0 0 C1.32 0.33 2.64 0.66 4 1 C4.33 2.32 4.66 3.64 5 5 C2 5 2 5 0 4 C0 2.68 0 1.36 0 0 Z " fill="#FFFFFF" transform="translate(29,14)"/>
<path d="M0 0 C0.99 0 1.98 0 3 0 C3 1.98 3 3.96 3 6 C2.01 6.33 1.02 6.66 0 7 C0 4.69 0 2.38 0 0 Z " fill="#FFFFFF" transform="translate(345,283)"/>
<path d="M0 0 C2.475 0.99 2.475 0.99 5 2 C5 2.66 5 3.32 5 4 C2.03 4 -0.94 4 -4 4 C-4 3.34 -4 2.68 -4 2 C-2.68 2 -1.36 2 0 2 C0 1.34 0 0.68 0 0 Z " fill="#FFFFFF" transform="translate(190,228)"/>
<path d="M0 0 C-1.8125 2 -1.8125 2 -4 4 C-4.99 4 -5.98 4 -7 4 C-6.625 2.0625 -6.625 2.0625 -6 0 C-3.50907189 -1.24546405 -2.58919267 -0.7767578 0 0 Z " fill="#FFFFFF" transform="translate(156,265)"/>
<path d="M0 0 C0.99 0.33 1.98 0.66 3 1 C3 2.65 3 4.3 3 6 C2.01 6 1.02 6 0 6 C0 4.02 0 2.04 0 0 Z " fill="#FFFFFF" transform="translate(58,255)"/>
<path d="M0 0 C1.32 0.33 2.64 0.66 4 1 C3.67 2.32 3.34 3.64 3 5 C2.01 5 1.02 5 0 5 C0 3.35 0 1.7 0 0 Z " fill="#FFFFFF" transform="translate(87,221)"/>
<path d="M0 0 C2.475 0.99 2.475 0.99 5 2 C4.67 2.66 4.34 3.32 4 4 C2.35 4 0.7 4 -1 4 C-0.67 2.68 -0.34 1.36 0 0 Z " fill="#FFFFFF" transform="translate(38,121)"/>
<path d="M0 0 C1.65 0 3.3 0 5 0 C5 0.99 5 1.98 5 3 C3.68 3.33 2.36 3.66 1 4 C0.67 2.68 0.34 1.36 0 0 Z " fill="#FFFFFF" transform="translate(240,27)"/>
<path d="M0 0 C0.99 0 1.98 0 3 0 C2.67 1.65 2.34 3.3 2 5 C1.01 4.67 0.02 4.34 -1 4 C-0.67 2.68 -0.34 1.36 0 0 Z " fill="#FFFFFF" transform="translate(57,340)"/>
<path d="M0 0 C3 0 3 0 4.6875 1.375 C6 3 6 3 6 5 C5.01 5 4.02 5 3 5 C3 4.34 3 3.68 3 3 C2.01 3 1.02 3 0 3 C0 2.01 0 1.02 0 0 Z " fill="#FFFFFF" transform="translate(246,122)"/>
<path d="M0 0 C0.99 0.33 1.98 0.66 3 1 C2.34 2.65 1.68 4.3 1 6 C0.34 5.67 -0.32 5.34 -1 5 C-0.67 3.35 -0.34 1.7 0 0 Z " fill="#FFFFFF" transform="translate(27,109)"/>
<path d="M0 0 C1.32 0.33 2.64 0.66 4 1 C3.67 2.32 3.34 3.64 3 5 C2.01 4.67 1.02 4.34 0 4 C0 2.68 0 1.36 0 0 Z " fill="#FFFFFF" transform="translate(240,34)"/>
<path d="M0 0 C1.32 0.33 2.64 0.66 4 1 C4 1.99 4 2.98 4 4 C2.68 4 1.36 4 0 4 C0 2.68 0 1.36 0 0 Z " fill="#FFFFFF" transform="translate(218,265)"/>
<path d="M0 0 C1.32 0.33 2.64 0.66 4 1 C4 1.99 4 2.98 4 4 C2.68 4 1.36 4 0 4 C0 2.68 0 1.36 0 0 Z " fill="#FFFFFF" transform="translate(325,254)"/>
<path d="M0 0 C1.65 0 3.3 0 5 0 C5 0.99 5 1.98 5 3 C3.35 3 1.7 3 0 3 C0 2.01 0 1.02 0 0 Z " fill="#FFFFFF" transform="translate(210,250)"/>
<path d="M0 0 C1.32 0 2.64 0 4 0 C4 0.99 4 1.98 4 3 C2.02 3.99 2.02 3.99 0 5 C0 3.35 0 1.7 0 0 Z " fill="#FFFFFF" transform="translate(93,203)"/>
<path d="M0 0 C1.32 0.33 2.64 0.66 4 1 C4 1.99 4 2.98 4 4 C2.68 4 1.36 4 0 4 C0 2.68 0 1.36 0 0 Z " fill="#FFFFFF" transform="translate(74,153)"/>
<path d="M0 0 C0.66 0.33 1.32 0.66 2 1 C1.67 2.32 1.34 3.64 1 5 C-0.65 5 -2.3 5 -4 5 C-2.68 3.35 -1.36 1.7 0 0 Z " fill="#FFFFFF" transform="translate(254,11)"/>
<path d="M0 0 C1.32 0 2.64 0 4 0 C3.67 1.32 3.34 2.64 3 4 C2.01 4 1.02 4 0 4 C0 2.68 0 1.36 0 0 Z " fill="#FFFFFF" transform="translate(261,11)"/>
<path d="M0 0 C0.66 0 1.32 0 2 0 C2 1.65 2 3.3 2 5 C1.01 5 0.02 5 -1 5 C-0.67 3.35 -0.34 1.7 0 0 Z " fill="#FFFFFF" transform="translate(330,259)"/>
<path d="M0 0 C1.32 0 2.64 0 4 0 C4 0.99 4 1.98 4 3 C2.35 3 0.7 3 -1 3 C-0.67 2.01 -0.34 1.02 0 0 Z " fill="#FFFFFF" transform="translate(320,251)"/>
<path d="M0 0 C0.99 0.33 1.98 0.66 3 1 C2.67 1.99 2.34 2.98 2 4 C1.01 4 0.02 4 -1 4 C-0.67 2.68 -0.34 1.36 0 0 Z " fill="#FFFFFF" transform="translate(118,293)"/>
<path d="M0 0 C1.32 0.33 2.64 0.66 4 1 C3.67 1.99 3.34 2.98 3 4 C2.01 4 1.02 4 0 4 C0 2.68 0 1.36 0 0 Z " fill="#FFFFFF" transform="translate(42,282)"/>
<path d="M0 0 C0.66 0 1.32 0 2 0 C2.33 1.32 2.66 2.64 3 4 C1.35 4 -0.3 4 -2 4 C-1.34 2.68 -0.68 1.36 0 0 Z " fill="#FFFFFF" transform="translate(151,254)"/>
<path d="M0 0 C0 1.65 0 3.3 0 5 C-0.99 5 -1.98 5 -3 5 C-3 3.68 -3 2.36 -3 1 C-1 0 -1 0 0 0 Z " fill="#FFFFFF" transform="translate(172,221)"/>
<path d="M0 0 C1.32 0.33 2.64 0.66 4 1 C4 1.99 4 2.98 4 4 C2.68 4 1.36 4 0 4 C0 2.68 0 1.36 0 0 Z " fill="#FFFFFF" transform="translate(110,169)"/>
<path d="M0 0 C-0.33 1.32 -0.66 2.64 -1 4 C-2.32 3.67 -3.64 3.34 -5 3 C-2.25 0 -2.25 0 0 0 Z " fill="#FFFFFF" transform="translate(284,88)"/>
<path d="M0 0 C1.98 0.495 1.98 0.495 4 1 C4 1.66 4 2.32 4 3 C2.35 3 0.7 3 -1 3 C-0.67 2.01 -0.34 1.02 0 0 Z " fill="#FFFFFF" transform="translate(309,58)"/>
<path d="M0 0 C0.33 0.66 0.66 1.32 1 2 C1.99 2 2.98 2 4 2 C4 2.66 4 3.32 4 4 C2.68 4.33 1.36 4.66 0 5 C-0.33 4.34 -0.66 3.68 -1 3 C-0.67 2.01 -0.34 1.02 0 0 Z " fill="#FFFFFF" transform="translate(9,56)"/>
<path d="M0 0 C1.32 0 2.64 0 4 0 C3.67 1.32 3.34 2.64 3 4 C2.01 3.67 1.02 3.34 0 3 C0 2.01 0 1.02 0 0 Z " fill="#FFFFFF" transform="translate(53,43)"/>
<path d="M0 0 C0.66 0.33 1.32 0.66 2 1 C2 2.32 2 3.64 2 5 C1.01 5 0.02 5 -1 5 C-0.67 3.35 -0.34 1.7 0 0 Z " fill="#FFFFFF" transform="translate(42,19)"/>
<path d="M0 0 C1.32 0 2.64 0 4 0 C4 0.99 4 1.98 4 3 C2.68 3 1.36 3 0 3 C0 2.01 0 1.02 0 0 Z " fill="#FFFFFF" transform="translate(113,298)"/>
<path d="M0 0 C1.32 0 2.64 0 4 0 C4 0.99 4 1.98 4 3 C2.68 3 1.36 3 0 3 C0 2.01 0 1.02 0 0 Z " fill="#FFFFFF" transform="translate(61,251)"/>
<path d="M0 0 C0.99 0 1.98 0 3 0 C3 1.32 3 2.64 3 4 C2.01 4 1.02 4 0 4 C0 2.68 0 1.36 0 0 Z " fill="#FFFFFF" transform="translate(249,117)"/>
<path d="M0 0 C1.98 0.495 1.98 0.495 4 1 C3.67 1.66 3.34 2.32 3 3 C1.68 3 0.36 3 -1 3 C-0.67 2.01 -0.34 1.02 0 0 Z " fill="#FFFFFF" transform="translate(174,107)"/>
<path d="M0 0 C0.66 0 1.32 0 2 0 C1.67 1.65 1.34 3.3 1 5 C0.34 4.67 -0.32 4.34 -1 4 C-0.67 2.68 -0.34 1.36 0 0 Z " fill="#FFFFFF" transform="translate(106,81)"/>
<path d="M0 0 C0.99 0 1.98 0 3 0 C3 1.32 3 2.64 3 4 C2.01 4 1.02 4 0 4 C0 2.68 0 1.36 0 0 Z " fill="#FFFFFF" transform="translate(202,78)"/>
<path d="M0 0 C1.32 0.33 2.64 0.66 4 1 C4 1.99 4 2.98 4 4 C2.68 3.67 1.36 3.34 0 3 C0 2.01 0 1.02 0 0 Z " fill="#FFFFFF" transform="translate(81,65)"/>
<path d="M0 0 C0.99 0 1.98 0 3 0 C3 0.99 3 1.98 3 3 C1.68 3 0.36 3 -1 3 C-0.67 2.01 -0.34 1.02 0 0 Z " fill="#FFFFFF" transform="translate(190,234)"/>
<path d="M0 0 C0.99 0.33 1.98 0.66 3 1 C2.67 2.32 2.34 3.64 2 5 C1.34 4.67 0.68 4.34 0 4 C0 2.68 0 1.36 0 0 Z " fill="#FFFFFF" transform="translate(265,209)"/>
<path d="M0 0 C1.65 0 3.3 0 5 0 C5 0.66 5 1.32 5 2 C3.68 2.33 2.36 2.66 1 3 C0.67 2.01 0.34 1.02 0 0 Z " fill="#FFFFFF" transform="translate(2,30)"/>
<path d="M0 0 C0.99 0.33 1.98 0.66 3 1 C2.01 2.485 2.01 2.485 1 4 C0.34 4 -0.32 4 -1 4 C-0.67 2.68 -0.34 1.36 0 0 Z " fill="#FFFFFF" transform="translate(35,302)"/>
<path d="M0 0 C0.99 0.33 1.98 0.66 3 1 C3 1.99 3 2.98 3 4 C2.01 4 1.02 4 0 4 C0 2.68 0 1.36 0 0 Z " fill="#FFFFFF" transform="translate(255,281)"/>
<path d="M0 0 C0.33 0.99 0.66 1.98 1 3 C-0.32 3 -1.64 3 -3 3 C-2.01 2.01 -1.02 1.02 0 0 Z " fill="#FFFFFF" transform="translate(193,96)"/>
<path d="M0 0 C0.66 0 1.32 0 2 0 C1.67 1.32 1.34 2.64 1 4 C0.34 4 -0.32 4 -1 4 C-0.67 2.68 -0.34 1.36 0 0 Z " fill="#FFFFFF" transform="translate(257,17)"/>
<path d="M0 0 C1.98 0.99 1.98 0.99 4 2 C3.67 2.66 3.34 3.32 3 4 C2.34 4 1.68 4 1 4 C0.67 2.68 0.34 1.36 0 0 Z " fill="#FFFFFF" transform="translate(287,309)"/>
<path d="M0 0 C0.99 0 1.98 0 3 0 C3 0.99 3 1.98 3 3 C2.01 3 1.02 3 0 3 C0 2.01 0 1.02 0 0 Z " fill="#FFFFFF" transform="translate(282,310)"/>
<path d="M0 0 C1.98 0.99 1.98 0.99 4 2 C2.68 2.33 1.36 2.66 0 3 C0 2.01 0 1.02 0 0 Z " fill="#FFFFFF" transform="translate(137,265)"/>
<path d="M0 0 C0.99 0 1.98 0 3 0 C3 0.99 3 1.98 3 3 C2.01 3 1.02 3 0 3 C0 2.01 0 1.02 0 0 Z " fill="#FFFFFF" transform="translate(303,235)"/>
<path d="M0 0 C0.66 0 1.32 0 2 0 C1.67 1.32 1.34 2.64 1 4 C0.34 3.67 -0.32 3.34 -1 3 C-0.67 2.01 -0.34 1.02 0 0 Z " fill="#FFFFFF" transform="translate(75,219)"/>
<path d="M0 0 C0.99 0 1.98 0 3 0 C3 0.99 3 1.98 3 3 C2.01 3 1.02 3 0 3 C0 2.01 0 1.02 0 0 Z " fill="#FFFFFF" transform="translate(65,138)"/>
<path d="M0 0 C0.99 0 1.98 0 3 0 C3 0.99 3 1.98 3 3 C2.01 3 1.02 3 0 3 C0 2.01 0 1.02 0 0 Z " fill="#FFFFFF" transform="translate(170,111)"/>
<path d="M0 0 C0.99 0 1.98 0 3 0 C3 0.99 3 1.98 3 3 C2.01 3 1.02 3 0 3 C0 2.01 0 1.02 0 0 Z " fill="#FFFFFF" transform="translate(218,63)"/>
<path d="M0 0 C0.99 0 1.98 0 3 0 C3 0.99 3 1.98 3 3 C2.01 3 1.02 3 0 3 C0 2.01 0 1.02 0 0 Z " fill="#FFFFFF" transform="translate(45,43)"/>
<path d="M0 0 C0.66 0 1.32 0 2 0 C2 0.99 2 1.98 2 3 C1.01 3 0.02 3 -1 3 C-0.67 2.01 -0.34 1.02 0 0 Z " fill="#FFFFFF" transform="translate(294,235)"/>
<path d="M0 0 C0.99 0.33 1.98 0.66 3 1 C3 1.66 3 2.32 3 3 C2.01 3 1.02 3 0 3 C0 2.01 0 1.02 0 0 Z " fill="#FFFFFF" transform="translate(265,203)"/>
<path d="M0 0 C0.33 1.32 0.66 2.64 1 4 C0.01 4.495 0.01 4.495 -1 5 C-0.67 3.35 -0.34 1.7 0 0 Z " fill="#FFFFFF" transform="translate(110,195)"/>
<path d="M0 0 C0.99 0.33 1.98 0.66 3 1 C2.67 1.66 2.34 2.32 2 3 C1.01 2.67 0.02 2.34 -1 2 C-0.67 1.34 -0.34 0.68 0 0 Z " fill="#FFFFFF" transform="translate(226,171)"/>
<path d="M0 0 C0.99 0.33 1.98 0.66 3 1 C3 1.66 3 2.32 3 3 C2.01 3 1.02 3 0 3 C0 2.01 0 1.02 0 0 Z " fill="#FFFFFF" transform="translate(233,149)"/>
<path d="M0 0 C0.66 0 1.32 0 2 0 C1.67 1.32 1.34 2.64 1 4 C0.67 2.68 0.34 1.36 0 0 Z " fill="#FFFFFF" transform="translate(29,299)"/>
<path d="M0 0 C0.33 1.32 0.66 2.64 1 4 C0.01 3.01 -0.98 2.02 -2 1 C-1.34 0.67 -0.68 0.34 0 0 Z " fill="#FFFFFF" transform="translate(339,283)"/>
<path d="M0 0 C0.99 0.33 1.98 0.66 3 1 C2.01 1.66 1.02 2.32 0 3 C0 2.01 0 1.02 0 0 Z " fill="#FFFFFF" transform="translate(313,238)"/>
<path d="M0 0 C0 0.99 0 1.98 0 3 C-0.99 2.67 -1.98 2.34 -3 2 C-2.01 1.34 -1.02 0.68 0 0 Z " fill="#FFFFFF" transform="translate(266,103)"/>
<path d="M0 0 C0.66 0.33 1.32 0.66 2 1 C2 1.66 2 2.32 2 3 C1.01 3 0.02 3 -1 3 C-0.67 2.01 -0.34 1.02 0 0 Z " fill="#FFFFFF" transform="translate(187,93)"/>
<path d="M0 0 C0.66 0.33 1.32 0.66 2 1 C2 1.66 2 2.32 2 3 C1.01 3 0.02 3 -1 3 C-0.67 2.01 -0.34 1.02 0 0 Z " fill="#FFFFFF" transform="translate(314,53)"/>
<path d="M0 0 C0.66 0 1.32 0 2 0 C1.67 1.32 1.34 2.64 1 4 C0.67 2.68 0.34 1.36 0 0 Z " fill="#FFFFFF" transform="translate(0,35)"/>
<path d="M0 0 C0.66 0 1.32 0 2 0 C2 0.99 2 1.98 2 3 C1.34 3 0.68 3 0 3 C0 2.01 0 1.02 0 0 Z " fill="#FFFFFF" transform="translate(19,330)"/>
<path d="M0 0 C0.99 0 1.98 0 3 0 C3 0.66 3 1.32 3 2 C2.01 2 1.02 2 0 2 C0 1.34 0 0.68 0 0 Z " fill="#FFFFFF" transform="translate(58,139)"/>
<path d="M0 0 C0.99 0 1.98 0 3 0 C3 0.66 3 1.32 3 2 C2.01 2 1.02 2 0 2 C0 1.34 0 0.68 0 0 Z " fill="#FFFFFF" transform="translate(58,134)"/>
<path d="M0 0 C1.98 0.99 1.98 0.99 4 2 C2.68 2 1.36 2 0 2 C0 1.34 0 0.68 0 0 Z " fill="#FFFFFF" transform="translate(29,90)"/>
<path d="M0 0 C0.66 0 1.32 0 2 0 C2 0.99 2 1.98 2 3 C1.34 3 0.68 3 0 3 C0 2.01 0 1.02 0 0 Z " fill="#FFFFFF" transform="translate(0,27)"/>
<path d="M0 0 C0.99 0 1.98 0 3 0 C3 0.66 3 1.32 3 2 C2.01 2 1.02 2 0 2 C0 1.34 0 0.68 0 0 Z " fill="#FFFFFF" transform="translate(13,14)"/>
<path d="M0 0 C0.66 0 1.32 0 2 0 C2 0.66 2 1.32 2 2 C1.01 1.67 0.02 1.34 -1 1 C-0.67 0.67 -0.34 0.34 0 0 Z " fill="#FFFFFF" transform="translate(53,272)"/>
<path d="M0 0 C0.99 0 1.98 0 3 0 C3 0.66 3 1.32 3 2 C2.01 1.67 1.02 1.34 0 1 C0 0.67 0 0.34 0 0 Z " fill="#FFFFFF" transform="translate(202,237)"/>
<path d="M0 0 C0.99 0.33 1.98 0.66 3 1 C2.01 1.33 1.02 1.66 0 2 C0 1.34 0 0.68 0 0 Z " fill="#FFFFFF" transform="translate(106,201)"/>
<path d="M0 0 C0.99 0.33 1.98 0.66 3 1 C2.01 1.33 1.02 1.66 0 2 C0 1.34 0 0.68 0 0 Z " fill="#FFFFFF" transform="translate(233,185)"/>
<path d="M0 0 C0.99 1.485 0.99 1.485 2 3 C1.01 3.495 1.01 3.495 0 4 C0 2.68 0 1.36 0 0 Z " fill="#FFFFFF" transform="translate(0,53)"/>
<path d="M0 0 C0 3 0 3 0 3 Z " fill="#FFFFFF" transform="translate(267,298)"/>
<path d="M0 0 C0.66 0.66 1.32 1.32 2 2 C1.01 2.495 1.01 2.495 0 3 C0 2.01 0 1.02 0 0 Z " fill="#FFFFFF" transform="translate(122,298)"/>
<path d="M0 0 C0.66 0 1.32 0 2 0 C2 0.66 2 1.32 2 2 C1.34 2 0.68 2 0 2 C0 1.34 0 0.68 0 0 Z " fill="#FFFFFF" transform="translate(122,289)"/>
<path d="M0 0 C0.66 0.66 1.32 1.32 2 2 C1.01 1.67 0.02 1.34 -1 1 C-0.67 0.67 -0.34 0.34 0 0 Z " fill="#FFFFFF" transform="translate(170,234)"/>
<path d="M0 0 C0.66 0 1.32 0 2 0 C2 0.66 2 1.32 2 2 C1.34 2 0.68 2 0 2 C0 1.34 0 0.68 0 0 Z " fill="#FFFFFF" transform="translate(46,123)"/>
<path d="M0 0 C0.99 0.33 1.98 0.66 3 1 C2.01 1.33 1.02 1.66 0 2 C0 1.34 0 0.68 0 0 Z " fill="#FFFFFF" transform="translate(30,107)"/>
<path d="M0 0 C0.66 0 1.32 0 2 0 C2 0.66 2 1.32 2 2 C1.34 2 0.68 2 0 2 C0 1.34 0 0.68 0 0 Z " fill="#FFFFFF" transform="translate(73,62)"/>
<path d="M0 0 C0.99 0.33 1.98 0.66 3 1 C2.01 1 1.02 1 0 1 C0 0.67 0 0.34 0 0 Z " fill="#FFFFFF" transform="translate(4,59)"/>
<path d="M0 0 C0.66 0 1.32 0 2 0 C2 0.66 2 1.32 2 2 C1.34 2 0.68 2 0 2 C0 1.34 0 0.68 0 0 Z " fill="#FFFFFF" transform="translate(13,56)"/>
<path d="M0 0 C0 3 0 3 0 3 Z " fill="#FFFFFF" transform="translate(2,42)"/>
<path d="M0 0 C0.99 0.33 1.98 0.66 3 1 C2.01 1 1.02 1 0 1 C0 0.67 0 0.34 0 0 Z " fill="#FFFFFF" transform="translate(235,31)"/>
<path d="M0 0 C0.66 0 1.32 0 2 0 C2 0.66 2 1.32 2 2 C1.34 2 0.68 2 0 2 C0 1.34 0 0.68 0 0 Z " fill="#FFFFFF" transform="translate(10,27)"/>
<path d="M0 0 C3 1 3 1 3 1 Z " fill="#FFFFFF" transform="translate(53,346)"/>
<path d="M0 0 C3 1 3 1 3 1 Z " fill="#FFFFFF" transform="translate(21,343)"/>
<path d="M0 0 C3 1 3 1 3 1 Z " fill="#FFFFFF" transform="translate(331,332)"/>
<path d="" fill="#FFFFFF" transform="translate(0,0)"/>
<path d="M0 0 C0.66 0 1.32 0 2 0 C1.67 0.66 1.34 1.32 1 2 C0.67 1.34 0.34 0.68 0 0 Z " fill="#FFFFFF" transform="translate(297,239)"/>
<path d="" fill="#FFFFFF" transform="translate(0,0)"/>
<path d="M0 0 C2 1 2 1 2 1 Z " fill="#FFFFFF" transform="translate(295,345)"/>
<path d="M0 0 C2 1 2 1 2 1 Z " fill="#FFFFFF" transform="translate(317,340)"/>
<path d="M0 0 C2 1 2 1 2 1 Z " fill="#FFFFFF" transform="translate(299,335)"/>
<path d="M0 0 C2 1 2 1 2 1 Z " fill="#FFFFFF" transform="translate(7,321)"/>
<path d="M0 0 C2 1 2 1 2 1 Z " fill="#FFFFFF" transform="translate(320,320)"/>
<path d="" fill="#FFFFFF" transform="translate(0,0)"/>
<path d="" fill="#FFFFFF" transform="translate(0,0)"/>
<path d="M0 0 C2 1 2 1 2 1 Z " fill="#FFFFFF" transform="translate(105,79)"/>
<path d="M0 0 C2 1 2 1 2 1 Z " fill="#FFFFFF" transform="translate(90,71)"/>
<path d="M0 0 C2 1 2 1 2 1 Z " fill="#FFFFFF" transform="translate(313,16)"/>
<path d="" fill="#FFFFFF" transform="translate(0,0)"/>
<path d="" fill="#FFFFFF" transform="translate(0,0)"/>
<path d="" fill="#FFFFFF" transform="translate(0,0)"/>
<path d="" fill="#FFFFFF" transform="translate(0,0)"/>
<path d="" fill="#FFFFFF" transform="translate(0,0)"/>
<path d="" fill="#FFFFFF" transform="translate(0,0)"/>
<path d="" fill="#FFFFFF" transform="translate(0,0)"/>
<path d="" fill="#FFFFFF" transform="translate(0,0)"/>
<path d="" fill="#FFFFFF" transform="translate(0,0)"/>
<path d="" fill="#FFFFFF" transform="translate(0,0)"/>
<path d="" fill="#FFFFFF" transform="translate(0,0)"/>
<path d="" fill="#FFFFFF" transform="translate(0,0)"/>
<path d="" fill="#FFFFFF" transform="translate(0,0)"/>
<path d="" fill="#FFFFFF" transform="translate(0,0)"/>
<path d="" fill="#FFFFFF" transform="translate(0,0)"/>
<path d="" fill="#FFFFFF" transform="translate(0,0)"/>
<path d="" fill="#FFFFFF" transform="translate(0,0)"/>
<path d="" fill="#FFFFFF" transform="translate(0,0)"/>
<path d="" fill="#FFFFFF" transform="translate(0,0)"/>
<path d="" fill="#FFFFFF" transform="translate(0,0)"/>
<path d="" fill="#FFFFFF" transform="translate(0,0)"/>
<path d="" fill="#FFFFFF" transform="translate(0,0)"/>
<path d="" fill="#FFFFFF" transform="translate(0,0)"/>
<path d="" fill="#FFFFFF" transform="translate(0,0)"/>
<path d="" fill="#FFFFFF" transform="translate(0,0)"/>
<path d="" fill="#FFFFFF" transform="translate(0,0)"/>
<path d="" fill="#FFFFFF" transform="translate(0,0)"/>
<path d="" fill="#FFFFFF" transform="translate(0,0)"/>
<path d="" fill="#FFFFFF" transform="translate(0,0)"/>
<path d="" fill="#FFFFFF" transform="translate(0,0)"/>
<path d="" fill="#FFFFFF" transform="translate(0,0)"/>
<path d="" fill="#FFFFFF" transform="translate(0,0)"/>
<path d="" fill="#FFFFFF" transform="translate(0,0)"/>
<path d="" fill="#FFFFFF" transform="translate(0,0)"/>
<path d="" fill="#FFFFFF" transform="translate(0,0)"/>
<path d="" fill="#FFFFFF" transform="translate(0,0)"/>
<path d="" fill="#FFFFFF" transform="translate(0,0)"/>
<path d="" fill="#FFFFFF" transform="translate(0,0)"/>
<path d="" fill="#FFFFFF" transform="translate(0,0)"/>
<path d="" fill="#FFFFFF" transform="translate(0,0)"/>
<path d="" fill="#FFFFFF" transform="translate(0,0)"/>
<path d="" fill="#FFFFFF" transform="translate(0,0)"/>
<path d="" fill="#FFFFFF" transform="translate(0,0)"/>
<path d="" fill="#FFFFFF" transform="translate(0,0)"/>
<path d="" fill="#FFFFFF" transform="translate(0,0)"/>
<path d="" fill="#FFFFFF" transform="translate(0,0)"/>
<path d="" fill="#FFFFFF" transform="translate(0,0)"/>
<path d="" fill="#FFFFFF" transform="translate(0,0)"/>
<path d="" fill="#FFFFFF" transform="translate(0,0)"/>
<path d="" fill="#FFFFFF" transform="translate(0,0)"/>
<path d="" fill="#FFFFFF" transform="translate(0,0)"/>
<path d="" fill="#FFFFFF" transform="translate(0,0)"/>
<path d="" fill="#FFFFFF" transform="translate(0,0)"/>
<path d="" fill="#FFFFFF" transform="translate(0,0)"/>
<path d="" fill="#FFFFFF" transform="translate(0,0)"/>
<path d="" fill="#FFFFFF" transform="translate(0,0)"/>
<path d="" fill="#FFFFFF" transform="translate(0,0)"/>
<path d="" fill="#FFFFFF" transform="translate(0,0)"/>
<path d="" fill="#FFFFFF" transform="translate(0,0)"/>
<path d="" fill="#FFFFFF" transform="translate(0,0)"/>
<path d="" fill="#FFFFFF" transform="translate(0,0)"/>
<path d="" fill="#FFFFFF" transform="translate(0,0)"/>
</svg>
