<?xml version="1.0" encoding="UTF-8" standalone="no"?>
<!DOCTYPE svg PUBLIC "-//W3C//DTD SVG 1.1//EN" "http://www.w3.org/Graphics/SVG/1.1/DTD/svg11.dtd">
<svg width="100%" height="100%" viewBox="0 0 686 452" version="1.1" xmlns="http://www.w3.org/2000/svg" xmlns:xlink="http://www.w3.org/1999/xlink" xml:space="preserve" xmlns:serif="http://www.serif.com/" style="fill-rule:evenodd;clip-rule:evenodd;stroke-linejoin:round;stroke-miterlimit:2;">
    <path d="M332.143,222.038C332.682,222.372 333.519,223.117 333.712,222.977C335.3,221.818 336.866,220.593 338.259,219.207C353.775,203.779 369.202,188.262 384.765,172.881C402.736,155.123 420.83,137.49 438.849,119.78C459.718,99.267 480.612,78.778 501.387,58.169C507.11,52.492 513.622,49.905 521.774,49.932C573.566,50.106 625.358,49.972 677.15,50.123C680.212,50.132 683.269,51.736 686.664,52.299C687,54.042 687,56.083 686.677,58.268C685.605,59.2 684.855,59.988 684.007,60.387C681.393,56.294 679.227,58.294 677.067,60.414C659.842,77.313 642.578,94.171 625.407,111.123C613.706,122.673 602.196,134.416 590.49,145.961C576.308,159.947 561.937,173.742 547.78,187.753C531.797,203.571 515.959,219.536 500.058,235.437C497.265,238.229 494.347,240.912 491.75,243.877C490.998,244.736 491.161,246.398 490.904,247.693C492.219,247.798 493.534,247.904 494.91,248.435C494.291,252.701 495.723,255.771 498.144,258.697C507.223,269.67 516.332,280.625 525.163,291.797C543.296,314.739 561.258,337.816 579.289,360.839C590.067,374.6 600.819,388.382 611.629,402.119C621.728,414.952 631.802,427.809 642.066,440.51C646.156,445.57 646.185,447.394 641.086,451.502C640.825,451.713 641.018,452.488 641,453C639.611,453 638.222,453 636.55,452.635C637.434,451.002 638.6,449.735 640.002,448.213C639.315,447.8 638.715,447.166 638.044,447.081C634.604,446.645 631.143,446.034 627.693,446.054C583.666,446.309 539.64,446.657 495.614,446.993C485.981,447.066 478.347,443.692 473.001,435.213C469.217,429.213 464.724,423.653 460.446,417.972C446.703,399.721 432.91,381.508 419.142,363.275C402.981,341.873 386.847,320.45 370.662,299.066C357.168,281.238 343.623,263.448 330.086,245.651C325.432,239.533 325.412,233.852 330.329,227.803C330.376,226.395 330.183,225.197 330.015,223.7C330.356,222.93 330.674,222.459 331.184,221.998C331.376,222.008 331.759,222.04 331.759,222.04C331.759,222.04 332.143,222.038 332.143,222.038Z" style="fill:white;fill-rule:nonzero;"/>
    <path d="M277.052,358.152C277.052,358.152 277.021,358.594 276.593,358.863C275.127,362.138 274.089,365.144 273.052,368.151C273.052,368.151 273.019,368.594 272.583,368.878C271.782,370.493 271.418,371.824 271.054,373.156C271.054,373.156 271.023,373.596 270.59,373.872C269.455,376.482 268.753,378.815 268.051,381.148C268.051,381.148 268.021,381.592 267.653,381.834C267.217,382.728 267.149,383.38 267.08,384.033C266.76,384.819 266.439,385.604 265.699,386.736C265.215,387.732 265.15,388.383 265.084,389.034C264.765,389.82 264.446,390.605 263.638,391.774C262.783,393.487 262.416,394.815 262.049,396.144C261.944,397.019 261.839,397.894 261.118,398.92C260.382,399.734 260.262,400.397 260.141,401.06C259.148,403.817 258.155,406.574 256.72,409.705C256.221,410.735 256.165,411.39 256.108,412.045C255.78,412.827 255.452,413.61 254.705,414.734C254.222,415.73 254.158,416.384 254.093,417.038C253.77,417.823 253.446,418.607 252.67,419.748C251.854,421.421 251.491,422.738 251.128,424.054C250.991,424.948 250.854,425.843 250.037,426.931C248.589,429.468 247.822,431.811 247.054,434.155C247.054,434.155 247.022,434.595 246.587,434.878C245.784,436.489 245.417,437.817 245.05,439.146C245.05,439.146 245.022,439.591 244.586,439.874C243.783,441.484 243.415,442.812 243.048,444.14C242.611,445.039 242.174,445.937 241.077,446.928C238.942,448.013 237.467,449.004 235.613,450.039C233.49,450.387 231.746,450.69 230.002,450.593C229.997,449.123 229.994,448.054 230.205,446.722C236.572,444.332 239.338,438.877 241.464,433.643C248.869,415.411 255.578,396.899 262.775,378.582C272.72,353.272 282.808,328.017 292.944,302.783C304.879,273.07 316.96,243.416 328.924,213.715C339.593,187.228 350.304,160.758 360.779,134.195C369.117,113.051 377.036,91.742 385.357,70.591C387.084,66.201 389.761,62.186 392.067,58.361C393.711,59.147 395.288,59.57 396.865,59.993C396.827,60.578 396.79,61.164 396.093,61.918C394.639,64.438 393.843,66.788 393.048,69.138C393.048,69.138 393.014,69.587 392.579,69.876C391.78,71.493 391.416,72.821 391.052,74.148C390.744,75.224 390.437,76.299 389.793,77.833C389.242,78.539 389.106,78.824 389.049,79.148C388.412,80.886 387.774,82.624 386.796,84.827C386.241,85.54 386.106,85.825 386.05,86.148C386.05,86.148 386.022,86.592 385.613,86.856C384.839,88.761 384.473,90.402 384.107,92.044C383.775,92.83 383.444,93.616 382.787,94.844C382.243,95.535 382.106,95.823 382.05,96.15C382.05,96.15 382.022,96.593 381.587,96.877C380.786,98.491 380.419,99.821 380.053,101.151C380.053,101.151 380.019,101.593 379.584,101.878C378.784,103.49 378.417,104.819 378.051,106.147C378.051,106.147 378.019,106.592 377.584,106.877C376.783,108.492 376.418,109.821 376.052,111.15C376.052,111.15 376.022,111.593 375.615,111.857C374.839,113.761 374.47,115.402 374.102,117.042C373.775,117.824 373.449,118.607 372.704,119.734C372.225,120.733 372.166,121.388 372.106,122.044C371.778,122.826 371.45,123.608 370.638,124.766C369.454,127.147 368.754,129.151 368.054,131.155C367.752,132.224 367.449,133.294 366.716,134.719C366.22,135.729 366.154,136.382 366.089,137.036C365.767,137.82 365.446,138.605 364.705,139.734C364.222,140.732 364.159,141.385 364.096,142.039C363.772,142.823 363.448,143.606 362.638,144.775C361.784,146.487 361.416,147.814 361.049,149.14C361.049,149.14 361.013,149.588 360.578,149.876C359.779,151.492 359.416,152.821 359.052,154.151C358.746,155.225 358.439,156.3 357.795,157.833C357.242,158.54 357.106,158.826 357.05,159.151C357.05,159.151 357.023,159.593 356.616,159.856C355.834,161.757 355.459,163.395 355.084,165.034C354.954,165.627 354.825,166.22 354.101,166.942C353.38,167.733 353.254,168.393 353.128,169.054C352.798,170.155 352.467,171.256 351.799,172.822C351.241,173.538 351.105,173.828 351.053,174.157C350.747,175.229 350.44,176.302 349.796,177.832C349.241,178.537 349.105,178.824 349.05,179.149C349.05,179.149 349.018,179.592 348.584,179.878C347.783,181.492 347.418,182.821 347.052,184.149C346.744,185.225 346.437,186.3 345.793,187.832C345.243,188.536 345.106,188.819 345.046,189.14C345.046,189.14 345.015,189.588 344.579,189.875C343.78,191.491 343.416,192.82 343.052,194.149C342.745,195.224 342.438,196.298 341.797,197.826C341.248,198.521 341.115,198.803 341.066,199.123C341.066,199.123 341.04,199.037 340.742,199.074C340.329,200.088 340.214,201.064 340.099,202.039C339.773,202.822 339.447,203.605 338.672,204.747C337.848,206.417 337.474,207.728 337.1,209.04C336.776,209.822 336.452,210.605 335.657,211.757C333.787,215.414 332.389,218.701 330.991,221.988C330.674,222.459 330.356,222.93 329.754,223.915C329.676,225.622 329.883,226.817 330.09,228.012C325.412,233.852 325.432,239.533 330.086,245.651C343.623,263.448 357.168,281.238 370.662,299.066C386.847,320.45 402.981,341.873 419.142,363.275C432.91,381.508 446.703,399.721 460.446,417.972C464.724,423.653 469.217,429.213 473.001,435.213C478.347,443.692 485.981,447.066 495.614,446.993C539.64,446.657 583.666,446.309 627.693,446.054C631.143,446.034 634.604,446.645 638.044,447.081C638.715,447.166 639.315,447.8 640.002,448.213C638.6,449.735 637.434,451.002 636.134,452.635C586.979,453 537.958,453 488.334,452.639C487.031,448.356 484.938,449.957 482.967,451.075C475.554,450.051 471.921,444.339 467.982,439.003C464.726,434.593 461.463,430.188 458.003,425.236C457.674,424.382 457.458,424.159 457.153,424.02C445.108,408.084 433.027,392.175 421.027,376.204C407.479,358.175 394.012,340.086 380.49,322.037C379.129,320.221 377.63,318.507 376,316.213C375.67,315.391 375.463,315.173 375.183,315.023C371.856,310.612 368.53,306.202 365.005,301.242C364.676,300.381 364.456,300.156 364.147,300.018C363.481,299.257 362.815,298.495 361.977,297.213C361.674,296.381 361.454,296.156 361.146,296.018C360.482,295.258 359.818,294.498 358.98,293.217C358.676,292.378 358.453,292.152 358.139,292.017C347.754,278.344 337.373,264.667 326.978,251.001C325.596,249.184 324.142,247.42 322.146,245.391C321.065,246.484 320.559,247.818 320.053,249.153C319.747,250.226 319.441,251.3 318.797,252.832C318.242,253.54 318.107,253.828 318.052,254.154C318.052,254.154 318.024,254.595 317.591,254.871C316.456,257.48 315.753,259.813 315.051,262.146C315.051,262.146 315.018,262.592 314.582,262.877C313.781,264.49 313.416,265.818 313.05,267.146C313.05,267.146 313.018,267.591 312.649,267.837C312.226,268.738 312.171,269.393 312.117,270.049C311.786,270.83 311.454,271.611 310.646,272.762C309.13,276.139 308.092,279.146 307.053,282.153C306.75,283.223 306.446,284.293 305.713,285.721C305.217,286.73 305.151,287.382 305.084,288.034C304.761,288.823 304.438,289.612 303.786,290.845C303.241,291.54 303.106,291.829 303.052,292.155C302.746,293.225 302.441,294.294 301.641,295.761C300.782,297.488 300.417,298.818 300.051,300.148C300.051,300.148 300.018,300.592 299.617,300.851C298.857,302.426 298.498,303.743 298.14,305.06C297.804,306.161 297.469,307.263 296.793,308.831C296.242,309.545 296.108,309.829 296.049,310.148C296.049,310.148 296.023,310.592 295.587,310.875C294.785,312.488 294.418,313.818 294.051,315.148C294.051,315.148 294.018,315.592 293.581,315.877C292.781,317.492 292.417,318.823 292.053,320.154C291.748,321.224 291.443,322.293 290.712,323.721C290.22,324.731 290.155,325.384 290.089,326.037C289.764,326.825 289.438,327.613 288.784,328.847C288.242,329.541 288.106,329.829 288.051,330.153C287.748,331.223 287.445,332.293 286.646,333.762C285.784,335.492 285.419,336.822 285.053,338.153C285.053,338.153 285.021,338.595 284.586,338.879C283.784,340.49 283.417,341.818 283.051,343.146C282.941,344.02 282.832,344.894 282.041,345.953C280.923,347.474 280.487,348.811 280.051,350.147C280.041,350.569 280.031,350.99 279.739,351.85C279.24,352.539 279.105,352.829 279.053,353.157C279.053,353.157 279.022,353.597 278.586,353.879C277.784,355.491 277.418,356.821 277.052,358.152M233.799,447.395C233.795,447.787 233.79,448.179 233.786,448.572C233.949,448.573 234.254,448.586 234.254,448.575C234.285,448.184 234.286,447.792 233.799,447.395Z" style="fill:white;fill-rule:nonzero;"/>
    <path d="M230.002,450.994C231.746,450.69 233.49,450.387 235.895,450.051C236.745,450.027 236.933,450.036 237.121,450.045C235.798,450.804 234.475,451.562 233.076,452.66C206.312,453 179.625,453 152.469,453C151.371,452.548 150.743,452.097 150.396,451.329C151.786,451.009 152.893,451.004 154.428,451.001C156.571,451.002 158.286,451.001 160.417,451C162.221,451 163.609,450.999 165.466,451C187.291,450.999 208.646,450.997 230.002,450.994Z" style="fill:white;fill-rule:nonzero;"/>
    <path d="M483.147,451.423C484.938,449.957 487.031,448.356 487.865,452.639C486.611,453 485.222,453 483.417,453C483.109,452.591 483.218,452.181 483.147,451.423Z" style="fill:white;fill-rule:nonzero;"/>
    <path d="M392,57.998C389.761,62.186 387.084,66.201 385.357,70.591C377.036,91.742 369.117,113.051 360.779,134.195C350.304,160.758 339.593,187.228 328.924,213.715C316.96,243.416 304.879,273.07 292.944,302.783C282.808,328.017 272.72,353.272 262.775,378.582C255.578,396.899 248.869,415.411 241.464,433.643C239.338,438.877 236.572,444.332 229.737,446.725C204.036,446.996 179.016,447.002 153.651,446.97C150.784,443.805 147.122,441.058 145.931,437.487C139.271,417.523 133.23,397.352 126.935,377.266C117.822,348.192 108.588,319.155 99.56,290.055C88.854,255.547 78.306,220.989 67.7,186.45C60.262,162.225 52.947,137.961 45.377,113.777C39.75,95.8 33.803,77.924 27.959,59.647C26.618,58.525 25.315,57.759 23.682,56.826C22.418,54.879 21.484,53.1 20.551,51.321C20.551,51.321 20.763,51.084 21.266,51.115C22.496,50.431 22.591,49.36 23.687,48.581C24.475,47.182 25.525,46.202 25.942,44.868C27.046,42.658 28.15,40.449 29.846,38.207C30.964,38.452 31.49,38.728 32.015,39.004C31.99,39.449 30.03,43.758 30.037,44.088C29.778,45.82 29.518,47.552 29.186,49.77C30.736,49.841 32.456,49.987 34.176,49.988C61.613,50.003 89.05,49.987 116.486,50.009C122.668,50.014 128.3,51.845 133.093,55.776C134.569,56.986 135.584,58.76 136.684,60.888C133.814,62.086 131.074,62.923 132.139,66.557C133.567,71.428 135.361,76.192 137.044,81.387C138.397,86.846 139.704,91.918 141.138,97.296C141.84,98.734 142.415,99.866 143.04,101.389C149.948,125.336 156.821,148.887 163.661,172.448C169.578,192.83 175.452,213.225 181.358,233.61C186.659,251.91 191.909,270.225 197.374,288.475C198.104,290.91 199.965,293.006 201.302,295.259C202.046,295.127 202.791,294.995 203.535,294.864C204.026,291.962 204.518,289.06 205.009,286.158C205.689,285.135 206.618,284.199 207.011,283.076C216.706,255.364 226.376,227.643 235.986,199.902C249.715,160.269 263.358,120.607 277.121,80.986C279.877,73.055 283.079,65.28 285.944,57.385C287.911,51.967 291.239,49.79 297.342,49.852C328.157,50.17 358.978,49.988 389.796,50.008C396.012,50.012 397.093,51.11 397.171,57.7C394.867,55.348 393.198,53.233 392,57.998Z" style="fill:white;fill-rule:nonzero;"/>
    <path d="M27.998,60.003C33.803,77.924 39.75,95.8 45.377,113.777C52.947,137.961 60.262,162.225 67.7,186.45C78.306,220.989 88.854,255.547 99.56,290.055C108.588,319.155 117.822,348.192 126.935,377.266C133.23,397.352 139.271,417.523 145.931,437.487C147.122,441.058 150.784,443.805 153.652,447.369C153.999,448.87 153.999,449.935 153.999,450.999C152.893,451.004 151.786,451.009 150.264,451.032C149.849,451.05 149.396,451.024 149.053,450.741C148.458,450.247 148.171,450.111 147.849,450.049C146.62,448.949 145.392,447.848 143.984,446.222C143.676,445.379 143.454,445.153 143.14,445.017C143.14,445.017 142.981,444.598 142.892,444.144C142.673,443.375 142.45,443.15 142.135,443.017C141.744,441.931 141.354,440.846 141.175,439.247C140.973,438.159 140.558,437.584 140.143,437.009C140.084,436.6 140.025,436.191 139.886,435.239C139.676,434.378 139.453,434.152 139.138,434.017C138.744,432.614 138.35,431.211 138.191,429.232C137.33,426.107 136.234,423.558 135.138,421.008C134.079,417.616 133.021,414.223 132.196,410.247C131.666,408.112 130.903,406.561 130.14,405.009C130.081,404.6 130.022,404.19 129.883,403.238C129.675,402.381 129.454,402.155 129.143,402.018C128.747,400.616 128.352,399.214 128.192,397.226C126.665,391.764 124.903,386.886 123.14,382.009C123.08,381.578 123.02,381.146 123.189,380.184C122.749,377.033 122.317,374.32 121.35,371.814C120.183,368.788 118.563,365.936 117.139,363.009C117.08,362.577 117.02,362.145 117.19,361.181C116.143,355.838 114.964,350.997 113.522,346.236C113.156,345.029 111.952,344.078 111.133,343.009C110.075,339.623 109.017,336.237 108.183,332.268C107.649,330.125 106.892,328.567 106.135,327.009C106.078,326.601 106.021,326.193 105.884,325.241C105.676,324.377 105.454,324.151 105.136,324.017C105.076,323.584 105.016,323.15 105.187,322.19C104.324,319.113 103.232,316.561 102.139,314.009C102.082,313.598 102.024,313.187 101.885,312.234C101.674,311.38 101.454,311.155 101.145,311.019C101.083,310.585 101.021,310.151 101.189,309.185C99.994,305.105 98.569,301.557 97.143,298.009C96.416,295.614 95.689,293.219 95.173,290.281C94.972,289.162 94.56,288.586 94.148,288.01C94.088,287.6 94.027,287.19 93.885,286.237C93.675,285.378 93.454,285.153 93.14,285.018C92.747,283.615 92.353,282.212 92.186,280.245C91.653,278.123 90.894,276.566 90.134,275.009C90.075,274.577 90.016,274.145 90.188,273.182C88.992,269.104 87.565,265.556 86.137,262.009C86.08,261.598 86.023,261.188 85.884,260.236C85.674,259.381 85.455,259.156 85.145,259.019C85.084,258.584 85.022,258.149 85.193,257.183C84.33,254.105 83.233,251.557 82.137,249.009C82.077,248.578 82.018,248.146 82.185,247.191C81.32,244.114 80.228,241.561 79.135,239.009C79.078,238.599 79.021,238.189 78.884,237.237C78.675,236.376 78.452,236.15 78.136,236.017C77.744,234.614 77.352,233.21 77.166,231.277C76.961,230.168 76.55,229.589 76.139,229.009C76.082,228.6 76.024,228.191 75.886,227.239C75.677,226.378 75.455,226.152 75.14,226.018C74.745,224.616 74.349,223.214 74.187,221.237C73.326,218.111 72.231,215.56 71.137,213.009C70.413,210.613 69.688,208.217 69.178,205.276C68.976,204.158 68.56,203.583 68.144,203.009C67.753,201.637 67.361,200.264 66.886,198.292C66.674,197.378 66.454,197.153 66.142,197.018C66.083,196.606 66.023,196.194 65.883,195.239C65.674,194.381 65.455,194.155 65.144,194.019C65.082,193.584 65.021,193.15 65.182,192.199C64.651,190.125 63.896,188.567 63.141,187.009C63.081,186.577 63.021,186.145 63.188,185.188C62.324,182.111 61.232,179.56 60.14,177.009C60.082,176.6 60.024,176.19 59.885,175.238C59.676,174.378 59.454,174.153 59.14,174.018C59.082,173.607 59.024,173.196 58.885,172.241C58.676,171.377 58.453,171.151 58.137,171.018C57.745,169.611 57.352,168.204 57.203,166.218C56.344,163.095 55.242,160.552 54.139,158.009C54.079,157.577 54.018,157.145 54.189,156.183C52.992,152.104 51.563,148.557 50.134,145.009C50.077,144.6 50.02,144.191 49.883,143.24C49.675,142.379 49.453,142.152 49.138,142.018C49.077,141.585 49.016,141.151 49.157,140.24C48.95,139.177 48.541,138.593 48.132,138.009C47.741,136.926 47.35,135.844 47.173,134.248C46.971,133.16 46.554,132.585 46.138,132.009C45.745,130.607 45.352,129.205 45.168,127.274C44.964,126.166 44.551,125.588 44.139,125.009C44.081,124.601 44.023,124.192 43.885,123.24C43.677,122.378 43.454,122.151 43.138,122.018C43.08,121.604 43.023,121.189 42.886,120.237C42.68,119.393 42.469,119.168 42.173,119.023C40.779,114.328 39.386,109.633 37.899,104.308C37.672,103.368 37.449,103.148 37.138,103.017C37.082,102.603 37.026,102.19 36.888,101.233C36.673,100.376 36.452,100.153 36.141,100.018C36.08,99.584 36.018,99.151 36.186,98.188C34.531,90.934 32.786,84.166 30.684,77.511C29.955,75.2 28.343,73.168 27.134,71.008C27.077,70.6 27.019,70.191 26.883,69.239C26.674,68.379 26.452,68.153 26.138,68.017C25.745,66.611 25.353,65.205 25.209,63.23C26.304,61.775 27.151,60.889 27.998,60.003Z" style="fill:white;fill-rule:nonzero;"/>
    <path d="M204.661,285.989C204.518,289.06 204.026,291.962 203.535,294.864C202.791,294.995 202.046,295.127 201.302,295.259C199.965,293.006 198.104,290.91 197.374,288.475C191.909,270.225 186.659,251.91 181.358,233.61C175.452,213.225 169.578,192.83 163.661,172.448C156.821,148.887 149.948,125.336 143.402,101.429C148.307,102.39 150.643,105.589 151.643,110.129C151.878,111.195 153.085,112.046 153.845,112.995C153.908,113.428 153.97,113.861 153.785,114.839C155.373,122.123 157.175,128.87 159.102,135.582C159.271,136.172 160.252,136.53 160.856,136.995C161.581,139.391 162.307,141.787 162.821,144.726C163.025,145.845 163.439,146.42 163.854,146.995C164.247,148.396 164.64,149.797 164.811,151.762C165.344,153.883 166.098,155.439 166.853,156.995C166.913,157.429 166.973,157.862 166.799,158.832C169.723,170.774 172.862,182.185 176.097,193.569C176.265,194.163 177.251,194.525 177.857,194.995C177.915,195.428 177.974,195.861 177.804,196.823C178.665,199.9 179.754,202.448 180.844,204.995C180.906,205.429 180.968,205.863 180.805,206.816C181.334,208.889 182.088,210.442 182.842,211.995C182.905,212.429 182.967,212.862 182.805,213.815C183.336,215.888 184.091,217.441 184.845,218.995C184.907,219.429 184.969,219.862 184.802,220.807C185.002,222.211 185.432,223.103 185.861,223.996C189.582,236.288 193.332,248.573 197.014,260.877C199.497,269.177 201.883,277.505 204.661,285.989Z" style="fill:white;fill-rule:nonzero;"/>
    <path d="M153.896,112.605C153.085,112.046 151.878,111.195 151.643,110.129C150.643,105.589 148.307,102.39 143.352,101.038C142.415,99.866 141.84,98.734 141.493,97.26C143.4,96.013 145.078,95.108 146.619,94.277C145.215,89.005 143.894,84.043 142.419,78.503C140.144,79.551 138.571,80.276 136.998,81.001C135.361,76.192 133.567,71.428 132.139,66.557C131.074,62.923 133.814,62.086 136.797,61.214C140.016,68.874 143.264,76.733 145.906,84.791C148.872,93.839 151.29,103.066 153.896,112.605Z" style="fill:white;fill-rule:nonzero;"/>
    <path d="M25.56,44.911C29.363,44.565 25.033,52.705 23.986,49.178C21.843,47.184 20.403,44.883 18.935,42.984C17.981,39.907 17.509,37.48 16.525,33.656C15.474,31.153 7.052,7.574 7.418,6.102C9.483,11.072 16.11,24.944 18.404,29.807C19.106,31.295 23.71,41.875 25.56,44.911Z" style="fill:white;fill-rule:nonzero;"/>
    <path d="M20.707,51.18C22.025,52.953 26.08,52.71 27.339,54.937C27.646,55.571 26.357,57.592 26.339,57.778C26.254,57.769 23.792,55.925 23.792,55.925L15.871,64.158C15.871,64.158 21.778,53.66 21.503,53.655C19.697,54.683 14.441,56.85 14.41,56.813C14.781,56.653 12.382,57.617 12.028,57.649C11.729,58.205 2.549,60.2 0.467,60.607C0.399,60.138 5.674,57.969 6.784,57.539C11.116,55.47 15.99,53.254 20.707,51.18Z" style="fill:white;fill-rule:nonzero;"/>
    <path d="M177.909,194.607C177.251,194.525 176.265,194.163 176.097,193.569C172.862,182.185 169.723,170.774 166.837,159.159C170.407,169.803 173.702,180.656 177.008,191.505C177.287,192.421 177.642,193.314 177.909,194.607Z" style="fill:white;fill-rule:nonzero;"/>
    <path d="M27.077,71.394C28.343,73.168 29.955,75.2 30.684,77.511C32.786,84.166 34.531,90.934 36.141,97.861C32.917,89.303 29.969,80.542 27.077,71.394Z" style="fill:white;fill-rule:nonzero;"/>
    <path d="M19.199,42.994C21.033,44.901 21.87,46.783 23.644,48.84C23.223,49.715 22.496,50.431 21.423,51.088C20.792,50.473 2.569,36.523 0.388,36.41C5.087,36.409 17.725,44.642 19.199,42.994Z" style="fill:white;fill-rule:nonzero;"/>
    <path d="M160.912,136.606C160.252,136.53 159.271,136.172 159.102,135.582C157.175,128.87 155.373,122.123 153.826,115.167C156.399,122.038 158.684,129.127 160.912,136.606Z" style="fill:white;fill-rule:nonzero;"/>
    <path d="M111.073,343.399C111.952,344.078 113.156,345.029 113.522,346.236C114.964,350.997 116.143,355.838 117.146,360.855C114.919,355.304 112.966,349.546 111.073,343.399Z" style="fill:white;fill-rule:nonzero;"/>
    <path d="M117.085,363.395C118.563,365.936 120.183,368.788 121.35,371.814C122.317,374.32 122.749,377.033 123.143,379.859C120.923,374.635 118.977,369.208 117.085,363.395Z" style="fill:white;fill-rule:nonzero;"/>
    <path d="M123.082,382.397C124.903,386.886 126.665,391.764 128.15,396.851C126.257,392.302 124.641,387.543 123.082,382.397Z" style="fill:white;fill-rule:nonzero;"/>
    <g transform="matrix(1,0,0,1,-0.39468,0.297607)">
        <path d="M32.347,38.843C31.49,38.728 30.964,38.452 30.164,38.06C31.736,34.773 33.583,31.601 35.429,28.43C35.845,28.693 38.409,23.923 38.824,24.185C37.492,27.34 34.011,35.528 32.347,38.843Z" style="fill:white;fill-rule:nonzero;"/>
    </g>
    <path d="M392.067,58.361C393.198,53.233 394.867,55.348 396.832,57.869C397.076,58.486 397.039,58.92 396.934,59.673C395.288,59.57 393.711,59.147 392.067,58.361Z" style="fill:white;fill-rule:nonzero;"/>
    <path d="M86.082,262.393C87.565,265.556 88.992,269.104 90.147,272.855C88.591,269.632 87.309,266.205 86.082,262.393Z" style="fill:white;fill-rule:nonzero;"/>
    <path d="M50.075,145.393C51.563,148.557 52.992,152.104 54.147,155.856C52.588,152.632 51.302,149.205 50.075,145.393Z" style="fill:white;fill-rule:nonzero;"/>
    <path d="M97.093,298.392C98.569,301.557 99.994,305.105 101.146,308.856C99.596,305.632 98.319,302.204 97.093,298.392Z" style="fill:white;fill-rule:nonzero;"/>
    <path d="M331.184,221.998C332.389,218.701 333.787,215.414 335.528,212.066C334.819,215.15 333.767,218.295 332.429,221.739C332.143,222.038 331.759,222.04 331.759,222.04C331.759,222.04 331.376,222.008 331.184,221.998Z" style="fill:white;fill-rule:nonzero;"/>
    <path d="M23.97,58.493C23.965,57.926 24.243,56.685 24.267,56.219C25.575,56.704 26.618,58.525 27.959,59.647C27.151,60.889 26.304,61.775 25.181,62.853C24.601,61.654 24.296,60.264 23.97,58.493Z" style="fill:white;fill-rule:nonzero;"/>
    <path d="M54.086,158.385C55.242,160.552 56.344,163.095 57.178,165.84C55.951,163.615 54.992,161.187 54.086,158.385Z" style="fill:white;fill-rule:nonzero;"/>
    <path d="M71.081,213.385C72.231,215.56 73.326,218.111 74.147,220.861C72.924,218.627 71.975,216.194 71.081,213.385Z" style="fill:white;fill-rule:nonzero;"/>
    <path d="M79.078,239.386C80.228,241.561 81.32,244.114 82.138,246.866C80.917,244.631 79.969,242.197 79.078,239.386Z" style="fill:white;fill-rule:nonzero;"/>
    <path d="M180.899,204.62C179.754,202.448 178.665,199.9 177.845,197.151C179.061,199.381 180.007,201.812 180.899,204.62Z" style="fill:white;fill-rule:nonzero;"/>
    <path d="M82.079,249.385C83.233,251.557 84.33,254.105 85.155,256.854C83.93,254.624 82.976,252.193 82.079,249.385Z" style="fill:white;fill-rule:nonzero;"/>
    <path d="M60.083,177.386C61.232,179.56 62.324,182.111 63.143,184.862C61.922,182.629 60.974,180.196 60.083,177.386Z" style="fill:white;fill-rule:nonzero;"/>
    <path d="M102.082,314.386C103.232,316.561 104.324,319.113 105.144,321.863C103.922,319.629 102.973,317.196 102.082,314.386Z" style="fill:white;fill-rule:nonzero;"/>
    <path d="M135.085,421.384C136.234,423.558 137.33,426.107 138.153,428.856C136.932,426.624 135.982,424.192 135.085,421.384Z" style="fill:white;fill-rule:nonzero;"/>
    <path d="M393.378,68.973C393.843,66.788 394.639,64.438 395.812,62.035C395.362,64.257 394.536,66.533 393.378,68.973Z" style="fill:white;fill-rule:nonzero;"/>
    <path d="M368.378,130.997C368.754,129.151 369.454,127.147 370.507,125.075C370.14,126.952 369.421,128.896 368.378,130.997Z" style="fill:white;fill-rule:nonzero;"/>
    <path d="M184.9,218.639C184.091,217.441 183.336,215.888 182.844,214.143C183.723,215.396 184.339,216.84 184.9,218.639Z" style="fill:white;fill-rule:nonzero;"/>
    <path d="M130.087,405.365C130.903,406.561 131.666,408.112 132.167,409.854C131.281,408.603 130.658,407.162 130.087,405.365Z" style="fill:white;fill-rule:nonzero;"/>
    <path d="M182.9,211.64C182.088,210.442 181.334,208.889 180.841,207.145C181.721,208.397 182.34,209.841 182.9,211.64Z" style="fill:white;fill-rule:nonzero;"/>
    <path d="M384.421,91.871C384.473,90.402 384.839,88.761 385.535,87.064C385.488,88.571 385.112,90.134 384.421,91.871Z" style="fill:white;fill-rule:nonzero;"/>
    <path d="M374.417,116.868C374.47,115.402 374.839,113.761 375.536,112.064C375.487,113.57 375.11,115.132 374.417,116.868Z" style="fill:white;fill-rule:nonzero;"/>
    <path d="M63.079,187.367C63.896,188.567 64.651,190.125 65.14,191.871C64.255,190.615 63.636,189.17 63.079,187.367Z" style="fill:white;fill-rule:nonzero;"/>
    <path d="M90.074,275.366C90.894,276.566 91.653,278.123 92.146,279.869C91.257,278.613 90.635,277.168 90.074,275.366Z" style="fill:white;fill-rule:nonzero;"/>
    <path d="M355.396,164.859C355.459,163.395 355.834,161.757 356.538,160.063C356.48,161.566 356.094,163.125 355.396,164.859Z" style="fill:white;fill-rule:nonzero;"/>
    <path d="M106.08,327.366C106.892,328.567 107.649,330.125 108.14,331.872C107.257,330.615 106.641,329.169 106.08,327.366Z" style="fill:white;fill-rule:nonzero;"/>
    <path d="M166.912,156.638C166.098,155.439 165.344,153.883 164.853,152.138C165.735,153.392 166.353,154.837 166.912,156.638Z" style="fill:white;fill-rule:nonzero;"/>
    <path d="M337.4,208.882C337.474,207.728 337.848,206.417 338.542,205.055C338.475,206.245 338.088,207.485 337.4,208.882Z" style="fill:white;fill-rule:nonzero;"/>
    <path d="M380.371,100.997C380.419,99.821 380.786,98.491 381.508,97.084C381.473,98.286 381.081,99.564 380.371,100.997Z" style="fill:white;fill-rule:nonzero;"/>
    <path d="M391.37,73.998C391.416,72.821 391.78,71.493 392.499,70.086C392.465,71.288 392.076,72.568 391.37,73.998Z" style="fill:white;fill-rule:nonzero;"/>
    <path d="M359.369,154C359.416,152.821 359.779,151.492 360.498,150.086C360.465,151.289 360.076,152.569 359.369,154Z" style="fill:white;fill-rule:nonzero;"/>
    <path d="M347.37,183.999C347.418,182.821 347.783,181.492 348.505,180.085C348.47,181.288 348.079,182.568 347.37,183.999Z" style="fill:white;fill-rule:nonzero;"/>
    <path d="M340.397,201.88C340.214,201.064 340.329,200.088 340.784,199.092C340.98,199.955 340.838,200.838 340.397,201.88Z" style="fill:white;fill-rule:nonzero;"/>
    <path d="M376.369,110.995C376.418,109.821 376.783,108.492 377.504,107.085C377.469,108.285 377.077,109.562 376.369,110.995Z" style="fill:white;fill-rule:nonzero;"/>
    <path d="M378.371,105.996C378.417,104.819 378.784,103.49 379.505,102.085C379.471,103.286 379.08,104.566 378.371,105.996Z" style="fill:white;fill-rule:nonzero;"/>
    <path d="M185.93,223.654C185.432,223.103 185.002,222.211 184.839,221.136C185.404,221.739 185.702,222.526 185.93,223.654Z" style="fill:white;fill-rule:nonzero;"/>
    <path d="M343.367,193.997C343.416,192.82 343.78,191.491 344.5,190.085C344.464,191.287 344.073,192.566 343.367,193.997Z" style="fill:white;fill-rule:nonzero;"/>
    <path d="M361.365,148.991C361.416,147.814 361.784,146.487 362.507,145.084C362.469,146.285 362.075,147.563 361.365,148.991Z" style="fill:white;fill-rule:nonzero;"/>
    <path d="M372.386,121.914C372.166,121.388 372.225,120.733 372.574,120.043C372.798,120.599 372.733,121.192 372.386,121.914Z" style="fill:white;fill-rule:nonzero;"/>
    <path d="M94.088,288.312C94.56,288.586 94.972,289.162 95.145,289.891C94.613,289.568 94.32,289.091 94.088,288.312Z" style="fill:white;fill-rule:nonzero;"/>
    <path d="M46.078,132.311C46.554,132.585 46.971,133.16 47.147,133.89C46.61,133.567 46.314,133.09 46.078,132.311Z" style="fill:white;fill-rule:nonzero;"/>
    <path d="M44.076,125.313C44.551,125.588 44.964,126.166 45.134,126.898C44.6,126.572 44.306,126.095 44.076,125.313Z" style="fill:white;fill-rule:nonzero;"/>
    <path d="M353.413,168.936C353.254,168.393 353.38,167.733 353.815,167.057C353.981,167.634 353.84,168.226 353.413,168.936Z" style="fill:white;fill-rule:nonzero;"/>
    <path d="M140.082,437.31C140.558,437.584 140.973,438.159 141.148,438.888C140.613,438.565 140.318,438.089 140.082,437.31Z" style="fill:white;fill-rule:nonzero;"/>
    <path d="M163.916,146.694C163.439,146.42 163.025,145.845 162.848,145.116C163.384,145.439 163.681,145.916 163.916,146.694Z" style="fill:white;fill-rule:nonzero;"/>
    <path d="M366.364,136.901C366.154,136.382 366.22,135.729 366.574,135.041C366.789,135.594 366.714,136.18 366.364,136.901Z" style="fill:white;fill-rule:nonzero;"/>
    <path d="M68.085,203.311C68.56,203.583 68.976,204.158 69.153,204.886C68.618,204.564 68.322,204.088 68.085,203.311Z" style="fill:white;fill-rule:nonzero;"/>
    <path d="M76.076,229.314C76.55,229.589 76.961,230.168 77.13,230.9C76.596,230.575 76.304,230.096 76.076,229.314Z" style="fill:white;fill-rule:nonzero;"/>
    <path d="M48.067,138.315C48.541,138.593 48.95,139.177 49.113,139.913C48.579,139.583 48.29,139.102 48.067,138.315Z" style="fill:white;fill-rule:nonzero;"/>
    <path d="M364.374,141.906C364.159,141.385 364.222,140.732 364.574,140.043C364.792,140.596 364.722,141.185 364.374,141.906Z" style="fill:white;fill-rule:nonzero;"/>
    <path d="M42.129,119.289C42.469,119.168 42.68,119.393 42.882,119.921C42.667,119.948 42.376,119.751 42.129,119.289Z" style="fill:white;fill-rule:nonzero;"/>
    <path d="M129.109,402.288C129.454,402.155 129.675,402.381 129.878,402.926C129.661,402.956 129.367,402.757 129.109,402.288Z" style="fill:white;fill-rule:nonzero;"/>
    <path d="M43.102,122.289C43.454,122.151 43.677,122.378 43.878,122.929C43.656,122.961 43.361,122.761 43.102,122.289Z" style="fill:white;fill-rule:nonzero;"/>
    <path d="M139.102,434.289C139.453,434.152 139.676,434.378 139.879,434.927C139.656,434.96 139.361,434.76 139.102,434.289Z" style="fill:white;fill-rule:nonzero;"/>
    <path d="M386.301,86.05C386.106,85.825 386.241,85.54 386.654,85.158C386.752,85.333 386.653,85.643 386.301,86.05Z" style="fill:white;fill-rule:nonzero;"/>
    <path d="M142.101,443.288C142.45,443.15 142.673,443.375 142.879,443.92C142.659,443.953 142.363,443.756 142.101,443.288Z" style="fill:white;fill-rule:nonzero;"/>
    <path d="M143.104,445.288C143.454,445.153 143.676,445.379 143.879,445.927C143.657,445.958 143.362,445.759 143.104,445.288Z" style="fill:white;fill-rule:nonzero;"/>
    <path d="M37.103,103.288C37.449,103.148 37.672,103.368 37.884,103.904C37.664,103.94 37.366,103.749 37.103,103.288Z" style="fill:white;fill-rule:nonzero;"/>
    <path d="M147.948,450.3C148.171,450.111 148.458,450.247 148.842,450.658C148.665,450.756 148.356,450.653 147.948,450.3Z" style="fill:white;fill-rule:nonzero;"/>
    <path d="M36.107,100.287C36.452,100.153 36.673,100.376 36.88,100.917C36.662,100.95 36.368,100.753 36.107,100.287Z" style="fill:white;fill-rule:nonzero;"/>
    <path d="M382.306,96.054C382.106,95.823 382.243,95.535 382.663,95.154C382.764,95.334 382.662,95.647 382.306,96.054Z" style="fill:white;fill-rule:nonzero;"/>
    <path d="M349.303,179.052C349.105,178.824 349.241,178.537 349.659,178.156C349.758,178.333 349.657,178.644 349.303,179.052Z" style="fill:white;fill-rule:nonzero;"/>
    <path d="M26.104,68.288C26.452,68.153 26.674,68.379 26.878,68.928C26.658,68.959 26.364,68.759 26.104,68.288Z" style="fill:white;fill-rule:nonzero;"/>
    <path d="M75.104,226.289C75.455,226.152 75.677,226.378 75.879,226.927C75.658,226.959 75.363,226.759 75.104,226.289Z" style="fill:white;fill-rule:nonzero;"/>
    <path d="M78.101,236.289C78.452,236.15 78.675,236.376 78.878,236.924C78.658,236.957 78.362,236.759 78.101,236.289Z" style="fill:white;fill-rule:nonzero;"/>
    <path d="M341.319,199.034C341.115,198.803 341.248,198.521 341.661,198.151C341.763,198.33 341.667,198.637 341.319,199.034Z" style="fill:white;fill-rule:nonzero;"/>
    <path d="M66.108,197.288C66.454,197.153 66.674,197.378 66.88,197.921C66.662,197.953 66.368,197.755 66.108,197.288Z" style="fill:white;fill-rule:nonzero;"/>
    <path d="M65.11,194.288C65.455,194.155 65.674,194.381 65.879,194.924C65.661,194.955 65.368,194.756 65.11,194.288Z" style="fill:white;fill-rule:nonzero;"/>
    <path d="M85.111,259.288C85.455,259.156 85.674,259.381 85.879,259.923C85.663,259.953 85.37,259.755 85.111,259.288Z" style="fill:white;fill-rule:nonzero;"/>
    <path d="M345.298,189.044C345.106,188.819 345.243,188.536 345.655,188.157C345.752,188.332 345.651,188.641 345.298,189.044Z" style="fill:white;fill-rule:nonzero;"/>
    <path d="M93.106,285.288C93.454,285.153 93.675,285.378 93.879,285.924C93.66,285.956 93.366,285.757 93.106,285.288Z" style="fill:white;fill-rule:nonzero;"/>
    <path d="M49.104,142.288C49.453,142.152 49.675,142.379 49.878,142.928C49.658,142.959 49.364,142.759 49.104,142.288Z" style="fill:white;fill-rule:nonzero;"/>
    <path d="M59.105,174.289C59.454,174.153 59.676,174.378 59.879,174.925C59.659,174.957 59.365,174.758 59.105,174.289Z" style="fill:white;fill-rule:nonzero;"/>
    <path d="M351.308,174.058C351.105,173.828 351.241,173.538 351.663,173.155C351.765,173.335 351.663,173.647 351.308,174.058Z" style="fill:white;fill-rule:nonzero;"/>
    <path d="M101.111,311.288C101.454,311.155 101.674,311.38 101.879,311.921C101.663,311.952 101.37,311.754 101.111,311.288Z" style="fill:white;fill-rule:nonzero;"/>
    <path d="M58.103,171.289C58.453,171.151 58.676,171.377 58.878,171.927C58.657,171.959 58.363,171.76 58.103,171.289Z" style="fill:white;fill-rule:nonzero;"/>
    <path d="M105.101,324.289C105.454,324.151 105.676,324.377 105.878,324.93C105.656,324.962 105.361,324.761 105.101,324.289Z" style="fill:white;fill-rule:nonzero;"/>
    <path d="M357.302,159.051C357.106,158.826 357.242,158.54 357.657,158.157C357.756,158.333 357.655,158.643 357.302,159.051Z" style="fill:white;fill-rule:nonzero;"/>
    <path d="M389.301,79.05C389.106,78.824 389.242,78.539 389.656,78.158C389.754,78.333 389.654,78.642 389.301,79.05Z" style="fill:white;fill-rule:nonzero;"/>
    <path d="M684.007,60.387C667.862,76.862 651.634,92.965 635.371,109.031C610.411,133.688 585.429,158.321 560.452,182.96C538.679,204.439 516.899,225.911 494.985,247.698C493.534,247.904 492.219,247.798 490.904,247.693C491.161,246.398 490.998,244.736 491.75,243.877C494.347,240.912 497.265,238.229 500.058,235.437C515.959,219.536 531.797,203.571 547.78,187.753C561.937,173.742 576.308,159.947 590.49,145.961C602.196,134.416 613.706,122.673 625.407,111.123C642.578,94.171 659.842,77.313 677.067,60.414C679.227,58.294 681.393,56.294 684.007,60.387Z" style="fill:white;fill-rule:nonzero;"/>
    <path d="M330.329,227.803C329.883,226.817 329.676,225.622 329.73,224.213C330.183,225.197 330.376,226.395 330.329,227.803Z" style="fill:white;fill-rule:nonzero;"/>
    <path d="M307.386,281.984C308.092,279.146 309.13,276.139 310.517,273.07C309.817,275.944 308.768,278.879 307.386,281.984Z" style="fill:white;fill-rule:nonzero;"/>
    <path d="M273.384,367.982C274.089,365.144 275.127,362.138 276.513,359.07C275.814,361.943 274.765,364.879 273.384,367.982Z" style="fill:white;fill-rule:nonzero;"/>
    <path d="M268.379,380.978C268.753,378.815 269.455,376.482 270.511,374.078C270.145,376.275 269.425,378.542 268.379,380.978Z" style="fill:white;fill-rule:nonzero;"/>
    <path d="M315.381,261.98C315.753,259.813 316.456,257.48 317.512,255.078C317.148,257.277 316.43,259.545 315.381,261.98Z" style="fill:white;fill-rule:nonzero;"/>
    <path d="M247.384,433.987C247.822,431.811 248.589,429.468 249.728,427.078C249.303,429.295 248.508,431.558 247.384,433.987Z" style="fill:white;fill-rule:nonzero;"/>
    <path d="M237.455,450.024C236.933,450.036 236.745,450.027 236.274,450.007C237.467,449.004 238.942,448.013 240.78,447.035C240.024,448.033 238.906,449.018 237.455,450.024Z" style="fill:white;fill-rule:nonzero;"/>
    <path d="M298.45,304.915C298.498,303.743 298.857,302.426 299.537,301.059C299.492,302.262 299.126,303.517 298.45,304.915Z" style="fill:white;fill-rule:nonzero;"/>
    <path d="M251.437,423.91C251.491,422.738 251.854,421.421 252.538,420.057C252.488,421.261 252.117,422.514 251.437,423.91Z" style="fill:white;fill-rule:nonzero;"/>
    <path d="M262.365,395.991C262.416,394.815 262.783,393.487 263.507,392.083C263.469,393.285 263.074,394.562 262.365,395.991Z" style="fill:white;fill-rule:nonzero;"/>
    <path d="M292.37,319.999C292.417,318.823 292.781,317.492 293.501,316.085C293.468,317.287 293.077,318.566 292.37,319.999Z" style="fill:white;fill-rule:nonzero;"/>
    <path d="M271.371,373.001C271.418,371.824 271.782,370.493 272.503,369.085C272.469,370.288 272.078,371.567 271.371,373.001Z" style="fill:white;fill-rule:nonzero;"/>
    <path d="M320.369,248.999C320.559,247.818 321.065,246.484 321.964,245.133C321.801,246.36 321.243,247.603 320.369,248.999Z" style="fill:white;fill-rule:nonzero;"/>
    <path d="M277.37,357.997C277.418,356.821 277.784,355.491 278.507,354.084C278.472,355.286 278.08,356.564 277.37,357.997Z" style="fill:white;fill-rule:nonzero;"/>
    <path d="M280.366,349.992C280.487,348.811 280.923,347.474 281.735,346.087C281.634,347.303 281.158,348.57 280.366,349.992Z" style="fill:white;fill-rule:nonzero;"/>
    <path d="M243.365,443.988C243.415,442.812 243.783,441.484 244.507,440.082C244.47,441.284 244.076,442.56 243.365,443.988Z" style="fill:white;fill-rule:nonzero;"/>
    <path d="M283.368,342.994C283.417,341.818 283.784,340.49 284.506,339.085C284.47,340.286 284.078,341.563 283.368,342.994Z" style="fill:white;fill-rule:nonzero;"/>
    <path d="M313.367,266.995C313.416,265.818 313.781,264.49 314.503,263.086C314.467,264.287 314.076,265.566 313.367,266.995Z" style="fill:white;fill-rule:nonzero;"/>
    <path d="M285.369,338.001C285.419,336.822 285.784,335.492 286.506,334.084C286.47,335.288 286.077,336.568 285.369,338.001Z" style="fill:white;fill-rule:nonzero;"/>
    <path d="M300.367,299.997C300.417,298.818 300.782,297.488 301.504,296.083C301.469,297.287 301.076,298.566 300.367,299.997Z" style="fill:white;fill-rule:nonzero;"/>
    <path d="M245.367,438.991C245.417,437.817 245.784,436.489 246.507,435.085C246.47,436.284 246.077,437.56 245.367,438.991Z" style="fill:white;fill-rule:nonzero;"/>
    <path d="M294.367,314.997C294.418,313.818 294.785,312.488 295.508,311.083C295.471,312.287 295.077,313.566 294.367,314.997Z" style="fill:white;fill-rule:nonzero;"/>
    <path d="M265.363,388.904C265.15,388.383 265.215,387.732 265.567,387.045C265.783,387.597 265.712,388.185 265.363,388.904Z" style="fill:white;fill-rule:nonzero;"/>
    <path d="M290.366,325.903C290.155,325.384 290.22,324.731 290.573,324.043C290.788,324.595 290.715,325.182 290.366,325.903Z" style="fill:white;fill-rule:nonzero;"/>
    <path d="M260.426,400.942C260.262,400.397 260.382,399.734 260.813,399.056C260.986,399.635 260.849,400.229 260.426,400.942Z" style="fill:white;fill-rule:nonzero;"/>
    <path d="M254.37,416.904C254.158,416.384 254.222,415.73 254.576,415.042C254.792,415.595 254.719,416.183 254.37,416.904Z" style="fill:white;fill-rule:nonzero;"/>
    <path d="M256.388,411.915C256.165,411.39 256.221,410.735 256.566,410.044C256.793,410.6 256.731,411.192 256.388,411.915Z" style="fill:white;fill-rule:nonzero;"/>
    <path d="M305.361,287.901C305.151,287.382 305.217,286.73 305.57,286.043C305.784,286.595 305.711,287.181 305.361,287.901Z" style="fill:white;fill-rule:nonzero;"/>
    <path d="M312.399,269.92C312.171,269.393 312.226,268.738 312.569,268.045C312.799,268.603 312.74,269.197 312.399,269.92Z" style="fill:white;fill-rule:nonzero;"/>
    <path d="M267.354,383.896C267.149,383.38 267.217,382.728 267.574,382.042C267.784,382.592 267.706,383.176 267.354,383.896Z" style="fill:white;fill-rule:nonzero;"/>
    <path d="M457.118,424.288C457.458,424.159 457.674,424.382 457.881,424.917C457.667,424.946 457.375,424.751 457.118,424.288Z" style="fill:white;fill-rule:nonzero;"/>
    <path d="M288.303,330.054C288.106,329.829 288.242,329.541 288.656,329.158C288.755,329.334 288.655,329.644 288.303,330.054Z" style="fill:white;fill-rule:nonzero;"/>
    <path d="M318.304,254.055C318.107,253.828 318.242,253.54 318.659,253.157C318.759,253.334 318.657,253.645 318.304,254.055Z" style="fill:white;fill-rule:nonzero;"/>
    <path d="M303.305,292.056C303.106,291.829 303.241,291.54 303.659,291.157C303.76,291.335 303.659,291.645 303.305,292.056Z" style="fill:white;fill-rule:nonzero;"/>
    <path d="M358.102,292.288C358.453,292.152 358.676,292.378 358.879,292.926C358.656,292.959 358.361,292.759 358.102,292.288Z" style="fill:white;fill-rule:nonzero;"/>
    <path d="M361.11,296.287C361.454,296.156 361.674,296.381 361.88,296.921C361.662,296.952 361.368,296.754 361.11,296.287Z" style="fill:white;fill-rule:nonzero;"/>
    <path d="M364.109,300.288C364.456,300.156 364.676,300.381 364.88,300.924C364.66,300.955 364.365,300.756 364.109,300.288Z" style="fill:white;fill-rule:nonzero;"/>
    <path d="M296.296,310.046C296.108,309.829 296.242,309.545 296.648,309.162C296.743,309.332 296.643,309.638 296.296,310.046Z" style="fill:white;fill-rule:nonzero;"/>
    <path d="M375.158,315.28C375.463,315.173 375.67,315.391 375.887,315.893C375.69,315.917 375.411,315.727 375.158,315.28Z" style="fill:white;fill-rule:nonzero;"/>
    <path d="M279.306,353.057C279.105,352.829 279.24,352.539 279.66,352.156C279.762,352.335 279.661,352.646 279.306,353.057Z" style="fill:white;fill-rule:nonzero;"/>
    <path d="M154.428,451.001C153.999,449.935 153.999,448.87 153.998,447.407C179.016,447.002 204.036,446.996 229.523,446.987C229.994,448.054 229.997,449.123 230.002,450.593C208.646,450.997 187.291,450.999 165.236,450.731C163.025,450.64 161.513,450.82 160.001,450.999C158.286,451.001 156.571,451.002 154.428,451.001Z" style="fill:white;fill-rule:nonzero;"/>
    <path d="M234.046,447.397C234.286,447.792 234.285,448.184 234.254,448.575C234.254,448.586 233.949,448.573 233.786,448.572C233.79,448.179 233.795,447.787 234.046,447.397Z" style="fill:white;fill-rule:nonzero;"/>
    <path d="M160.417,451C161.513,450.82 163.025,450.64 164.767,450.729C163.609,450.999 162.221,451 160.417,451Z" style="fill:white;fill-rule:nonzero;"/>
    <path d="M137.044,81.387C138.571,80.276 140.144,79.551 142.419,78.503C143.894,84.043 145.215,89.005 146.619,94.277C145.078,95.108 143.4,96.013 141.366,96.954C139.704,91.918 138.397,86.846 137.044,81.387Z" style="fill:white;fill-rule:nonzero;"/>
</svg>
