<?xml version="1.0" encoding="UTF-8" standalone="no"?>
<!DOCTYPE svg PUBLIC "-//W3C//DTD SVG 1.1//EN" "http://www.w3.org/Graphics/SVG/1.1/DTD/svg11.dtd">
<svg width="100%" height="100%" viewBox="0 0 600 193" version="1.1" xmlns="http://www.w3.org/2000/svg" xmlns:xlink="http://www.w3.org/1999/xlink" xml:space="preserve" xmlns:serif="http://www.serif.com/" style="fill-rule:evenodd;clip-rule:evenodd;stroke-linejoin:round;stroke-miterlimit:2;">
    <g transform="matrix(1,0,0,1,-17.5,-221)">
        <path d="M82.9,285L148.3,285L148.3,221L18.7,221L18.7,221.6L82.9,285Z" style="fill:url(#_Linear1);fill-rule:nonzero;"/>
        <path d="M82.9,285L17.5,285L17.5,349L147.1,349L147.1,348.4C147.1,348.5 82.9,285 82.9,285Z" style="fill:url(#_Linear2);fill-rule:nonzero;"/>
        <path d="M17.5,349L82.2,349L82.2,413.6L17.5,349Z" style="fill:url(#_Linear3);fill-rule:nonzero;"/>
        <path d="M237.3,348.9L237.3,313.8L276.3,313.8L276.3,297.2L237.3,297.2L237.3,273.9L279.4,273.9L279.4,257.2L218.3,257.2L218.3,349L237.3,348.9ZM328.2,281.8C327.2,281.2 324.3,280.6 321.2,280.6C314.6,280.6 309.1,283.9 306.3,288.7L306.3,282.1L287.8,282.1L287.8,348.9L306.3,348.9L306.3,307.5C307.6,301.4 312.8,298.1 319,298.1C322.4,298.1 325.7,298.8 328.3,300.3L328.3,281.8L328.2,281.8ZM389.9,348.9L389.9,306.3C389.9,290.3 379.5,280.6 361.8,280.6C346.6,280.6 335.6,289.9 333.7,302L351.3,302C352.8,298.1 355.9,295.7 361.2,295.7C368.7,295.7 372.1,300.3 372.1,306.1L372.1,311C369.4,309.1 362.7,307.1 356.9,307.1C342.4,307.1 331,315.8 331,328.5C331,342.4 342.4,350.2 355.8,350.2C363.1,350.2 369.9,347.7 372.1,345.4L372.1,349L389.9,348.9ZM372.1,330.6C370.5,334.2 365.4,336.4 360,336.4C354.2,336.4 348.2,334 348.2,328.2C348.2,322.5 354.2,320 360,320C365.4,320 370.5,322.2 372.1,325.8L372.1,330.6ZM455.4,289.1C451.7,284.2 445.4,280.6 437.5,280.6C430,280.6 423.9,283.4 420.6,287.6L420.6,282.1L402,282.1L402,348.9L420.5,348.9L420.5,305.9C421.7,300.2 426.2,297.2 431,297.2C437.5,297.2 440.4,302 440.4,309.2L440.4,348.9L459.1,348.9L459.1,305.9C460.3,300.2 464.6,297.2 469.5,297.2C475.9,297.2 479.1,302 479.1,309.2L479.1,348.9L497.6,348.9L497.6,305.3C497.6,290.2 489.4,280.6 475.6,280.6C466.1,280.6 459.7,284.3 455.4,289.1ZM550.6,327.1C549.1,332.8 544.5,335.5 538.2,335.5C530,335.5 524.3,329.5 523.7,319.5L568.2,319.5L568.2,313.8C568.2,294.2 557.4,280.6 537.9,280.6C519.2,280.6 505.8,295.4 505.8,315.6C505.8,336.2 518.8,350.4 538.2,350.4C554.9,350.4 565.4,341.3 567.8,327.1L550.6,327.1ZM538.1,295.7C545.7,295.7 549.9,301.2 550.1,308.3L524.2,308.3C525.8,300 530.8,295.7 538.1,295.7ZM617.5,281.8C616.5,281.2 613.6,280.6 610.5,280.6C603.9,280.6 598.4,283.9 595.6,288.7L595.6,282.1L577,282.1L577,348.9L595.5,348.9L595.5,307.5C596.8,301.4 601.9,298.1 608.2,298.1C611.6,298.1 614.9,298.8 617.5,300.3L617.5,281.8Z" style="fill-rule:nonzero;"/>
    </g>
    <defs>
        <linearGradient id="_Linear1" x1="0" y1="0" x2="1" y2="0" gradientUnits="userSpaceOnUse" gradientTransform="matrix(-111.824,-16.8733,16.8733,-111.824,147.544,257.81)"><stop offset="0" style="stop-color:rgb(141,228,255);stop-opacity:1"/><stop offset="1" style="stop-color:rgb(48,206,255);stop-opacity:1"/></linearGradient>
        <linearGradient id="_Linear2" x1="0" y1="0" x2="1" y2="0" gradientUnits="userSpaceOnUse" gradientTransform="matrix(-114.872,1.40678e-14,-1.40678e-14,-114.872,147.083,317.027)"><stop offset="0" style="stop-color:rgb(0,197,255);stop-opacity:1"/><stop offset="1" style="stop-color:rgb(0,154,255);stop-opacity:1"/></linearGradient>
        <linearGradient id="_Linear3" x1="0" y1="0" x2="1" y2="0" gradientUnits="userSpaceOnUse" gradientTransform="matrix(3.95754e-15,64.6316,-64.6316,3.95754e-15,49.8741,349.047)"><stop offset="0" style="stop-color:rgb(0,90,255);stop-opacity:1"/><stop offset="1" style="stop-color:rgb(0,141,255);stop-opacity:1"/></linearGradient>
    </defs>
</svg>
