<?xml version="1.0" encoding="UTF-8" standalone="no"?>
<!DOCTYPE svg PUBLIC "-//W3C//DTD SVG 1.1//EN" "http://www.w3.org/Graphics/SVG/1.1/DTD/svg11.dtd">
<svg width="100%" height="100%" viewBox="0 0 3932 2004" version="1.1" xmlns="http://www.w3.org/2000/svg" xmlns:xlink="http://www.w3.org/1999/xlink" xml:space="preserve" xmlns:serif="http://www.serif.com/" style="fill-rule:evenodd;clip-rule:evenodd;stroke-linejoin:round;stroke-miterlimit:2;">
    <g transform="matrix(1,0,0,1,6.28573,-0.0329236)">
        <g transform="matrix(1,0,0,1,-9.44073,-490.036)">
            <path d="M1769.85,490.069L1608.9,2293.12L885.42,2493.68L163.938,2293.39L3.155,490.069L1769.85,490.069Z" style="fill:rgb(228,77,38);fill-rule:nonzero;"/>
        </g>
        <g transform="matrix(1,0,0,1,-9.44073,-490.036)">
            <path d="M886.5,2340.37L1471.11,2178.3L1608.64,637.514L886.5,637.514L886.5,2340.37Z" style="fill:rgb(241,101,41);fill-rule:nonzero;"/>
            <path d="M573.619,1079.86L886.5,1079.86L886.5,858.691L331.909,858.691L337.199,918.026L391.562,1527.51L886.5,1527.51L886.5,1306.34L593.834,1306.34L573.619,1079.86ZM623.467,1638.1L401.445,1638.1L432.428,1985.37L885.482,2111.14L886.5,2110.86L886.5,1880.75L885.53,1881L639.215,1814.49L623.467,1638.1Z" style="fill-rule:nonzero;"/>
            <path d="M885.738,1527.51L1158.09,1527.51L1132.41,1814.36L885.731,1880.93L885.731,2111.03L1339.14,1985.37L1342.47,1948.01L1394.45,1365.73L1399.85,1306.34L885.738,1306.34L885.738,1527.51ZM885.738,1079.32L885.738,1079.86L1419.97,1079.86L1424.4,1030.15L1434.49,918.026L1439.77,858.691L885.738,858.691L885.738,1079.33L885.738,1079.32Z" style="fill-rule:nonzero;"/>
            <g transform="matrix(4.62695,0,0,4.62695,1014.99,1227.57)">
                <path d="M169.928,0L205.895,0L205.895,35.535L238.797,35.535L238.797,0L274.766,0L274.766,107.608L238.799,107.608L238.799,71.575L205.897,71.575L205.897,107.608L169.93,107.608L169.93,0L169.928,0ZM322.068,35.685L290.402,35.685L290.402,0L389.713,0L389.713,35.685L358.034,35.685L358.034,107.608L322.068,107.608L322.068,35.685ZM405.474,0L442.976,0L466.045,37.811L489.093,0L526.611,0L526.611,107.608L490.79,107.608L490.79,54.271L466.045,92.532L465.425,92.532L440.665,54.271L440.665,107.608L405.474,107.608L405.474,0ZM544.507,0L580.488,0L580.488,72.04L631.067,72.04L631.067,107.608L544.507,107.608L544.507,0Z" style="fill-rule:nonzero;"/>
            </g>
        </g>
    </g>
</svg>
