<?xml version="1.0" encoding="UTF-8" standalone="no"?>
<!DOCTYPE svg PUBLIC "-//W3C//DTD SVG 1.1//EN" "http://www.w3.org/Graphics/SVG/1.1/DTD/svg11.dtd">
<svg width="100%" height="100%" viewBox="0 0 2500 866" version="1.1" xmlns="http://www.w3.org/2000/svg" xmlns:xlink="http://www.w3.org/1999/xlink" xml:space="preserve" xmlns:serif="http://www.serif.com/" style="fill-rule:evenodd;clip-rule:evenodd;stroke-linejoin:round;stroke-miterlimit:2;">
    <path d="M2492.16,642.639L2433.39,650.476C2433.39,650.476 2429.47,626.966 2409.88,611.292C2390.28,595.618 2323.67,599.536 2323.67,638.721C2323.67,673.987 2351.1,670.069 2405.96,681.824C2456.9,693.58 2500,709.254 2500,779.787C2500,818.972 2472.57,865.994 2386.36,865.994C2245.3,865.994 2257.05,760.194 2257.05,760.194L2319.75,760.194C2319.75,760.194 2323.67,795.461 2347.18,803.298C2374.61,815.053 2421.63,811.135 2429.47,787.624C2437.3,764.113 2437.3,736.683 2362.85,728.846C2288.4,717.091 2257.05,685.743 2257.05,634.803C2260.97,587.781 2288.4,548.596 2386.36,548.596C2484.33,552.514 2492.16,642.639 2492.16,642.639ZM2221.79,642.639L2163.01,650.476C2163.01,650.476 2159.09,626.966 2139.5,611.292C2119.91,595.618 2053.29,599.536 2053.29,638.721C2053.29,673.987 2080.72,670.069 2135.58,681.824C2186.52,693.58 2229.62,709.254 2229.62,779.787C2229.62,818.972 2202.19,865.994 2115.99,865.994C1974.92,865.994 1986.68,760.194 1986.68,760.194L2053.29,760.194C2053.29,760.194 2057.21,795.461 2080.72,803.298C2108.15,815.053 2155.17,811.135 2163.01,787.624C2170.85,764.113 2170.85,736.683 2096.39,728.846C2029.78,721.009 1994.51,693.58 1994.51,650.476L1994.51,634.803C1998.43,587.781 2025.86,548.596 2119.91,548.596C2210.03,552.514 2221.79,642.639 2221.79,642.639ZM1888.72,752.357L1955.33,752.357L1955.33,756.276C1951.41,779.787 1939.65,862.075 1826.02,862.075C1724.14,862.075 1688.87,783.705 1688.87,701.417C1688.87,615.21 1739.81,552.514 1833.86,552.514C1939.65,552.514 1947.49,654.395 1947.49,654.395L1884.8,662.232C1884.8,662.232 1880.88,607.373 1826.02,607.373C1771.16,607.373 1751.57,650.476 1751.57,701.417C1751.57,752.357 1767.24,811.135 1822.1,811.135C1876.96,811.135 1888.72,752.357 1888.72,752.357ZM1555.64,560.351L1555.64,858.157L1500.78,858.157L1500.78,830.727C1500.78,830.727 1481.19,865.994 1434.17,865.994C1383.23,865.994 1347.96,842.483 1344.04,752.357C1344.04,658.313 1402.82,634.803 1442.01,634.803C1477.27,634.803 1500.78,662.232 1500.78,662.232L1500.78,560.351L1555.64,560.351ZM1500.78,748.439C1500.78,717.091 1496.87,681.824 1449.84,681.824C1402.82,681.824 1402.82,736.683 1402.82,752.357C1402.82,771.95 1406.74,815.053 1449.84,815.053C1492.95,815.053 1500.78,779.787 1500.78,748.439ZM1300.94,709.254L1300.94,854.238L1242.16,854.238L1242.16,713.172C1242.16,693.58 1230.41,677.906 1206.9,677.906C1183.39,677.906 1159.88,697.498 1159.88,717.091L1159.88,854.238L1101.1,854.238L1101.1,634.803L1159.88,634.803L1159.88,666.15C1159.88,666.15 1179.47,626.966 1238.25,630.884C1304.86,638.721 1300.94,701.417 1300.94,709.254ZM995.298,638.721L1054.08,638.721L1054.08,858.157L995.298,858.157L995.298,638.721ZM995.298,560.351L1054.08,560.351L1054.08,611.292L995.298,611.292L995.298,560.351ZM971.787,638.721L909.091,858.157L850.313,858.157L811.129,713.172L771.944,858.157L717.085,858.157L654.389,638.721L717.085,638.721L748.433,779.787L791.536,638.721L842.476,638.721L877.743,783.705L909.091,638.721L971.787,638.721ZM568.182,556.433L626.959,556.433L626.959,854.238L568.182,854.238L568.182,556.433ZM462.382,638.721L521.16,638.721L521.16,858.157L462.382,858.157L462.382,638.721ZM462.382,560.351L521.16,560.351L521.16,611.292L462.382,611.292L462.382,560.351ZM415.361,717.091L415.361,854.238L360.502,854.238L360.502,826.809C360.502,826.809 344.828,846.401 321.317,854.238C286.05,865.994 235.11,858.157 219.436,818.972C207.68,787.624 219.436,752.357 250.784,736.683C289.969,717.091 356.583,721.009 356.583,721.009C356.583,721.009 360.502,705.335 352.665,693.58C348.746,681.824 336.991,677.906 321.317,677.906C282.132,677.906 282.132,705.335 282.132,705.335L227.273,701.417C227.273,701.417 227.273,673.987 254.702,654.395C270.376,642.639 289.969,638.721 325.235,638.721C368.339,638.721 415.361,654.395 415.361,717.091ZM325.235,815.053C364.42,807.216 360.502,760.194 360.502,760.194L344.828,760.194C333.072,760.194 317.398,760.194 305.643,764.113C286.05,768.031 278.213,775.868 274.295,783.705C270.376,795.461 274.295,807.216 286.05,815.053C293.887,818.972 305.643,818.972 325.235,815.053ZM242.947,556.433L242.947,615.21L152.821,615.21L152.821,858.157L86.207,858.157L86.207,611.292L0,611.292L0,556.433L242.947,556.433Z" style="fill-rule:nonzero;"/>
    <path d="M1688.87,90.132C1688.87,90.132 1634.01,172.42 1539.97,156.746C1445.92,141.072 1430.25,0.006 1261.76,0.006C1054.08,0.006 1030.56,176.339 1030.56,176.339C1030.56,176.339 1089.34,90.132 1179.47,105.806C1269.59,121.48 1304.86,262.545 1489.03,262.545C1673.2,262.545 1688.87,90.132 1688.87,90.132Z" style="fill:url(#_Linear1);fill-rule:nonzero;"/>
    <path d="M1469.44,352.671C1469.44,352.671 1414.58,434.959 1320.53,419.285C1226.49,403.611 1210.82,262.545 1042.32,262.545C834.639,262.545 811.129,438.878 811.129,438.878C811.129,438.878 869.906,352.671 960.031,368.345C1046.24,384.019 1085.42,525.085 1269.59,525.085C1453.76,525.085 1469.44,352.671 1469.44,352.671Z" style="fill:url(#_Linear2);fill-rule:nonzero;"/>
    <defs>
        <linearGradient id="_Linear1" x1="0" y1="0" x2="1" y2="0" gradientUnits="userSpaceOnUse" gradientTransform="matrix(659.796,0,0,659.796,1028.72,131.263)"><stop offset="0" style="stop-color:rgb(69,169,179);stop-opacity:1"/><stop offset="0.39" style="stop-color:rgb(63,174,176);stop-opacity:1"/><stop offset="1" style="stop-color:rgb(44,187,171);stop-opacity:1"/></linearGradient>
        <linearGradient id="_Linear2" x1="0" y1="0" x2="1" y2="0" gradientUnits="userSpaceOnUse" gradientTransform="matrix(659.757,0,0,659.757,808.072,393.803)"><stop offset="0" style="stop-color:rgb(69,169,179);stop-opacity:1"/><stop offset="0.39" style="stop-color:rgb(63,174,176);stop-opacity:1"/><stop offset="1" style="stop-color:rgb(44,187,171);stop-opacity:1"/></linearGradient>
    </defs>
</svg>
